G04 #@! TF.GenerationSoftware,KiCad,Pcbnew,(5.1.2)-2*
G04 #@! TF.CreationDate,2019-07-02T21:43:23+09:00*
G04 #@! TF.ProjectId,itg_uturn_adapter,6974675f-7574-4757-926e-5f6164617074,rev?*
G04 #@! TF.SameCoordinates,Original*
G04 #@! TF.FileFunction,Copper,L2,Bot*
G04 #@! TF.FilePolarity,Positive*
%FSLAX46Y46*%
G04 Gerber Fmt 4.6, Leading zero omitted, Abs format (unit mm)*
G04 Created by KiCad (PCBNEW (5.1.2)-2) date 2019-07-02 21:43:23*
%MOMM*%
%LPD*%
G04 APERTURE LIST*
%ADD10R,1.700000X1.700000*%
%ADD11O,1.700000X1.700000*%
%ADD12C,0.250000*%
%ADD13C,1.000000*%
%ADD14C,0.254000*%
G04 APERTURE END LIST*
D10*
X91440000Y-64770000D03*
D11*
X93980000Y-64770000D03*
X91440000Y-67310000D03*
X93980000Y-67310000D03*
X91440000Y-69850000D03*
X93980000Y-69850000D03*
X91440000Y-72390000D03*
X93980000Y-72390000D03*
X91440000Y-74930000D03*
X93980000Y-74930000D03*
X91440000Y-77470000D03*
X93980000Y-77470000D03*
X91440000Y-80010000D03*
X93980000Y-80010000D03*
X91440000Y-82550000D03*
X93980000Y-82550000D03*
X91440000Y-85090000D03*
X93980000Y-85090000D03*
X91440000Y-87630000D03*
X93980000Y-87630000D03*
X91440000Y-90170000D03*
X93980000Y-90170000D03*
X91440000Y-92710000D03*
X93980000Y-92710000D03*
X91440000Y-95250000D03*
X93980000Y-95250000D03*
X91440000Y-97790000D03*
X93980000Y-97790000D03*
X91440000Y-100330000D03*
X93980000Y-100330000D03*
X91440000Y-102870000D03*
X93980000Y-102870000D03*
X91440000Y-105410000D03*
X93980000Y-105410000D03*
X91440000Y-107950000D03*
X93980000Y-107950000D03*
X91440000Y-110490000D03*
X93980000Y-110490000D03*
X91440000Y-113030000D03*
X93980000Y-113030000D03*
D10*
X102870000Y-64770000D03*
D11*
X100330000Y-64770000D03*
X102870000Y-67310000D03*
X100330000Y-67310000D03*
X102870000Y-69850000D03*
X100330000Y-69850000D03*
X102870000Y-72390000D03*
X100330000Y-72390000D03*
X102870000Y-74930000D03*
X100330000Y-74930000D03*
X102870000Y-77470000D03*
X100330000Y-77470000D03*
X102870000Y-80010000D03*
X100330000Y-80010000D03*
X102870000Y-82550000D03*
X100330000Y-82550000D03*
X102870000Y-85090000D03*
X100330000Y-85090000D03*
X102870000Y-87630000D03*
X100330000Y-87630000D03*
X102870000Y-90170000D03*
X100330000Y-90170000D03*
X102870000Y-92710000D03*
X100330000Y-92710000D03*
X102870000Y-95250000D03*
X100330000Y-95250000D03*
X102870000Y-97790000D03*
X100330000Y-97790000D03*
X102870000Y-100330000D03*
X100330000Y-100330000D03*
X102870000Y-102870000D03*
X100330000Y-102870000D03*
X102870000Y-105410000D03*
X100330000Y-105410000D03*
X102870000Y-107950000D03*
X100330000Y-107950000D03*
X102870000Y-110490000D03*
X100330000Y-110490000D03*
X102870000Y-113030000D03*
X100330000Y-113030000D03*
D12*
X92710000Y-63500000D02*
X91440000Y-64770000D01*
X100330000Y-67310000D02*
X96520000Y-63500000D01*
X96520000Y-63500000D02*
X92710000Y-63500000D01*
X101600000Y-68580000D02*
X102870000Y-69850000D01*
X99060000Y-68580000D02*
X101600000Y-68580000D01*
X96520000Y-66040000D02*
X99060000Y-68580000D01*
X91440000Y-67310000D02*
X92710000Y-66040000D01*
X92710000Y-66040000D02*
X96520000Y-66040000D01*
X98425000Y-69850000D02*
X100330000Y-69850000D01*
X97155000Y-68580000D02*
X98425000Y-69850000D01*
X91440000Y-69850000D02*
X92710000Y-68580000D01*
X92710000Y-68580000D02*
X97155000Y-68580000D01*
X93980000Y-69850000D02*
X96520000Y-69850000D01*
X96520000Y-69850000D02*
X97790000Y-71120000D01*
X97790000Y-71120000D02*
X101600000Y-71120000D01*
X101600000Y-71120000D02*
X102870000Y-72390000D01*
X97155000Y-72390000D02*
X100330000Y-72390000D01*
X95885000Y-71120000D02*
X97155000Y-72390000D01*
X91440000Y-72390000D02*
X92710000Y-71120000D01*
X92710000Y-71120000D02*
X95885000Y-71120000D01*
X93980000Y-72390000D02*
X95250000Y-72390000D01*
X95250000Y-72390000D02*
X96520000Y-73660000D01*
X96520000Y-73660000D02*
X101600000Y-73660000D01*
X101600000Y-73660000D02*
X102870000Y-74930000D01*
X95885000Y-74930000D02*
X100330000Y-74930000D01*
X94615000Y-73660000D02*
X95885000Y-74930000D01*
X91440000Y-74930000D02*
X92710000Y-73660000D01*
X92710000Y-73660000D02*
X94615000Y-73660000D01*
X95250000Y-76200000D02*
X93980000Y-74930000D01*
X100965000Y-76200000D02*
X95250000Y-76200000D01*
X101600000Y-76835000D02*
X100965000Y-76200000D01*
X102870000Y-80010000D02*
X101600000Y-78740000D01*
X101600000Y-78740000D02*
X101600000Y-76835000D01*
X97790000Y-77470000D02*
X93980000Y-77470000D01*
X100330000Y-80010000D02*
X97790000Y-77470000D01*
X101600000Y-81280000D02*
X102870000Y-82550000D01*
X99695000Y-81280000D02*
X101600000Y-81280000D01*
X97155000Y-78740000D02*
X99695000Y-81280000D01*
X91440000Y-80010000D02*
X92710000Y-78740000D01*
X92710000Y-78740000D02*
X97155000Y-78740000D01*
X93980000Y-80010000D02*
X96520000Y-80010000D01*
X96520000Y-80010000D02*
X99060000Y-82550000D01*
X99060000Y-82550000D02*
X100330000Y-82550000D01*
X101600000Y-83820000D02*
X102870000Y-85090000D01*
X98425000Y-83820000D02*
X101600000Y-83820000D01*
X95885000Y-81280000D02*
X98425000Y-83820000D01*
X91440000Y-82550000D02*
X92710000Y-81280000D01*
X92710000Y-81280000D02*
X95885000Y-81280000D01*
X93980000Y-82550000D02*
X95250000Y-82550000D01*
X95250000Y-82550000D02*
X97790000Y-85090000D01*
X97790000Y-85090000D02*
X100330000Y-85090000D01*
X92710000Y-86360000D02*
X91440000Y-85090000D01*
X94615000Y-86360000D02*
X92710000Y-86360000D01*
X99695000Y-91440000D02*
X94615000Y-86360000D01*
X102870000Y-90170000D02*
X101600000Y-91440000D01*
X101600000Y-91440000D02*
X99695000Y-91440000D01*
X93980000Y-85090000D02*
X95250000Y-85090000D01*
X95250000Y-85090000D02*
X100330000Y-90170000D01*
X101600000Y-93980000D02*
X102870000Y-92710000D01*
X91440000Y-92710000D02*
X92710000Y-93980000D01*
X92710000Y-93980000D02*
X101600000Y-93980000D01*
X99060000Y-92710000D02*
X100330000Y-92710000D01*
X97790000Y-92710000D02*
X100330000Y-92710000D01*
X96520000Y-91440000D02*
X97790000Y-92710000D01*
X91440000Y-90170000D02*
X92710000Y-91440000D01*
X92710000Y-91440000D02*
X96520000Y-91440000D01*
X91440000Y-97790000D02*
X92710000Y-96520000D01*
X92710000Y-96520000D02*
X95885000Y-96520000D01*
X95885000Y-96520000D02*
X97155000Y-95250000D01*
X97155000Y-95250000D02*
X100330000Y-95250000D01*
X101600000Y-96520000D02*
X102870000Y-97790000D01*
X101600000Y-96520000D02*
X98425000Y-96520000D01*
X98425000Y-96520000D02*
X97155000Y-97790000D01*
X97155000Y-97790000D02*
X93980000Y-97790000D01*
X99060000Y-99060000D02*
X100330000Y-97790000D01*
X91440000Y-100330000D02*
X92710000Y-99060000D01*
X92710000Y-99060000D02*
X99060000Y-99060000D01*
X101600000Y-101600000D02*
X102870000Y-102870000D01*
X91440000Y-102870000D02*
X92710000Y-101600000D01*
X92710000Y-101600000D02*
X101600000Y-101600000D01*
X93980000Y-102870000D02*
X100330000Y-102870000D01*
X101600000Y-104140000D02*
X102870000Y-105410000D01*
X91440000Y-105410000D02*
X92710000Y-104140000D01*
X92710000Y-104140000D02*
X101600000Y-104140000D01*
X101600000Y-106680000D02*
X102870000Y-107950000D01*
X91440000Y-107950000D02*
X92710000Y-106680000D01*
X92710000Y-106680000D02*
X101600000Y-106680000D01*
X93980000Y-107950000D02*
X100330000Y-107950000D01*
X101600000Y-109220000D02*
X102870000Y-110490000D01*
X91440000Y-110490000D02*
X92710000Y-109220000D01*
X92710000Y-109220000D02*
X101600000Y-109220000D01*
X93980000Y-110490000D02*
X100330000Y-110490000D01*
X91440000Y-113030000D02*
X92710000Y-111760000D01*
X92710000Y-111760000D02*
X101600000Y-111760000D01*
X101600000Y-111760000D02*
X102870000Y-113030000D01*
D13*
X91440000Y-77470000D02*
X90170000Y-77470000D01*
X90170000Y-77470000D02*
X89535000Y-76835000D01*
X89535000Y-76835000D02*
X89535000Y-62865000D01*
X89535000Y-62865000D02*
X90170000Y-62230000D01*
X90170000Y-62230000D02*
X104140000Y-62230000D01*
X104140000Y-62230000D02*
X104775000Y-62865000D01*
X104775000Y-62865000D02*
X104775000Y-76835000D01*
X104775000Y-76835000D02*
X104140000Y-77470000D01*
X104140000Y-77470000D02*
X102870000Y-77470000D01*
X93980000Y-100330000D02*
X100330000Y-100330000D01*
X93980000Y-113030000D02*
X93980000Y-114935000D01*
X93980000Y-113030000D02*
X95885000Y-113030000D01*
X93980000Y-105410000D02*
X95885000Y-105410000D01*
X93980000Y-95250000D02*
X95182081Y-95250000D01*
X93980000Y-90170000D02*
X95885000Y-90170000D01*
X91440000Y-87630000D02*
X90170000Y-87630000D01*
X95182081Y-64770000D02*
X95250000Y-64770000D01*
X95250000Y-64770000D02*
X95885000Y-64770000D01*
X93980000Y-64770000D02*
X95182081Y-64770000D01*
X93980000Y-92710000D02*
X95885000Y-92710000D01*
D14*
G36*
X89328008Y-78233140D02*
G01*
X89363551Y-78276449D01*
X89536377Y-78418284D01*
X89733553Y-78523676D01*
X89947501Y-78588577D01*
X89972245Y-78591014D01*
X90170000Y-78610491D01*
X90225752Y-78605000D01*
X90482183Y-78605000D01*
X90610986Y-78710706D01*
X90665791Y-78740000D01*
X90610986Y-78769294D01*
X90384866Y-78954866D01*
X90199294Y-79180986D01*
X90061401Y-79438966D01*
X89976487Y-79718889D01*
X89947815Y-80010000D01*
X89976487Y-80301111D01*
X90061401Y-80581034D01*
X90199294Y-80839014D01*
X90384866Y-81065134D01*
X90610986Y-81250706D01*
X90665791Y-81280000D01*
X90610986Y-81309294D01*
X90384866Y-81494866D01*
X90199294Y-81720986D01*
X90061401Y-81978966D01*
X89976487Y-82258889D01*
X89947815Y-82550000D01*
X89976487Y-82841111D01*
X90061401Y-83121034D01*
X90199294Y-83379014D01*
X90384866Y-83605134D01*
X90610986Y-83790706D01*
X90665791Y-83820000D01*
X90610986Y-83849294D01*
X90384866Y-84034866D01*
X90199294Y-84260986D01*
X90061401Y-84518966D01*
X89976487Y-84798889D01*
X89947815Y-85090000D01*
X89976487Y-85381111D01*
X90061401Y-85661034D01*
X90199294Y-85919014D01*
X90384866Y-86145134D01*
X90610986Y-86330706D01*
X90675523Y-86365201D01*
X90558645Y-86434822D01*
X90342412Y-86629731D01*
X90168359Y-86863080D01*
X90043175Y-87125901D01*
X89998524Y-87273110D01*
X90119845Y-87503000D01*
X91313000Y-87503000D01*
X91313000Y-87483000D01*
X91567000Y-87483000D01*
X91567000Y-87503000D01*
X91587000Y-87503000D01*
X91587000Y-87757000D01*
X91567000Y-87757000D01*
X91567000Y-87777000D01*
X91313000Y-87777000D01*
X91313000Y-87757000D01*
X90119845Y-87757000D01*
X89998524Y-87986890D01*
X90043175Y-88134099D01*
X90168359Y-88396920D01*
X90342412Y-88630269D01*
X90558645Y-88825178D01*
X90675523Y-88894799D01*
X90610986Y-88929294D01*
X90384866Y-89114866D01*
X90199294Y-89340986D01*
X90061401Y-89598966D01*
X89976487Y-89878889D01*
X89947815Y-90170000D01*
X89976487Y-90461111D01*
X90061401Y-90741034D01*
X90199294Y-90999014D01*
X90384866Y-91225134D01*
X90610986Y-91410706D01*
X90665791Y-91440000D01*
X90610986Y-91469294D01*
X90384866Y-91654866D01*
X90199294Y-91880986D01*
X90061401Y-92138966D01*
X89976487Y-92418889D01*
X89947815Y-92710000D01*
X89976487Y-93001111D01*
X90061401Y-93281034D01*
X90199294Y-93539014D01*
X90384866Y-93765134D01*
X90610986Y-93950706D01*
X90665791Y-93980000D01*
X90610986Y-94009294D01*
X90384866Y-94194866D01*
X90199294Y-94420986D01*
X90061401Y-94678966D01*
X89976487Y-94958889D01*
X89947815Y-95250000D01*
X89976487Y-95541111D01*
X90061401Y-95821034D01*
X90199294Y-96079014D01*
X90384866Y-96305134D01*
X90610986Y-96490706D01*
X90665791Y-96520000D01*
X90610986Y-96549294D01*
X90384866Y-96734866D01*
X90199294Y-96960986D01*
X90061401Y-97218966D01*
X89976487Y-97498889D01*
X89947815Y-97790000D01*
X89976487Y-98081111D01*
X90061401Y-98361034D01*
X90199294Y-98619014D01*
X90384866Y-98845134D01*
X90610986Y-99030706D01*
X90665791Y-99060000D01*
X90610986Y-99089294D01*
X90384866Y-99274866D01*
X90199294Y-99500986D01*
X90061401Y-99758966D01*
X89976487Y-100038889D01*
X89947815Y-100330000D01*
X89976487Y-100621111D01*
X90061401Y-100901034D01*
X90199294Y-101159014D01*
X90384866Y-101385134D01*
X90610986Y-101570706D01*
X90665791Y-101600000D01*
X90610986Y-101629294D01*
X90384866Y-101814866D01*
X90199294Y-102040986D01*
X90061401Y-102298966D01*
X89976487Y-102578889D01*
X89947815Y-102870000D01*
X89976487Y-103161111D01*
X90061401Y-103441034D01*
X90199294Y-103699014D01*
X90384866Y-103925134D01*
X90610986Y-104110706D01*
X90665791Y-104140000D01*
X90610986Y-104169294D01*
X90384866Y-104354866D01*
X90199294Y-104580986D01*
X90061401Y-104838966D01*
X89976487Y-105118889D01*
X89947815Y-105410000D01*
X89976487Y-105701111D01*
X90061401Y-105981034D01*
X90199294Y-106239014D01*
X90384866Y-106465134D01*
X90610986Y-106650706D01*
X90665791Y-106680000D01*
X90610986Y-106709294D01*
X90384866Y-106894866D01*
X90199294Y-107120986D01*
X90061401Y-107378966D01*
X89976487Y-107658889D01*
X89947815Y-107950000D01*
X89976487Y-108241111D01*
X90061401Y-108521034D01*
X90199294Y-108779014D01*
X90384866Y-109005134D01*
X90610986Y-109190706D01*
X90665791Y-109220000D01*
X90610986Y-109249294D01*
X90384866Y-109434866D01*
X90199294Y-109660986D01*
X90061401Y-109918966D01*
X89976487Y-110198889D01*
X89947815Y-110490000D01*
X89976487Y-110781111D01*
X90061401Y-111061034D01*
X90199294Y-111319014D01*
X90384866Y-111545134D01*
X90610986Y-111730706D01*
X90665791Y-111760000D01*
X90610986Y-111789294D01*
X90384866Y-111974866D01*
X90199294Y-112200986D01*
X90061401Y-112458966D01*
X89976487Y-112738889D01*
X89947815Y-113030000D01*
X89976487Y-113321111D01*
X90061401Y-113601034D01*
X90199294Y-113859014D01*
X90384866Y-114085134D01*
X90610986Y-114270706D01*
X90868966Y-114408599D01*
X91148889Y-114493513D01*
X91367050Y-114515000D01*
X91512950Y-114515000D01*
X91731111Y-114493513D01*
X92011034Y-114408599D01*
X92269014Y-114270706D01*
X92495134Y-114085134D01*
X92680706Y-113859014D01*
X92711584Y-113801244D01*
X92882412Y-114030269D01*
X93098645Y-114225178D01*
X93348748Y-114374157D01*
X93623109Y-114471481D01*
X93853000Y-114350814D01*
X93853000Y-113157000D01*
X94107000Y-113157000D01*
X94107000Y-114350814D01*
X94336891Y-114471481D01*
X94611252Y-114374157D01*
X94861355Y-114225178D01*
X95077588Y-114030269D01*
X95251641Y-113796920D01*
X95376825Y-113534099D01*
X95421476Y-113386890D01*
X95300155Y-113157000D01*
X94107000Y-113157000D01*
X93853000Y-113157000D01*
X93833000Y-113157000D01*
X93833000Y-112903000D01*
X93853000Y-112903000D01*
X93853000Y-112883000D01*
X94107000Y-112883000D01*
X94107000Y-112903000D01*
X95300155Y-112903000D01*
X95421476Y-112673110D01*
X95376825Y-112525901D01*
X95374014Y-112520000D01*
X98932886Y-112520000D01*
X98866487Y-112738889D01*
X98837815Y-113030000D01*
X98866487Y-113321111D01*
X98951401Y-113601034D01*
X99089294Y-113859014D01*
X99274866Y-114085134D01*
X99500986Y-114270706D01*
X99758966Y-114408599D01*
X100038889Y-114493513D01*
X100257050Y-114515000D01*
X100402950Y-114515000D01*
X100621111Y-114493513D01*
X100901034Y-114408599D01*
X101159014Y-114270706D01*
X101385134Y-114085134D01*
X101570706Y-113859014D01*
X101600000Y-113804209D01*
X101629294Y-113859014D01*
X101814866Y-114085134D01*
X102040986Y-114270706D01*
X102298966Y-114408599D01*
X102578889Y-114493513D01*
X102797050Y-114515000D01*
X102942950Y-114515000D01*
X103161111Y-114493513D01*
X103441034Y-114408599D01*
X103699014Y-114270706D01*
X103925134Y-114085134D01*
X104110706Y-113859014D01*
X104248599Y-113601034D01*
X104333513Y-113321111D01*
X104362185Y-113030000D01*
X104333513Y-112738889D01*
X104248599Y-112458966D01*
X104110706Y-112200986D01*
X103925134Y-111974866D01*
X103699014Y-111789294D01*
X103644209Y-111760000D01*
X103699014Y-111730706D01*
X103925134Y-111545134D01*
X104110706Y-111319014D01*
X104248599Y-111061034D01*
X104333513Y-110781111D01*
X104362185Y-110490000D01*
X104333513Y-110198889D01*
X104248599Y-109918966D01*
X104110706Y-109660986D01*
X103925134Y-109434866D01*
X103699014Y-109249294D01*
X103644209Y-109220000D01*
X103699014Y-109190706D01*
X103925134Y-109005134D01*
X104110706Y-108779014D01*
X104248599Y-108521034D01*
X104333513Y-108241111D01*
X104362185Y-107950000D01*
X104333513Y-107658889D01*
X104248599Y-107378966D01*
X104110706Y-107120986D01*
X103925134Y-106894866D01*
X103699014Y-106709294D01*
X103644209Y-106680000D01*
X103699014Y-106650706D01*
X103925134Y-106465134D01*
X104110706Y-106239014D01*
X104248599Y-105981034D01*
X104333513Y-105701111D01*
X104362185Y-105410000D01*
X104333513Y-105118889D01*
X104248599Y-104838966D01*
X104110706Y-104580986D01*
X103925134Y-104354866D01*
X103699014Y-104169294D01*
X103644209Y-104140000D01*
X103699014Y-104110706D01*
X103925134Y-103925134D01*
X104110706Y-103699014D01*
X104248599Y-103441034D01*
X104333513Y-103161111D01*
X104362185Y-102870000D01*
X104333513Y-102578889D01*
X104248599Y-102298966D01*
X104110706Y-102040986D01*
X103925134Y-101814866D01*
X103699014Y-101629294D01*
X103644209Y-101600000D01*
X103699014Y-101570706D01*
X103925134Y-101385134D01*
X104110706Y-101159014D01*
X104248599Y-100901034D01*
X104333513Y-100621111D01*
X104362185Y-100330000D01*
X104333513Y-100038889D01*
X104248599Y-99758966D01*
X104110706Y-99500986D01*
X103925134Y-99274866D01*
X103699014Y-99089294D01*
X103644209Y-99060000D01*
X103699014Y-99030706D01*
X103925134Y-98845134D01*
X104110706Y-98619014D01*
X104248599Y-98361034D01*
X104333513Y-98081111D01*
X104362185Y-97790000D01*
X104333513Y-97498889D01*
X104248599Y-97218966D01*
X104110706Y-96960986D01*
X103925134Y-96734866D01*
X103699014Y-96549294D01*
X103644209Y-96520000D01*
X103699014Y-96490706D01*
X103925134Y-96305134D01*
X104110706Y-96079014D01*
X104248599Y-95821034D01*
X104333513Y-95541111D01*
X104362185Y-95250000D01*
X104333513Y-94958889D01*
X104248599Y-94678966D01*
X104110706Y-94420986D01*
X103925134Y-94194866D01*
X103699014Y-94009294D01*
X103644209Y-93980000D01*
X103699014Y-93950706D01*
X103925134Y-93765134D01*
X104110706Y-93539014D01*
X104248599Y-93281034D01*
X104333513Y-93001111D01*
X104362185Y-92710000D01*
X104333513Y-92418889D01*
X104248599Y-92138966D01*
X104110706Y-91880986D01*
X103925134Y-91654866D01*
X103699014Y-91469294D01*
X103644209Y-91440000D01*
X103699014Y-91410706D01*
X103925134Y-91225134D01*
X104110706Y-90999014D01*
X104248599Y-90741034D01*
X104333513Y-90461111D01*
X104362185Y-90170000D01*
X104333513Y-89878889D01*
X104248599Y-89598966D01*
X104110706Y-89340986D01*
X103925134Y-89114866D01*
X103699014Y-88929294D01*
X103644209Y-88900000D01*
X103699014Y-88870706D01*
X103925134Y-88685134D01*
X104110706Y-88459014D01*
X104248599Y-88201034D01*
X104333513Y-87921111D01*
X104362185Y-87630000D01*
X104333513Y-87338889D01*
X104248599Y-87058966D01*
X104110706Y-86800986D01*
X103925134Y-86574866D01*
X103699014Y-86389294D01*
X103644209Y-86360000D01*
X103699014Y-86330706D01*
X103925134Y-86145134D01*
X104110706Y-85919014D01*
X104248599Y-85661034D01*
X104333513Y-85381111D01*
X104362185Y-85090000D01*
X104333513Y-84798889D01*
X104248599Y-84518966D01*
X104110706Y-84260986D01*
X103925134Y-84034866D01*
X103699014Y-83849294D01*
X103644209Y-83820000D01*
X103699014Y-83790706D01*
X103925134Y-83605134D01*
X104110706Y-83379014D01*
X104248599Y-83121034D01*
X104333513Y-82841111D01*
X104362185Y-82550000D01*
X104333513Y-82258889D01*
X104248599Y-81978966D01*
X104110706Y-81720986D01*
X103925134Y-81494866D01*
X103699014Y-81309294D01*
X103644209Y-81280000D01*
X103699014Y-81250706D01*
X103925134Y-81065134D01*
X104110706Y-80839014D01*
X104248599Y-80581034D01*
X104333513Y-80301111D01*
X104362185Y-80010000D01*
X104333513Y-79718889D01*
X104248599Y-79438966D01*
X104110706Y-79180986D01*
X103925134Y-78954866D01*
X103699014Y-78769294D01*
X103644209Y-78740000D01*
X103699014Y-78710706D01*
X103827817Y-78605000D01*
X104084249Y-78605000D01*
X104140000Y-78610491D01*
X104195751Y-78605000D01*
X104195752Y-78605000D01*
X104362499Y-78588577D01*
X104576447Y-78523676D01*
X104773623Y-78418284D01*
X104946449Y-78276449D01*
X104981995Y-78233136D01*
X105283000Y-77932132D01*
X105283000Y-116713000D01*
X89027000Y-116713000D01*
X89027000Y-77932131D01*
X89328008Y-78233140D01*
X89328008Y-78233140D01*
G37*
X89328008Y-78233140D02*
X89363551Y-78276449D01*
X89536377Y-78418284D01*
X89733553Y-78523676D01*
X89947501Y-78588577D01*
X89972245Y-78591014D01*
X90170000Y-78610491D01*
X90225752Y-78605000D01*
X90482183Y-78605000D01*
X90610986Y-78710706D01*
X90665791Y-78740000D01*
X90610986Y-78769294D01*
X90384866Y-78954866D01*
X90199294Y-79180986D01*
X90061401Y-79438966D01*
X89976487Y-79718889D01*
X89947815Y-80010000D01*
X89976487Y-80301111D01*
X90061401Y-80581034D01*
X90199294Y-80839014D01*
X90384866Y-81065134D01*
X90610986Y-81250706D01*
X90665791Y-81280000D01*
X90610986Y-81309294D01*
X90384866Y-81494866D01*
X90199294Y-81720986D01*
X90061401Y-81978966D01*
X89976487Y-82258889D01*
X89947815Y-82550000D01*
X89976487Y-82841111D01*
X90061401Y-83121034D01*
X90199294Y-83379014D01*
X90384866Y-83605134D01*
X90610986Y-83790706D01*
X90665791Y-83820000D01*
X90610986Y-83849294D01*
X90384866Y-84034866D01*
X90199294Y-84260986D01*
X90061401Y-84518966D01*
X89976487Y-84798889D01*
X89947815Y-85090000D01*
X89976487Y-85381111D01*
X90061401Y-85661034D01*
X90199294Y-85919014D01*
X90384866Y-86145134D01*
X90610986Y-86330706D01*
X90675523Y-86365201D01*
X90558645Y-86434822D01*
X90342412Y-86629731D01*
X90168359Y-86863080D01*
X90043175Y-87125901D01*
X89998524Y-87273110D01*
X90119845Y-87503000D01*
X91313000Y-87503000D01*
X91313000Y-87483000D01*
X91567000Y-87483000D01*
X91567000Y-87503000D01*
X91587000Y-87503000D01*
X91587000Y-87757000D01*
X91567000Y-87757000D01*
X91567000Y-87777000D01*
X91313000Y-87777000D01*
X91313000Y-87757000D01*
X90119845Y-87757000D01*
X89998524Y-87986890D01*
X90043175Y-88134099D01*
X90168359Y-88396920D01*
X90342412Y-88630269D01*
X90558645Y-88825178D01*
X90675523Y-88894799D01*
X90610986Y-88929294D01*
X90384866Y-89114866D01*
X90199294Y-89340986D01*
X90061401Y-89598966D01*
X89976487Y-89878889D01*
X89947815Y-90170000D01*
X89976487Y-90461111D01*
X90061401Y-90741034D01*
X90199294Y-90999014D01*
X90384866Y-91225134D01*
X90610986Y-91410706D01*
X90665791Y-91440000D01*
X90610986Y-91469294D01*
X90384866Y-91654866D01*
X90199294Y-91880986D01*
X90061401Y-92138966D01*
X89976487Y-92418889D01*
X89947815Y-92710000D01*
X89976487Y-93001111D01*
X90061401Y-93281034D01*
X90199294Y-93539014D01*
X90384866Y-93765134D01*
X90610986Y-93950706D01*
X90665791Y-93980000D01*
X90610986Y-94009294D01*
X90384866Y-94194866D01*
X90199294Y-94420986D01*
X90061401Y-94678966D01*
X89976487Y-94958889D01*
X89947815Y-95250000D01*
X89976487Y-95541111D01*
X90061401Y-95821034D01*
X90199294Y-96079014D01*
X90384866Y-96305134D01*
X90610986Y-96490706D01*
X90665791Y-96520000D01*
X90610986Y-96549294D01*
X90384866Y-96734866D01*
X90199294Y-96960986D01*
X90061401Y-97218966D01*
X89976487Y-97498889D01*
X89947815Y-97790000D01*
X89976487Y-98081111D01*
X90061401Y-98361034D01*
X90199294Y-98619014D01*
X90384866Y-98845134D01*
X90610986Y-99030706D01*
X90665791Y-99060000D01*
X90610986Y-99089294D01*
X90384866Y-99274866D01*
X90199294Y-99500986D01*
X90061401Y-99758966D01*
X89976487Y-100038889D01*
X89947815Y-100330000D01*
X89976487Y-100621111D01*
X90061401Y-100901034D01*
X90199294Y-101159014D01*
X90384866Y-101385134D01*
X90610986Y-101570706D01*
X90665791Y-101600000D01*
X90610986Y-101629294D01*
X90384866Y-101814866D01*
X90199294Y-102040986D01*
X90061401Y-102298966D01*
X89976487Y-102578889D01*
X89947815Y-102870000D01*
X89976487Y-103161111D01*
X90061401Y-103441034D01*
X90199294Y-103699014D01*
X90384866Y-103925134D01*
X90610986Y-104110706D01*
X90665791Y-104140000D01*
X90610986Y-104169294D01*
X90384866Y-104354866D01*
X90199294Y-104580986D01*
X90061401Y-104838966D01*
X89976487Y-105118889D01*
X89947815Y-105410000D01*
X89976487Y-105701111D01*
X90061401Y-105981034D01*
X90199294Y-106239014D01*
X90384866Y-106465134D01*
X90610986Y-106650706D01*
X90665791Y-106680000D01*
X90610986Y-106709294D01*
X90384866Y-106894866D01*
X90199294Y-107120986D01*
X90061401Y-107378966D01*
X89976487Y-107658889D01*
X89947815Y-107950000D01*
X89976487Y-108241111D01*
X90061401Y-108521034D01*
X90199294Y-108779014D01*
X90384866Y-109005134D01*
X90610986Y-109190706D01*
X90665791Y-109220000D01*
X90610986Y-109249294D01*
X90384866Y-109434866D01*
X90199294Y-109660986D01*
X90061401Y-109918966D01*
X89976487Y-110198889D01*
X89947815Y-110490000D01*
X89976487Y-110781111D01*
X90061401Y-111061034D01*
X90199294Y-111319014D01*
X90384866Y-111545134D01*
X90610986Y-111730706D01*
X90665791Y-111760000D01*
X90610986Y-111789294D01*
X90384866Y-111974866D01*
X90199294Y-112200986D01*
X90061401Y-112458966D01*
X89976487Y-112738889D01*
X89947815Y-113030000D01*
X89976487Y-113321111D01*
X90061401Y-113601034D01*
X90199294Y-113859014D01*
X90384866Y-114085134D01*
X90610986Y-114270706D01*
X90868966Y-114408599D01*
X91148889Y-114493513D01*
X91367050Y-114515000D01*
X91512950Y-114515000D01*
X91731111Y-114493513D01*
X92011034Y-114408599D01*
X92269014Y-114270706D01*
X92495134Y-114085134D01*
X92680706Y-113859014D01*
X92711584Y-113801244D01*
X92882412Y-114030269D01*
X93098645Y-114225178D01*
X93348748Y-114374157D01*
X93623109Y-114471481D01*
X93853000Y-114350814D01*
X93853000Y-113157000D01*
X94107000Y-113157000D01*
X94107000Y-114350814D01*
X94336891Y-114471481D01*
X94611252Y-114374157D01*
X94861355Y-114225178D01*
X95077588Y-114030269D01*
X95251641Y-113796920D01*
X95376825Y-113534099D01*
X95421476Y-113386890D01*
X95300155Y-113157000D01*
X94107000Y-113157000D01*
X93853000Y-113157000D01*
X93833000Y-113157000D01*
X93833000Y-112903000D01*
X93853000Y-112903000D01*
X93853000Y-112883000D01*
X94107000Y-112883000D01*
X94107000Y-112903000D01*
X95300155Y-112903000D01*
X95421476Y-112673110D01*
X95376825Y-112525901D01*
X95374014Y-112520000D01*
X98932886Y-112520000D01*
X98866487Y-112738889D01*
X98837815Y-113030000D01*
X98866487Y-113321111D01*
X98951401Y-113601034D01*
X99089294Y-113859014D01*
X99274866Y-114085134D01*
X99500986Y-114270706D01*
X99758966Y-114408599D01*
X100038889Y-114493513D01*
X100257050Y-114515000D01*
X100402950Y-114515000D01*
X100621111Y-114493513D01*
X100901034Y-114408599D01*
X101159014Y-114270706D01*
X101385134Y-114085134D01*
X101570706Y-113859014D01*
X101600000Y-113804209D01*
X101629294Y-113859014D01*
X101814866Y-114085134D01*
X102040986Y-114270706D01*
X102298966Y-114408599D01*
X102578889Y-114493513D01*
X102797050Y-114515000D01*
X102942950Y-114515000D01*
X103161111Y-114493513D01*
X103441034Y-114408599D01*
X103699014Y-114270706D01*
X103925134Y-114085134D01*
X104110706Y-113859014D01*
X104248599Y-113601034D01*
X104333513Y-113321111D01*
X104362185Y-113030000D01*
X104333513Y-112738889D01*
X104248599Y-112458966D01*
X104110706Y-112200986D01*
X103925134Y-111974866D01*
X103699014Y-111789294D01*
X103644209Y-111760000D01*
X103699014Y-111730706D01*
X103925134Y-111545134D01*
X104110706Y-111319014D01*
X104248599Y-111061034D01*
X104333513Y-110781111D01*
X104362185Y-110490000D01*
X104333513Y-110198889D01*
X104248599Y-109918966D01*
X104110706Y-109660986D01*
X103925134Y-109434866D01*
X103699014Y-109249294D01*
X103644209Y-109220000D01*
X103699014Y-109190706D01*
X103925134Y-109005134D01*
X104110706Y-108779014D01*
X104248599Y-108521034D01*
X104333513Y-108241111D01*
X104362185Y-107950000D01*
X104333513Y-107658889D01*
X104248599Y-107378966D01*
X104110706Y-107120986D01*
X103925134Y-106894866D01*
X103699014Y-106709294D01*
X103644209Y-106680000D01*
X103699014Y-106650706D01*
X103925134Y-106465134D01*
X104110706Y-106239014D01*
X104248599Y-105981034D01*
X104333513Y-105701111D01*
X104362185Y-105410000D01*
X104333513Y-105118889D01*
X104248599Y-104838966D01*
X104110706Y-104580986D01*
X103925134Y-104354866D01*
X103699014Y-104169294D01*
X103644209Y-104140000D01*
X103699014Y-104110706D01*
X103925134Y-103925134D01*
X104110706Y-103699014D01*
X104248599Y-103441034D01*
X104333513Y-103161111D01*
X104362185Y-102870000D01*
X104333513Y-102578889D01*
X104248599Y-102298966D01*
X104110706Y-102040986D01*
X103925134Y-101814866D01*
X103699014Y-101629294D01*
X103644209Y-101600000D01*
X103699014Y-101570706D01*
X103925134Y-101385134D01*
X104110706Y-101159014D01*
X104248599Y-100901034D01*
X104333513Y-100621111D01*
X104362185Y-100330000D01*
X104333513Y-100038889D01*
X104248599Y-99758966D01*
X104110706Y-99500986D01*
X103925134Y-99274866D01*
X103699014Y-99089294D01*
X103644209Y-99060000D01*
X103699014Y-99030706D01*
X103925134Y-98845134D01*
X104110706Y-98619014D01*
X104248599Y-98361034D01*
X104333513Y-98081111D01*
X104362185Y-97790000D01*
X104333513Y-97498889D01*
X104248599Y-97218966D01*
X104110706Y-96960986D01*
X103925134Y-96734866D01*
X103699014Y-96549294D01*
X103644209Y-96520000D01*
X103699014Y-96490706D01*
X103925134Y-96305134D01*
X104110706Y-96079014D01*
X104248599Y-95821034D01*
X104333513Y-95541111D01*
X104362185Y-95250000D01*
X104333513Y-94958889D01*
X104248599Y-94678966D01*
X104110706Y-94420986D01*
X103925134Y-94194866D01*
X103699014Y-94009294D01*
X103644209Y-93980000D01*
X103699014Y-93950706D01*
X103925134Y-93765134D01*
X104110706Y-93539014D01*
X104248599Y-93281034D01*
X104333513Y-93001111D01*
X104362185Y-92710000D01*
X104333513Y-92418889D01*
X104248599Y-92138966D01*
X104110706Y-91880986D01*
X103925134Y-91654866D01*
X103699014Y-91469294D01*
X103644209Y-91440000D01*
X103699014Y-91410706D01*
X103925134Y-91225134D01*
X104110706Y-90999014D01*
X104248599Y-90741034D01*
X104333513Y-90461111D01*
X104362185Y-90170000D01*
X104333513Y-89878889D01*
X104248599Y-89598966D01*
X104110706Y-89340986D01*
X103925134Y-89114866D01*
X103699014Y-88929294D01*
X103644209Y-88900000D01*
X103699014Y-88870706D01*
X103925134Y-88685134D01*
X104110706Y-88459014D01*
X104248599Y-88201034D01*
X104333513Y-87921111D01*
X104362185Y-87630000D01*
X104333513Y-87338889D01*
X104248599Y-87058966D01*
X104110706Y-86800986D01*
X103925134Y-86574866D01*
X103699014Y-86389294D01*
X103644209Y-86360000D01*
X103699014Y-86330706D01*
X103925134Y-86145134D01*
X104110706Y-85919014D01*
X104248599Y-85661034D01*
X104333513Y-85381111D01*
X104362185Y-85090000D01*
X104333513Y-84798889D01*
X104248599Y-84518966D01*
X104110706Y-84260986D01*
X103925134Y-84034866D01*
X103699014Y-83849294D01*
X103644209Y-83820000D01*
X103699014Y-83790706D01*
X103925134Y-83605134D01*
X104110706Y-83379014D01*
X104248599Y-83121034D01*
X104333513Y-82841111D01*
X104362185Y-82550000D01*
X104333513Y-82258889D01*
X104248599Y-81978966D01*
X104110706Y-81720986D01*
X103925134Y-81494866D01*
X103699014Y-81309294D01*
X103644209Y-81280000D01*
X103699014Y-81250706D01*
X103925134Y-81065134D01*
X104110706Y-80839014D01*
X104248599Y-80581034D01*
X104333513Y-80301111D01*
X104362185Y-80010000D01*
X104333513Y-79718889D01*
X104248599Y-79438966D01*
X104110706Y-79180986D01*
X103925134Y-78954866D01*
X103699014Y-78769294D01*
X103644209Y-78740000D01*
X103699014Y-78710706D01*
X103827817Y-78605000D01*
X104084249Y-78605000D01*
X104140000Y-78610491D01*
X104195751Y-78605000D01*
X104195752Y-78605000D01*
X104362499Y-78588577D01*
X104576447Y-78523676D01*
X104773623Y-78418284D01*
X104946449Y-78276449D01*
X104981995Y-78233136D01*
X105283000Y-77932132D01*
X105283000Y-116713000D01*
X89027000Y-116713000D01*
X89027000Y-77932131D01*
X89328008Y-78233140D01*
G36*
X98866487Y-105118889D02*
G01*
X98837815Y-105410000D01*
X98866487Y-105701111D01*
X98932886Y-105920000D01*
X95374014Y-105920000D01*
X95376825Y-105914099D01*
X95421476Y-105766890D01*
X95300155Y-105537000D01*
X94107000Y-105537000D01*
X94107000Y-105557000D01*
X93853000Y-105557000D01*
X93853000Y-105537000D01*
X93833000Y-105537000D01*
X93833000Y-105283000D01*
X93853000Y-105283000D01*
X93853000Y-105263000D01*
X94107000Y-105263000D01*
X94107000Y-105283000D01*
X95300155Y-105283000D01*
X95421476Y-105053110D01*
X95376825Y-104905901D01*
X95374014Y-104900000D01*
X98932886Y-104900000D01*
X98866487Y-105118889D01*
X98866487Y-105118889D01*
G37*
X98866487Y-105118889D02*
X98837815Y-105410000D01*
X98866487Y-105701111D01*
X98932886Y-105920000D01*
X95374014Y-105920000D01*
X95376825Y-105914099D01*
X95421476Y-105766890D01*
X95300155Y-105537000D01*
X94107000Y-105537000D01*
X94107000Y-105557000D01*
X93853000Y-105557000D01*
X93853000Y-105537000D01*
X93833000Y-105537000D01*
X93833000Y-105283000D01*
X93853000Y-105283000D01*
X93853000Y-105263000D01*
X94107000Y-105263000D01*
X94107000Y-105283000D01*
X95300155Y-105283000D01*
X95421476Y-105053110D01*
X95376825Y-104905901D01*
X95374014Y-104900000D01*
X98932886Y-104900000D01*
X98866487Y-105118889D01*
G36*
X98933175Y-99825901D02*
G01*
X98888524Y-99973110D01*
X99009845Y-100203000D01*
X100203000Y-100203000D01*
X100203000Y-100183000D01*
X100457000Y-100183000D01*
X100457000Y-100203000D01*
X100477000Y-100203000D01*
X100477000Y-100457000D01*
X100457000Y-100457000D01*
X100457000Y-100477000D01*
X100203000Y-100477000D01*
X100203000Y-100457000D01*
X99009845Y-100457000D01*
X98888524Y-100686890D01*
X98933175Y-100834099D01*
X98935986Y-100840000D01*
X95374014Y-100840000D01*
X95376825Y-100834099D01*
X95421476Y-100686890D01*
X95300155Y-100457000D01*
X94107000Y-100457000D01*
X94107000Y-100477000D01*
X93853000Y-100477000D01*
X93853000Y-100457000D01*
X93833000Y-100457000D01*
X93833000Y-100203000D01*
X93853000Y-100203000D01*
X93853000Y-100183000D01*
X94107000Y-100183000D01*
X94107000Y-100203000D01*
X95300155Y-100203000D01*
X95421476Y-99973110D01*
X95376825Y-99825901D01*
X95374014Y-99820000D01*
X98935986Y-99820000D01*
X98933175Y-99825901D01*
X98933175Y-99825901D01*
G37*
X98933175Y-99825901D02*
X98888524Y-99973110D01*
X99009845Y-100203000D01*
X100203000Y-100203000D01*
X100203000Y-100183000D01*
X100457000Y-100183000D01*
X100457000Y-100203000D01*
X100477000Y-100203000D01*
X100477000Y-100457000D01*
X100457000Y-100457000D01*
X100457000Y-100477000D01*
X100203000Y-100477000D01*
X100203000Y-100457000D01*
X99009845Y-100457000D01*
X98888524Y-100686890D01*
X98933175Y-100834099D01*
X98935986Y-100840000D01*
X95374014Y-100840000D01*
X95376825Y-100834099D01*
X95421476Y-100686890D01*
X95300155Y-100457000D01*
X94107000Y-100457000D01*
X94107000Y-100477000D01*
X93853000Y-100477000D01*
X93853000Y-100457000D01*
X93833000Y-100457000D01*
X93833000Y-100203000D01*
X93853000Y-100203000D01*
X93853000Y-100183000D01*
X94107000Y-100183000D01*
X94107000Y-100203000D01*
X95300155Y-100203000D01*
X95421476Y-99973110D01*
X95376825Y-99825901D01*
X95374014Y-99820000D01*
X98935986Y-99820000D01*
X98933175Y-99825901D01*
G36*
X95570199Y-95760000D02*
G01*
X95374014Y-95760000D01*
X95376825Y-95754099D01*
X95421476Y-95606890D01*
X95300155Y-95377000D01*
X94107000Y-95377000D01*
X94107000Y-95397000D01*
X93853000Y-95397000D01*
X93853000Y-95377000D01*
X93833000Y-95377000D01*
X93833000Y-95123000D01*
X93853000Y-95123000D01*
X93853000Y-95103000D01*
X94107000Y-95103000D01*
X94107000Y-95123000D01*
X95300155Y-95123000D01*
X95421476Y-94893110D01*
X95376825Y-94745901D01*
X95374014Y-94740000D01*
X96590198Y-94740000D01*
X95570199Y-95760000D01*
X95570199Y-95760000D01*
G37*
X95570199Y-95760000D02*
X95374014Y-95760000D01*
X95376825Y-95754099D01*
X95421476Y-95606890D01*
X95300155Y-95377000D01*
X94107000Y-95377000D01*
X94107000Y-95397000D01*
X93853000Y-95397000D01*
X93853000Y-95377000D01*
X93833000Y-95377000D01*
X93833000Y-95123000D01*
X93853000Y-95123000D01*
X93853000Y-95103000D01*
X94107000Y-95103000D01*
X94107000Y-95123000D01*
X95300155Y-95123000D01*
X95421476Y-94893110D01*
X95376825Y-94745901D01*
X95374014Y-94740000D01*
X96590198Y-94740000D01*
X95570199Y-95760000D01*
G36*
X97225198Y-93220000D02*
G01*
X95374014Y-93220000D01*
X95376825Y-93214099D01*
X95421476Y-93066890D01*
X95300155Y-92837000D01*
X94107000Y-92837000D01*
X94107000Y-92857000D01*
X93853000Y-92857000D01*
X93853000Y-92837000D01*
X93833000Y-92837000D01*
X93833000Y-92583000D01*
X93853000Y-92583000D01*
X93853000Y-92563000D01*
X94107000Y-92563000D01*
X94107000Y-92583000D01*
X95300155Y-92583000D01*
X95421476Y-92353110D01*
X95376825Y-92205901D01*
X95374014Y-92200000D01*
X96205199Y-92200000D01*
X97225198Y-93220000D01*
X97225198Y-93220000D01*
G37*
X97225198Y-93220000D02*
X95374014Y-93220000D01*
X95376825Y-93214099D01*
X95421476Y-93066890D01*
X95300155Y-92837000D01*
X94107000Y-92837000D01*
X94107000Y-92857000D01*
X93853000Y-92857000D01*
X93853000Y-92837000D01*
X93833000Y-92837000D01*
X93833000Y-92583000D01*
X93853000Y-92583000D01*
X93853000Y-92563000D01*
X94107000Y-92563000D01*
X94107000Y-92583000D01*
X95300155Y-92583000D01*
X95421476Y-92353110D01*
X95376825Y-92205901D01*
X95374014Y-92200000D01*
X96205199Y-92200000D01*
X97225198Y-93220000D01*
G36*
X99079503Y-91899305D02*
G01*
X99052405Y-91950000D01*
X98104802Y-91950000D01*
X97083804Y-90929003D01*
X97060001Y-90899999D01*
X96944276Y-90805026D01*
X96812247Y-90734454D01*
X96668986Y-90690997D01*
X96557333Y-90680000D01*
X96557322Y-90680000D01*
X96520000Y-90676324D01*
X96482678Y-90680000D01*
X95374014Y-90680000D01*
X95376825Y-90674099D01*
X95421476Y-90526890D01*
X95300155Y-90297000D01*
X94107000Y-90297000D01*
X94107000Y-90317000D01*
X93853000Y-90317000D01*
X93853000Y-90297000D01*
X93833000Y-90297000D01*
X93833000Y-90043000D01*
X93853000Y-90043000D01*
X93853000Y-90023000D01*
X94107000Y-90023000D01*
X94107000Y-90043000D01*
X95300155Y-90043000D01*
X95421476Y-89813110D01*
X95376825Y-89665901D01*
X95251641Y-89403080D01*
X95077588Y-89169731D01*
X94861355Y-88974822D01*
X94744477Y-88905201D01*
X94809014Y-88870706D01*
X95035134Y-88685134D01*
X95220706Y-88459014D01*
X95358599Y-88201034D01*
X95363867Y-88183668D01*
X99079503Y-91899305D01*
X99079503Y-91899305D01*
G37*
X99079503Y-91899305D02*
X99052405Y-91950000D01*
X98104802Y-91950000D01*
X97083804Y-90929003D01*
X97060001Y-90899999D01*
X96944276Y-90805026D01*
X96812247Y-90734454D01*
X96668986Y-90690997D01*
X96557333Y-90680000D01*
X96557322Y-90680000D01*
X96520000Y-90676324D01*
X96482678Y-90680000D01*
X95374014Y-90680000D01*
X95376825Y-90674099D01*
X95421476Y-90526890D01*
X95300155Y-90297000D01*
X94107000Y-90297000D01*
X94107000Y-90317000D01*
X93853000Y-90317000D01*
X93853000Y-90297000D01*
X93833000Y-90297000D01*
X93833000Y-90043000D01*
X93853000Y-90043000D01*
X93853000Y-90023000D01*
X94107000Y-90023000D01*
X94107000Y-90043000D01*
X95300155Y-90043000D01*
X95421476Y-89813110D01*
X95376825Y-89665901D01*
X95251641Y-89403080D01*
X95077588Y-89169731D01*
X94861355Y-88974822D01*
X94744477Y-88905201D01*
X94809014Y-88870706D01*
X95035134Y-88685134D01*
X95220706Y-88459014D01*
X95358599Y-88201034D01*
X95363867Y-88183668D01*
X99079503Y-91899305D01*
G36*
X100457000Y-77343000D02*
G01*
X100477000Y-77343000D01*
X100477000Y-77597000D01*
X100457000Y-77597000D01*
X100457000Y-77617000D01*
X100203000Y-77617000D01*
X100203000Y-77597000D01*
X100183000Y-77597000D01*
X100183000Y-77343000D01*
X100203000Y-77343000D01*
X100203000Y-77323000D01*
X100457000Y-77323000D01*
X100457000Y-77343000D01*
X100457000Y-77343000D01*
G37*
X100457000Y-77343000D02*
X100477000Y-77343000D01*
X100477000Y-77597000D01*
X100457000Y-77597000D01*
X100457000Y-77617000D01*
X100203000Y-77617000D01*
X100203000Y-77597000D01*
X100183000Y-77597000D01*
X100183000Y-77343000D01*
X100203000Y-77343000D01*
X100203000Y-77323000D01*
X100457000Y-77323000D01*
X100457000Y-77343000D01*
G36*
X98889203Y-66944005D02*
G01*
X98866487Y-67018889D01*
X98840235Y-67285432D01*
X97083804Y-65529003D01*
X97060001Y-65499999D01*
X96944276Y-65405026D01*
X96812247Y-65334454D01*
X96668986Y-65290997D01*
X96557333Y-65280000D01*
X96557322Y-65280000D01*
X96520000Y-65276324D01*
X96482678Y-65280000D01*
X95374014Y-65280000D01*
X95376825Y-65274099D01*
X95421476Y-65126890D01*
X95300155Y-64897000D01*
X94107000Y-64897000D01*
X94107000Y-64917000D01*
X93853000Y-64917000D01*
X93853000Y-64897000D01*
X93833000Y-64897000D01*
X93833000Y-64643000D01*
X93853000Y-64643000D01*
X93853000Y-64623000D01*
X94107000Y-64623000D01*
X94107000Y-64643000D01*
X95300155Y-64643000D01*
X95421476Y-64413110D01*
X95376825Y-64265901D01*
X95374014Y-64260000D01*
X96205199Y-64260000D01*
X98889203Y-66944005D01*
X98889203Y-66944005D01*
G37*
X98889203Y-66944005D02*
X98866487Y-67018889D01*
X98840235Y-67285432D01*
X97083804Y-65529003D01*
X97060001Y-65499999D01*
X96944276Y-65405026D01*
X96812247Y-65334454D01*
X96668986Y-65290997D01*
X96557333Y-65280000D01*
X96557322Y-65280000D01*
X96520000Y-65276324D01*
X96482678Y-65280000D01*
X95374014Y-65280000D01*
X95376825Y-65274099D01*
X95421476Y-65126890D01*
X95300155Y-64897000D01*
X94107000Y-64897000D01*
X94107000Y-64917000D01*
X93853000Y-64917000D01*
X93853000Y-64897000D01*
X93833000Y-64897000D01*
X93833000Y-64643000D01*
X93853000Y-64643000D01*
X93853000Y-64623000D01*
X94107000Y-64623000D01*
X94107000Y-64643000D01*
X95300155Y-64643000D01*
X95421476Y-64413110D01*
X95376825Y-64265901D01*
X95374014Y-64260000D01*
X96205199Y-64260000D01*
X98889203Y-66944005D01*
M02*
