G04 #@! TF.GenerationSoftware,KiCad,Pcbnew,(5.1.2)-2*
G04 #@! TF.CreationDate,2019-07-27T17:23:09+09:00*
G04 #@! TF.ProjectId,itg_uturn_adapter,6974675f-7574-4757-926e-5f6164617074,rev?*
G04 #@! TF.SameCoordinates,Original*
G04 #@! TF.FileFunction,Soldermask,Bot*
G04 #@! TF.FilePolarity,Negative*
%FSLAX46Y46*%
G04 Gerber Fmt 4.6, Leading zero omitted, Abs format (unit mm)*
G04 Created by KiCad (PCBNEW (5.1.2)-2) date 2019-07-27 17:23:09*
%MOMM*%
%LPD*%
G04 APERTURE LIST*
%ADD10C,0.100000*%
G04 APERTURE END LIST*
D10*
G36*
X102980443Y-112135519D02*
G01*
X103046627Y-112142037D01*
X103216466Y-112193557D01*
X103372991Y-112277222D01*
X103408729Y-112306552D01*
X103510186Y-112389814D01*
X103593448Y-112491271D01*
X103622778Y-112527009D01*
X103706443Y-112683534D01*
X103757963Y-112853373D01*
X103775359Y-113030000D01*
X103757963Y-113206627D01*
X103706443Y-113376466D01*
X103622778Y-113532991D01*
X103593448Y-113568729D01*
X103510186Y-113670186D01*
X103408729Y-113753448D01*
X103372991Y-113782778D01*
X103216466Y-113866443D01*
X103046627Y-113917963D01*
X102980443Y-113924481D01*
X102914260Y-113931000D01*
X102825740Y-113931000D01*
X102759557Y-113924481D01*
X102693373Y-113917963D01*
X102523534Y-113866443D01*
X102367009Y-113782778D01*
X102331271Y-113753448D01*
X102229814Y-113670186D01*
X102146552Y-113568729D01*
X102117222Y-113532991D01*
X102033557Y-113376466D01*
X101982037Y-113206627D01*
X101964641Y-113030000D01*
X101982037Y-112853373D01*
X102033557Y-112683534D01*
X102117222Y-112527009D01*
X102146552Y-112491271D01*
X102229814Y-112389814D01*
X102331271Y-112306552D01*
X102367009Y-112277222D01*
X102523534Y-112193557D01*
X102693373Y-112142037D01*
X102759557Y-112135519D01*
X102825740Y-112129000D01*
X102914260Y-112129000D01*
X102980443Y-112135519D01*
X102980443Y-112135519D01*
G37*
G36*
X94090443Y-112135519D02*
G01*
X94156627Y-112142037D01*
X94326466Y-112193557D01*
X94482991Y-112277222D01*
X94518729Y-112306552D01*
X94620186Y-112389814D01*
X94703448Y-112491271D01*
X94732778Y-112527009D01*
X94816443Y-112683534D01*
X94867963Y-112853373D01*
X94885359Y-113030000D01*
X94867963Y-113206627D01*
X94816443Y-113376466D01*
X94732778Y-113532991D01*
X94703448Y-113568729D01*
X94620186Y-113670186D01*
X94518729Y-113753448D01*
X94482991Y-113782778D01*
X94326466Y-113866443D01*
X94156627Y-113917963D01*
X94090443Y-113924481D01*
X94024260Y-113931000D01*
X93935740Y-113931000D01*
X93869557Y-113924481D01*
X93803373Y-113917963D01*
X93633534Y-113866443D01*
X93477009Y-113782778D01*
X93441271Y-113753448D01*
X93339814Y-113670186D01*
X93256552Y-113568729D01*
X93227222Y-113532991D01*
X93143557Y-113376466D01*
X93092037Y-113206627D01*
X93074641Y-113030000D01*
X93092037Y-112853373D01*
X93143557Y-112683534D01*
X93227222Y-112527009D01*
X93256552Y-112491271D01*
X93339814Y-112389814D01*
X93441271Y-112306552D01*
X93477009Y-112277222D01*
X93633534Y-112193557D01*
X93803373Y-112142037D01*
X93869557Y-112135519D01*
X93935740Y-112129000D01*
X94024260Y-112129000D01*
X94090443Y-112135519D01*
X94090443Y-112135519D01*
G37*
G36*
X91550443Y-112135519D02*
G01*
X91616627Y-112142037D01*
X91786466Y-112193557D01*
X91942991Y-112277222D01*
X91978729Y-112306552D01*
X92080186Y-112389814D01*
X92163448Y-112491271D01*
X92192778Y-112527009D01*
X92276443Y-112683534D01*
X92327963Y-112853373D01*
X92345359Y-113030000D01*
X92327963Y-113206627D01*
X92276443Y-113376466D01*
X92192778Y-113532991D01*
X92163448Y-113568729D01*
X92080186Y-113670186D01*
X91978729Y-113753448D01*
X91942991Y-113782778D01*
X91786466Y-113866443D01*
X91616627Y-113917963D01*
X91550443Y-113924481D01*
X91484260Y-113931000D01*
X91395740Y-113931000D01*
X91329557Y-113924481D01*
X91263373Y-113917963D01*
X91093534Y-113866443D01*
X90937009Y-113782778D01*
X90901271Y-113753448D01*
X90799814Y-113670186D01*
X90716552Y-113568729D01*
X90687222Y-113532991D01*
X90603557Y-113376466D01*
X90552037Y-113206627D01*
X90534641Y-113030000D01*
X90552037Y-112853373D01*
X90603557Y-112683534D01*
X90687222Y-112527009D01*
X90716552Y-112491271D01*
X90799814Y-112389814D01*
X90901271Y-112306552D01*
X90937009Y-112277222D01*
X91093534Y-112193557D01*
X91263373Y-112142037D01*
X91329557Y-112135519D01*
X91395740Y-112129000D01*
X91484260Y-112129000D01*
X91550443Y-112135519D01*
X91550443Y-112135519D01*
G37*
G36*
X100440443Y-112135519D02*
G01*
X100506627Y-112142037D01*
X100676466Y-112193557D01*
X100832991Y-112277222D01*
X100868729Y-112306552D01*
X100970186Y-112389814D01*
X101053448Y-112491271D01*
X101082778Y-112527009D01*
X101166443Y-112683534D01*
X101217963Y-112853373D01*
X101235359Y-113030000D01*
X101217963Y-113206627D01*
X101166443Y-113376466D01*
X101082778Y-113532991D01*
X101053448Y-113568729D01*
X100970186Y-113670186D01*
X100868729Y-113753448D01*
X100832991Y-113782778D01*
X100676466Y-113866443D01*
X100506627Y-113917963D01*
X100440443Y-113924481D01*
X100374260Y-113931000D01*
X100285740Y-113931000D01*
X100219557Y-113924481D01*
X100153373Y-113917963D01*
X99983534Y-113866443D01*
X99827009Y-113782778D01*
X99791271Y-113753448D01*
X99689814Y-113670186D01*
X99606552Y-113568729D01*
X99577222Y-113532991D01*
X99493557Y-113376466D01*
X99442037Y-113206627D01*
X99424641Y-113030000D01*
X99442037Y-112853373D01*
X99493557Y-112683534D01*
X99577222Y-112527009D01*
X99606552Y-112491271D01*
X99689814Y-112389814D01*
X99791271Y-112306552D01*
X99827009Y-112277222D01*
X99983534Y-112193557D01*
X100153373Y-112142037D01*
X100219557Y-112135519D01*
X100285740Y-112129000D01*
X100374260Y-112129000D01*
X100440443Y-112135519D01*
X100440443Y-112135519D01*
G37*
G36*
X94090442Y-109595518D02*
G01*
X94156627Y-109602037D01*
X94326466Y-109653557D01*
X94482991Y-109737222D01*
X94518729Y-109766552D01*
X94620186Y-109849814D01*
X94703448Y-109951271D01*
X94732778Y-109987009D01*
X94816443Y-110143534D01*
X94867963Y-110313373D01*
X94885359Y-110490000D01*
X94867963Y-110666627D01*
X94816443Y-110836466D01*
X94732778Y-110992991D01*
X94703448Y-111028729D01*
X94620186Y-111130186D01*
X94518729Y-111213448D01*
X94482991Y-111242778D01*
X94326466Y-111326443D01*
X94156627Y-111377963D01*
X94090443Y-111384481D01*
X94024260Y-111391000D01*
X93935740Y-111391000D01*
X93869557Y-111384481D01*
X93803373Y-111377963D01*
X93633534Y-111326443D01*
X93477009Y-111242778D01*
X93441271Y-111213448D01*
X93339814Y-111130186D01*
X93256552Y-111028729D01*
X93227222Y-110992991D01*
X93143557Y-110836466D01*
X93092037Y-110666627D01*
X93074641Y-110490000D01*
X93092037Y-110313373D01*
X93143557Y-110143534D01*
X93227222Y-109987009D01*
X93256552Y-109951271D01*
X93339814Y-109849814D01*
X93441271Y-109766552D01*
X93477009Y-109737222D01*
X93633534Y-109653557D01*
X93803373Y-109602037D01*
X93869558Y-109595518D01*
X93935740Y-109589000D01*
X94024260Y-109589000D01*
X94090442Y-109595518D01*
X94090442Y-109595518D01*
G37*
G36*
X100440442Y-109595518D02*
G01*
X100506627Y-109602037D01*
X100676466Y-109653557D01*
X100832991Y-109737222D01*
X100868729Y-109766552D01*
X100970186Y-109849814D01*
X101053448Y-109951271D01*
X101082778Y-109987009D01*
X101166443Y-110143534D01*
X101217963Y-110313373D01*
X101235359Y-110490000D01*
X101217963Y-110666627D01*
X101166443Y-110836466D01*
X101082778Y-110992991D01*
X101053448Y-111028729D01*
X100970186Y-111130186D01*
X100868729Y-111213448D01*
X100832991Y-111242778D01*
X100676466Y-111326443D01*
X100506627Y-111377963D01*
X100440443Y-111384481D01*
X100374260Y-111391000D01*
X100285740Y-111391000D01*
X100219557Y-111384481D01*
X100153373Y-111377963D01*
X99983534Y-111326443D01*
X99827009Y-111242778D01*
X99791271Y-111213448D01*
X99689814Y-111130186D01*
X99606552Y-111028729D01*
X99577222Y-110992991D01*
X99493557Y-110836466D01*
X99442037Y-110666627D01*
X99424641Y-110490000D01*
X99442037Y-110313373D01*
X99493557Y-110143534D01*
X99577222Y-109987009D01*
X99606552Y-109951271D01*
X99689814Y-109849814D01*
X99791271Y-109766552D01*
X99827009Y-109737222D01*
X99983534Y-109653557D01*
X100153373Y-109602037D01*
X100219558Y-109595518D01*
X100285740Y-109589000D01*
X100374260Y-109589000D01*
X100440442Y-109595518D01*
X100440442Y-109595518D01*
G37*
G36*
X102980442Y-109595518D02*
G01*
X103046627Y-109602037D01*
X103216466Y-109653557D01*
X103372991Y-109737222D01*
X103408729Y-109766552D01*
X103510186Y-109849814D01*
X103593448Y-109951271D01*
X103622778Y-109987009D01*
X103706443Y-110143534D01*
X103757963Y-110313373D01*
X103775359Y-110490000D01*
X103757963Y-110666627D01*
X103706443Y-110836466D01*
X103622778Y-110992991D01*
X103593448Y-111028729D01*
X103510186Y-111130186D01*
X103408729Y-111213448D01*
X103372991Y-111242778D01*
X103216466Y-111326443D01*
X103046627Y-111377963D01*
X102980443Y-111384481D01*
X102914260Y-111391000D01*
X102825740Y-111391000D01*
X102759557Y-111384481D01*
X102693373Y-111377963D01*
X102523534Y-111326443D01*
X102367009Y-111242778D01*
X102331271Y-111213448D01*
X102229814Y-111130186D01*
X102146552Y-111028729D01*
X102117222Y-110992991D01*
X102033557Y-110836466D01*
X101982037Y-110666627D01*
X101964641Y-110490000D01*
X101982037Y-110313373D01*
X102033557Y-110143534D01*
X102117222Y-109987009D01*
X102146552Y-109951271D01*
X102229814Y-109849814D01*
X102331271Y-109766552D01*
X102367009Y-109737222D01*
X102523534Y-109653557D01*
X102693373Y-109602037D01*
X102759558Y-109595518D01*
X102825740Y-109589000D01*
X102914260Y-109589000D01*
X102980442Y-109595518D01*
X102980442Y-109595518D01*
G37*
G36*
X91550442Y-109595518D02*
G01*
X91616627Y-109602037D01*
X91786466Y-109653557D01*
X91942991Y-109737222D01*
X91978729Y-109766552D01*
X92080186Y-109849814D01*
X92163448Y-109951271D01*
X92192778Y-109987009D01*
X92276443Y-110143534D01*
X92327963Y-110313373D01*
X92345359Y-110490000D01*
X92327963Y-110666627D01*
X92276443Y-110836466D01*
X92192778Y-110992991D01*
X92163448Y-111028729D01*
X92080186Y-111130186D01*
X91978729Y-111213448D01*
X91942991Y-111242778D01*
X91786466Y-111326443D01*
X91616627Y-111377963D01*
X91550443Y-111384481D01*
X91484260Y-111391000D01*
X91395740Y-111391000D01*
X91329557Y-111384481D01*
X91263373Y-111377963D01*
X91093534Y-111326443D01*
X90937009Y-111242778D01*
X90901271Y-111213448D01*
X90799814Y-111130186D01*
X90716552Y-111028729D01*
X90687222Y-110992991D01*
X90603557Y-110836466D01*
X90552037Y-110666627D01*
X90534641Y-110490000D01*
X90552037Y-110313373D01*
X90603557Y-110143534D01*
X90687222Y-109987009D01*
X90716552Y-109951271D01*
X90799814Y-109849814D01*
X90901271Y-109766552D01*
X90937009Y-109737222D01*
X91093534Y-109653557D01*
X91263373Y-109602037D01*
X91329558Y-109595518D01*
X91395740Y-109589000D01*
X91484260Y-109589000D01*
X91550442Y-109595518D01*
X91550442Y-109595518D01*
G37*
G36*
X91550442Y-107055518D02*
G01*
X91616627Y-107062037D01*
X91786466Y-107113557D01*
X91942991Y-107197222D01*
X91978729Y-107226552D01*
X92080186Y-107309814D01*
X92163448Y-107411271D01*
X92192778Y-107447009D01*
X92276443Y-107603534D01*
X92327963Y-107773373D01*
X92345359Y-107950000D01*
X92327963Y-108126627D01*
X92276443Y-108296466D01*
X92192778Y-108452991D01*
X92163448Y-108488729D01*
X92080186Y-108590186D01*
X91978729Y-108673448D01*
X91942991Y-108702778D01*
X91786466Y-108786443D01*
X91616627Y-108837963D01*
X91550442Y-108844482D01*
X91484260Y-108851000D01*
X91395740Y-108851000D01*
X91329558Y-108844482D01*
X91263373Y-108837963D01*
X91093534Y-108786443D01*
X90937009Y-108702778D01*
X90901271Y-108673448D01*
X90799814Y-108590186D01*
X90716552Y-108488729D01*
X90687222Y-108452991D01*
X90603557Y-108296466D01*
X90552037Y-108126627D01*
X90534641Y-107950000D01*
X90552037Y-107773373D01*
X90603557Y-107603534D01*
X90687222Y-107447009D01*
X90716552Y-107411271D01*
X90799814Y-107309814D01*
X90901271Y-107226552D01*
X90937009Y-107197222D01*
X91093534Y-107113557D01*
X91263373Y-107062037D01*
X91329558Y-107055518D01*
X91395740Y-107049000D01*
X91484260Y-107049000D01*
X91550442Y-107055518D01*
X91550442Y-107055518D01*
G37*
G36*
X94090442Y-107055518D02*
G01*
X94156627Y-107062037D01*
X94326466Y-107113557D01*
X94482991Y-107197222D01*
X94518729Y-107226552D01*
X94620186Y-107309814D01*
X94703448Y-107411271D01*
X94732778Y-107447009D01*
X94816443Y-107603534D01*
X94867963Y-107773373D01*
X94885359Y-107950000D01*
X94867963Y-108126627D01*
X94816443Y-108296466D01*
X94732778Y-108452991D01*
X94703448Y-108488729D01*
X94620186Y-108590186D01*
X94518729Y-108673448D01*
X94482991Y-108702778D01*
X94326466Y-108786443D01*
X94156627Y-108837963D01*
X94090442Y-108844482D01*
X94024260Y-108851000D01*
X93935740Y-108851000D01*
X93869558Y-108844482D01*
X93803373Y-108837963D01*
X93633534Y-108786443D01*
X93477009Y-108702778D01*
X93441271Y-108673448D01*
X93339814Y-108590186D01*
X93256552Y-108488729D01*
X93227222Y-108452991D01*
X93143557Y-108296466D01*
X93092037Y-108126627D01*
X93074641Y-107950000D01*
X93092037Y-107773373D01*
X93143557Y-107603534D01*
X93227222Y-107447009D01*
X93256552Y-107411271D01*
X93339814Y-107309814D01*
X93441271Y-107226552D01*
X93477009Y-107197222D01*
X93633534Y-107113557D01*
X93803373Y-107062037D01*
X93869558Y-107055518D01*
X93935740Y-107049000D01*
X94024260Y-107049000D01*
X94090442Y-107055518D01*
X94090442Y-107055518D01*
G37*
G36*
X100440442Y-107055518D02*
G01*
X100506627Y-107062037D01*
X100676466Y-107113557D01*
X100832991Y-107197222D01*
X100868729Y-107226552D01*
X100970186Y-107309814D01*
X101053448Y-107411271D01*
X101082778Y-107447009D01*
X101166443Y-107603534D01*
X101217963Y-107773373D01*
X101235359Y-107950000D01*
X101217963Y-108126627D01*
X101166443Y-108296466D01*
X101082778Y-108452991D01*
X101053448Y-108488729D01*
X100970186Y-108590186D01*
X100868729Y-108673448D01*
X100832991Y-108702778D01*
X100676466Y-108786443D01*
X100506627Y-108837963D01*
X100440442Y-108844482D01*
X100374260Y-108851000D01*
X100285740Y-108851000D01*
X100219558Y-108844482D01*
X100153373Y-108837963D01*
X99983534Y-108786443D01*
X99827009Y-108702778D01*
X99791271Y-108673448D01*
X99689814Y-108590186D01*
X99606552Y-108488729D01*
X99577222Y-108452991D01*
X99493557Y-108296466D01*
X99442037Y-108126627D01*
X99424641Y-107950000D01*
X99442037Y-107773373D01*
X99493557Y-107603534D01*
X99577222Y-107447009D01*
X99606552Y-107411271D01*
X99689814Y-107309814D01*
X99791271Y-107226552D01*
X99827009Y-107197222D01*
X99983534Y-107113557D01*
X100153373Y-107062037D01*
X100219558Y-107055518D01*
X100285740Y-107049000D01*
X100374260Y-107049000D01*
X100440442Y-107055518D01*
X100440442Y-107055518D01*
G37*
G36*
X102980442Y-107055518D02*
G01*
X103046627Y-107062037D01*
X103216466Y-107113557D01*
X103372991Y-107197222D01*
X103408729Y-107226552D01*
X103510186Y-107309814D01*
X103593448Y-107411271D01*
X103622778Y-107447009D01*
X103706443Y-107603534D01*
X103757963Y-107773373D01*
X103775359Y-107950000D01*
X103757963Y-108126627D01*
X103706443Y-108296466D01*
X103622778Y-108452991D01*
X103593448Y-108488729D01*
X103510186Y-108590186D01*
X103408729Y-108673448D01*
X103372991Y-108702778D01*
X103216466Y-108786443D01*
X103046627Y-108837963D01*
X102980442Y-108844482D01*
X102914260Y-108851000D01*
X102825740Y-108851000D01*
X102759558Y-108844482D01*
X102693373Y-108837963D01*
X102523534Y-108786443D01*
X102367009Y-108702778D01*
X102331271Y-108673448D01*
X102229814Y-108590186D01*
X102146552Y-108488729D01*
X102117222Y-108452991D01*
X102033557Y-108296466D01*
X101982037Y-108126627D01*
X101964641Y-107950000D01*
X101982037Y-107773373D01*
X102033557Y-107603534D01*
X102117222Y-107447009D01*
X102146552Y-107411271D01*
X102229814Y-107309814D01*
X102331271Y-107226552D01*
X102367009Y-107197222D01*
X102523534Y-107113557D01*
X102693373Y-107062037D01*
X102759558Y-107055518D01*
X102825740Y-107049000D01*
X102914260Y-107049000D01*
X102980442Y-107055518D01*
X102980442Y-107055518D01*
G37*
G36*
X91550443Y-104515519D02*
G01*
X91616627Y-104522037D01*
X91786466Y-104573557D01*
X91942991Y-104657222D01*
X91978729Y-104686552D01*
X92080186Y-104769814D01*
X92163448Y-104871271D01*
X92192778Y-104907009D01*
X92276443Y-105063534D01*
X92327963Y-105233373D01*
X92345359Y-105410000D01*
X92327963Y-105586627D01*
X92276443Y-105756466D01*
X92192778Y-105912991D01*
X92163448Y-105948729D01*
X92080186Y-106050186D01*
X91978729Y-106133448D01*
X91942991Y-106162778D01*
X91786466Y-106246443D01*
X91616627Y-106297963D01*
X91550442Y-106304482D01*
X91484260Y-106311000D01*
X91395740Y-106311000D01*
X91329558Y-106304482D01*
X91263373Y-106297963D01*
X91093534Y-106246443D01*
X90937009Y-106162778D01*
X90901271Y-106133448D01*
X90799814Y-106050186D01*
X90716552Y-105948729D01*
X90687222Y-105912991D01*
X90603557Y-105756466D01*
X90552037Y-105586627D01*
X90534641Y-105410000D01*
X90552037Y-105233373D01*
X90603557Y-105063534D01*
X90687222Y-104907009D01*
X90716552Y-104871271D01*
X90799814Y-104769814D01*
X90901271Y-104686552D01*
X90937009Y-104657222D01*
X91093534Y-104573557D01*
X91263373Y-104522037D01*
X91329557Y-104515519D01*
X91395740Y-104509000D01*
X91484260Y-104509000D01*
X91550443Y-104515519D01*
X91550443Y-104515519D01*
G37*
G36*
X94090443Y-104515519D02*
G01*
X94156627Y-104522037D01*
X94326466Y-104573557D01*
X94482991Y-104657222D01*
X94518729Y-104686552D01*
X94620186Y-104769814D01*
X94703448Y-104871271D01*
X94732778Y-104907009D01*
X94816443Y-105063534D01*
X94867963Y-105233373D01*
X94885359Y-105410000D01*
X94867963Y-105586627D01*
X94816443Y-105756466D01*
X94732778Y-105912991D01*
X94703448Y-105948729D01*
X94620186Y-106050186D01*
X94518729Y-106133448D01*
X94482991Y-106162778D01*
X94326466Y-106246443D01*
X94156627Y-106297963D01*
X94090442Y-106304482D01*
X94024260Y-106311000D01*
X93935740Y-106311000D01*
X93869558Y-106304482D01*
X93803373Y-106297963D01*
X93633534Y-106246443D01*
X93477009Y-106162778D01*
X93441271Y-106133448D01*
X93339814Y-106050186D01*
X93256552Y-105948729D01*
X93227222Y-105912991D01*
X93143557Y-105756466D01*
X93092037Y-105586627D01*
X93074641Y-105410000D01*
X93092037Y-105233373D01*
X93143557Y-105063534D01*
X93227222Y-104907009D01*
X93256552Y-104871271D01*
X93339814Y-104769814D01*
X93441271Y-104686552D01*
X93477009Y-104657222D01*
X93633534Y-104573557D01*
X93803373Y-104522037D01*
X93869557Y-104515519D01*
X93935740Y-104509000D01*
X94024260Y-104509000D01*
X94090443Y-104515519D01*
X94090443Y-104515519D01*
G37*
G36*
X100440443Y-104515519D02*
G01*
X100506627Y-104522037D01*
X100676466Y-104573557D01*
X100832991Y-104657222D01*
X100868729Y-104686552D01*
X100970186Y-104769814D01*
X101053448Y-104871271D01*
X101082778Y-104907009D01*
X101166443Y-105063534D01*
X101217963Y-105233373D01*
X101235359Y-105410000D01*
X101217963Y-105586627D01*
X101166443Y-105756466D01*
X101082778Y-105912991D01*
X101053448Y-105948729D01*
X100970186Y-106050186D01*
X100868729Y-106133448D01*
X100832991Y-106162778D01*
X100676466Y-106246443D01*
X100506627Y-106297963D01*
X100440442Y-106304482D01*
X100374260Y-106311000D01*
X100285740Y-106311000D01*
X100219558Y-106304482D01*
X100153373Y-106297963D01*
X99983534Y-106246443D01*
X99827009Y-106162778D01*
X99791271Y-106133448D01*
X99689814Y-106050186D01*
X99606552Y-105948729D01*
X99577222Y-105912991D01*
X99493557Y-105756466D01*
X99442037Y-105586627D01*
X99424641Y-105410000D01*
X99442037Y-105233373D01*
X99493557Y-105063534D01*
X99577222Y-104907009D01*
X99606552Y-104871271D01*
X99689814Y-104769814D01*
X99791271Y-104686552D01*
X99827009Y-104657222D01*
X99983534Y-104573557D01*
X100153373Y-104522037D01*
X100219557Y-104515519D01*
X100285740Y-104509000D01*
X100374260Y-104509000D01*
X100440443Y-104515519D01*
X100440443Y-104515519D01*
G37*
G36*
X102980443Y-104515519D02*
G01*
X103046627Y-104522037D01*
X103216466Y-104573557D01*
X103372991Y-104657222D01*
X103408729Y-104686552D01*
X103510186Y-104769814D01*
X103593448Y-104871271D01*
X103622778Y-104907009D01*
X103706443Y-105063534D01*
X103757963Y-105233373D01*
X103775359Y-105410000D01*
X103757963Y-105586627D01*
X103706443Y-105756466D01*
X103622778Y-105912991D01*
X103593448Y-105948729D01*
X103510186Y-106050186D01*
X103408729Y-106133448D01*
X103372991Y-106162778D01*
X103216466Y-106246443D01*
X103046627Y-106297963D01*
X102980442Y-106304482D01*
X102914260Y-106311000D01*
X102825740Y-106311000D01*
X102759558Y-106304482D01*
X102693373Y-106297963D01*
X102523534Y-106246443D01*
X102367009Y-106162778D01*
X102331271Y-106133448D01*
X102229814Y-106050186D01*
X102146552Y-105948729D01*
X102117222Y-105912991D01*
X102033557Y-105756466D01*
X101982037Y-105586627D01*
X101964641Y-105410000D01*
X101982037Y-105233373D01*
X102033557Y-105063534D01*
X102117222Y-104907009D01*
X102146552Y-104871271D01*
X102229814Y-104769814D01*
X102331271Y-104686552D01*
X102367009Y-104657222D01*
X102523534Y-104573557D01*
X102693373Y-104522037D01*
X102759557Y-104515519D01*
X102825740Y-104509000D01*
X102914260Y-104509000D01*
X102980443Y-104515519D01*
X102980443Y-104515519D01*
G37*
G36*
X94090442Y-101975518D02*
G01*
X94156627Y-101982037D01*
X94326466Y-102033557D01*
X94482991Y-102117222D01*
X94518729Y-102146552D01*
X94620186Y-102229814D01*
X94703448Y-102331271D01*
X94732778Y-102367009D01*
X94816443Y-102523534D01*
X94867963Y-102693373D01*
X94885359Y-102870000D01*
X94867963Y-103046627D01*
X94816443Y-103216466D01*
X94732778Y-103372991D01*
X94703448Y-103408729D01*
X94620186Y-103510186D01*
X94518729Y-103593448D01*
X94482991Y-103622778D01*
X94326466Y-103706443D01*
X94156627Y-103757963D01*
X94090443Y-103764481D01*
X94024260Y-103771000D01*
X93935740Y-103771000D01*
X93869557Y-103764481D01*
X93803373Y-103757963D01*
X93633534Y-103706443D01*
X93477009Y-103622778D01*
X93441271Y-103593448D01*
X93339814Y-103510186D01*
X93256552Y-103408729D01*
X93227222Y-103372991D01*
X93143557Y-103216466D01*
X93092037Y-103046627D01*
X93074641Y-102870000D01*
X93092037Y-102693373D01*
X93143557Y-102523534D01*
X93227222Y-102367009D01*
X93256552Y-102331271D01*
X93339814Y-102229814D01*
X93441271Y-102146552D01*
X93477009Y-102117222D01*
X93633534Y-102033557D01*
X93803373Y-101982037D01*
X93869558Y-101975518D01*
X93935740Y-101969000D01*
X94024260Y-101969000D01*
X94090442Y-101975518D01*
X94090442Y-101975518D01*
G37*
G36*
X91550442Y-101975518D02*
G01*
X91616627Y-101982037D01*
X91786466Y-102033557D01*
X91942991Y-102117222D01*
X91978729Y-102146552D01*
X92080186Y-102229814D01*
X92163448Y-102331271D01*
X92192778Y-102367009D01*
X92276443Y-102523534D01*
X92327963Y-102693373D01*
X92345359Y-102870000D01*
X92327963Y-103046627D01*
X92276443Y-103216466D01*
X92192778Y-103372991D01*
X92163448Y-103408729D01*
X92080186Y-103510186D01*
X91978729Y-103593448D01*
X91942991Y-103622778D01*
X91786466Y-103706443D01*
X91616627Y-103757963D01*
X91550443Y-103764481D01*
X91484260Y-103771000D01*
X91395740Y-103771000D01*
X91329557Y-103764481D01*
X91263373Y-103757963D01*
X91093534Y-103706443D01*
X90937009Y-103622778D01*
X90901271Y-103593448D01*
X90799814Y-103510186D01*
X90716552Y-103408729D01*
X90687222Y-103372991D01*
X90603557Y-103216466D01*
X90552037Y-103046627D01*
X90534641Y-102870000D01*
X90552037Y-102693373D01*
X90603557Y-102523534D01*
X90687222Y-102367009D01*
X90716552Y-102331271D01*
X90799814Y-102229814D01*
X90901271Y-102146552D01*
X90937009Y-102117222D01*
X91093534Y-102033557D01*
X91263373Y-101982037D01*
X91329558Y-101975518D01*
X91395740Y-101969000D01*
X91484260Y-101969000D01*
X91550442Y-101975518D01*
X91550442Y-101975518D01*
G37*
G36*
X102980442Y-101975518D02*
G01*
X103046627Y-101982037D01*
X103216466Y-102033557D01*
X103372991Y-102117222D01*
X103408729Y-102146552D01*
X103510186Y-102229814D01*
X103593448Y-102331271D01*
X103622778Y-102367009D01*
X103706443Y-102523534D01*
X103757963Y-102693373D01*
X103775359Y-102870000D01*
X103757963Y-103046627D01*
X103706443Y-103216466D01*
X103622778Y-103372991D01*
X103593448Y-103408729D01*
X103510186Y-103510186D01*
X103408729Y-103593448D01*
X103372991Y-103622778D01*
X103216466Y-103706443D01*
X103046627Y-103757963D01*
X102980443Y-103764481D01*
X102914260Y-103771000D01*
X102825740Y-103771000D01*
X102759557Y-103764481D01*
X102693373Y-103757963D01*
X102523534Y-103706443D01*
X102367009Y-103622778D01*
X102331271Y-103593448D01*
X102229814Y-103510186D01*
X102146552Y-103408729D01*
X102117222Y-103372991D01*
X102033557Y-103216466D01*
X101982037Y-103046627D01*
X101964641Y-102870000D01*
X101982037Y-102693373D01*
X102033557Y-102523534D01*
X102117222Y-102367009D01*
X102146552Y-102331271D01*
X102229814Y-102229814D01*
X102331271Y-102146552D01*
X102367009Y-102117222D01*
X102523534Y-102033557D01*
X102693373Y-101982037D01*
X102759558Y-101975518D01*
X102825740Y-101969000D01*
X102914260Y-101969000D01*
X102980442Y-101975518D01*
X102980442Y-101975518D01*
G37*
G36*
X100440442Y-101975518D02*
G01*
X100506627Y-101982037D01*
X100676466Y-102033557D01*
X100832991Y-102117222D01*
X100868729Y-102146552D01*
X100970186Y-102229814D01*
X101053448Y-102331271D01*
X101082778Y-102367009D01*
X101166443Y-102523534D01*
X101217963Y-102693373D01*
X101235359Y-102870000D01*
X101217963Y-103046627D01*
X101166443Y-103216466D01*
X101082778Y-103372991D01*
X101053448Y-103408729D01*
X100970186Y-103510186D01*
X100868729Y-103593448D01*
X100832991Y-103622778D01*
X100676466Y-103706443D01*
X100506627Y-103757963D01*
X100440443Y-103764481D01*
X100374260Y-103771000D01*
X100285740Y-103771000D01*
X100219557Y-103764481D01*
X100153373Y-103757963D01*
X99983534Y-103706443D01*
X99827009Y-103622778D01*
X99791271Y-103593448D01*
X99689814Y-103510186D01*
X99606552Y-103408729D01*
X99577222Y-103372991D01*
X99493557Y-103216466D01*
X99442037Y-103046627D01*
X99424641Y-102870000D01*
X99442037Y-102693373D01*
X99493557Y-102523534D01*
X99577222Y-102367009D01*
X99606552Y-102331271D01*
X99689814Y-102229814D01*
X99791271Y-102146552D01*
X99827009Y-102117222D01*
X99983534Y-102033557D01*
X100153373Y-101982037D01*
X100219558Y-101975518D01*
X100285740Y-101969000D01*
X100374260Y-101969000D01*
X100440442Y-101975518D01*
X100440442Y-101975518D01*
G37*
G36*
X100440443Y-99435519D02*
G01*
X100506627Y-99442037D01*
X100676466Y-99493557D01*
X100832991Y-99577222D01*
X100868729Y-99606552D01*
X100970186Y-99689814D01*
X101053448Y-99791271D01*
X101082778Y-99827009D01*
X101166443Y-99983534D01*
X101217963Y-100153373D01*
X101235359Y-100330000D01*
X101217963Y-100506627D01*
X101166443Y-100676466D01*
X101082778Y-100832991D01*
X101053448Y-100868729D01*
X100970186Y-100970186D01*
X100868729Y-101053448D01*
X100832991Y-101082778D01*
X100676466Y-101166443D01*
X100506627Y-101217963D01*
X100440443Y-101224481D01*
X100374260Y-101231000D01*
X100285740Y-101231000D01*
X100219558Y-101224482D01*
X100153373Y-101217963D01*
X99983534Y-101166443D01*
X99827009Y-101082778D01*
X99791271Y-101053448D01*
X99689814Y-100970186D01*
X99606552Y-100868729D01*
X99577222Y-100832991D01*
X99493557Y-100676466D01*
X99442037Y-100506627D01*
X99424641Y-100330000D01*
X99442037Y-100153373D01*
X99493557Y-99983534D01*
X99577222Y-99827009D01*
X99606552Y-99791271D01*
X99689814Y-99689814D01*
X99791271Y-99606552D01*
X99827009Y-99577222D01*
X99983534Y-99493557D01*
X100153373Y-99442037D01*
X100219558Y-99435518D01*
X100285740Y-99429000D01*
X100374260Y-99429000D01*
X100440443Y-99435519D01*
X100440443Y-99435519D01*
G37*
G36*
X91550443Y-99435519D02*
G01*
X91616627Y-99442037D01*
X91786466Y-99493557D01*
X91942991Y-99577222D01*
X91978729Y-99606552D01*
X92080186Y-99689814D01*
X92163448Y-99791271D01*
X92192778Y-99827009D01*
X92276443Y-99983534D01*
X92327963Y-100153373D01*
X92345359Y-100330000D01*
X92327963Y-100506627D01*
X92276443Y-100676466D01*
X92192778Y-100832991D01*
X92163448Y-100868729D01*
X92080186Y-100970186D01*
X91978729Y-101053448D01*
X91942991Y-101082778D01*
X91786466Y-101166443D01*
X91616627Y-101217963D01*
X91550443Y-101224481D01*
X91484260Y-101231000D01*
X91395740Y-101231000D01*
X91329558Y-101224482D01*
X91263373Y-101217963D01*
X91093534Y-101166443D01*
X90937009Y-101082778D01*
X90901271Y-101053448D01*
X90799814Y-100970186D01*
X90716552Y-100868729D01*
X90687222Y-100832991D01*
X90603557Y-100676466D01*
X90552037Y-100506627D01*
X90534641Y-100330000D01*
X90552037Y-100153373D01*
X90603557Y-99983534D01*
X90687222Y-99827009D01*
X90716552Y-99791271D01*
X90799814Y-99689814D01*
X90901271Y-99606552D01*
X90937009Y-99577222D01*
X91093534Y-99493557D01*
X91263373Y-99442037D01*
X91329558Y-99435518D01*
X91395740Y-99429000D01*
X91484260Y-99429000D01*
X91550443Y-99435519D01*
X91550443Y-99435519D01*
G37*
G36*
X94090443Y-99435519D02*
G01*
X94156627Y-99442037D01*
X94326466Y-99493557D01*
X94482991Y-99577222D01*
X94518729Y-99606552D01*
X94620186Y-99689814D01*
X94703448Y-99791271D01*
X94732778Y-99827009D01*
X94816443Y-99983534D01*
X94867963Y-100153373D01*
X94885359Y-100330000D01*
X94867963Y-100506627D01*
X94816443Y-100676466D01*
X94732778Y-100832991D01*
X94703448Y-100868729D01*
X94620186Y-100970186D01*
X94518729Y-101053448D01*
X94482991Y-101082778D01*
X94326466Y-101166443D01*
X94156627Y-101217963D01*
X94090443Y-101224481D01*
X94024260Y-101231000D01*
X93935740Y-101231000D01*
X93869558Y-101224482D01*
X93803373Y-101217963D01*
X93633534Y-101166443D01*
X93477009Y-101082778D01*
X93441271Y-101053448D01*
X93339814Y-100970186D01*
X93256552Y-100868729D01*
X93227222Y-100832991D01*
X93143557Y-100676466D01*
X93092037Y-100506627D01*
X93074641Y-100330000D01*
X93092037Y-100153373D01*
X93143557Y-99983534D01*
X93227222Y-99827009D01*
X93256552Y-99791271D01*
X93339814Y-99689814D01*
X93441271Y-99606552D01*
X93477009Y-99577222D01*
X93633534Y-99493557D01*
X93803373Y-99442037D01*
X93869558Y-99435518D01*
X93935740Y-99429000D01*
X94024260Y-99429000D01*
X94090443Y-99435519D01*
X94090443Y-99435519D01*
G37*
G36*
X102980443Y-99435519D02*
G01*
X103046627Y-99442037D01*
X103216466Y-99493557D01*
X103372991Y-99577222D01*
X103408729Y-99606552D01*
X103510186Y-99689814D01*
X103593448Y-99791271D01*
X103622778Y-99827009D01*
X103706443Y-99983534D01*
X103757963Y-100153373D01*
X103775359Y-100330000D01*
X103757963Y-100506627D01*
X103706443Y-100676466D01*
X103622778Y-100832991D01*
X103593448Y-100868729D01*
X103510186Y-100970186D01*
X103408729Y-101053448D01*
X103372991Y-101082778D01*
X103216466Y-101166443D01*
X103046627Y-101217963D01*
X102980443Y-101224481D01*
X102914260Y-101231000D01*
X102825740Y-101231000D01*
X102759558Y-101224482D01*
X102693373Y-101217963D01*
X102523534Y-101166443D01*
X102367009Y-101082778D01*
X102331271Y-101053448D01*
X102229814Y-100970186D01*
X102146552Y-100868729D01*
X102117222Y-100832991D01*
X102033557Y-100676466D01*
X101982037Y-100506627D01*
X101964641Y-100330000D01*
X101982037Y-100153373D01*
X102033557Y-99983534D01*
X102117222Y-99827009D01*
X102146552Y-99791271D01*
X102229814Y-99689814D01*
X102331271Y-99606552D01*
X102367009Y-99577222D01*
X102523534Y-99493557D01*
X102693373Y-99442037D01*
X102759558Y-99435518D01*
X102825740Y-99429000D01*
X102914260Y-99429000D01*
X102980443Y-99435519D01*
X102980443Y-99435519D01*
G37*
G36*
X91550442Y-96895518D02*
G01*
X91616627Y-96902037D01*
X91786466Y-96953557D01*
X91942991Y-97037222D01*
X91978729Y-97066552D01*
X92080186Y-97149814D01*
X92163448Y-97251271D01*
X92192778Y-97287009D01*
X92276443Y-97443534D01*
X92327963Y-97613373D01*
X92345359Y-97790000D01*
X92327963Y-97966627D01*
X92276443Y-98136466D01*
X92192778Y-98292991D01*
X92163448Y-98328729D01*
X92080186Y-98430186D01*
X91978729Y-98513448D01*
X91942991Y-98542778D01*
X91786466Y-98626443D01*
X91616627Y-98677963D01*
X91550442Y-98684482D01*
X91484260Y-98691000D01*
X91395740Y-98691000D01*
X91329558Y-98684482D01*
X91263373Y-98677963D01*
X91093534Y-98626443D01*
X90937009Y-98542778D01*
X90901271Y-98513448D01*
X90799814Y-98430186D01*
X90716552Y-98328729D01*
X90687222Y-98292991D01*
X90603557Y-98136466D01*
X90552037Y-97966627D01*
X90534641Y-97790000D01*
X90552037Y-97613373D01*
X90603557Y-97443534D01*
X90687222Y-97287009D01*
X90716552Y-97251271D01*
X90799814Y-97149814D01*
X90901271Y-97066552D01*
X90937009Y-97037222D01*
X91093534Y-96953557D01*
X91263373Y-96902037D01*
X91329558Y-96895518D01*
X91395740Y-96889000D01*
X91484260Y-96889000D01*
X91550442Y-96895518D01*
X91550442Y-96895518D01*
G37*
G36*
X94090442Y-96895518D02*
G01*
X94156627Y-96902037D01*
X94326466Y-96953557D01*
X94482991Y-97037222D01*
X94518729Y-97066552D01*
X94620186Y-97149814D01*
X94703448Y-97251271D01*
X94732778Y-97287009D01*
X94816443Y-97443534D01*
X94867963Y-97613373D01*
X94885359Y-97790000D01*
X94867963Y-97966627D01*
X94816443Y-98136466D01*
X94732778Y-98292991D01*
X94703448Y-98328729D01*
X94620186Y-98430186D01*
X94518729Y-98513448D01*
X94482991Y-98542778D01*
X94326466Y-98626443D01*
X94156627Y-98677963D01*
X94090442Y-98684482D01*
X94024260Y-98691000D01*
X93935740Y-98691000D01*
X93869558Y-98684482D01*
X93803373Y-98677963D01*
X93633534Y-98626443D01*
X93477009Y-98542778D01*
X93441271Y-98513448D01*
X93339814Y-98430186D01*
X93256552Y-98328729D01*
X93227222Y-98292991D01*
X93143557Y-98136466D01*
X93092037Y-97966627D01*
X93074641Y-97790000D01*
X93092037Y-97613373D01*
X93143557Y-97443534D01*
X93227222Y-97287009D01*
X93256552Y-97251271D01*
X93339814Y-97149814D01*
X93441271Y-97066552D01*
X93477009Y-97037222D01*
X93633534Y-96953557D01*
X93803373Y-96902037D01*
X93869558Y-96895518D01*
X93935740Y-96889000D01*
X94024260Y-96889000D01*
X94090442Y-96895518D01*
X94090442Y-96895518D01*
G37*
G36*
X102980442Y-96895518D02*
G01*
X103046627Y-96902037D01*
X103216466Y-96953557D01*
X103372991Y-97037222D01*
X103408729Y-97066552D01*
X103510186Y-97149814D01*
X103593448Y-97251271D01*
X103622778Y-97287009D01*
X103706443Y-97443534D01*
X103757963Y-97613373D01*
X103775359Y-97790000D01*
X103757963Y-97966627D01*
X103706443Y-98136466D01*
X103622778Y-98292991D01*
X103593448Y-98328729D01*
X103510186Y-98430186D01*
X103408729Y-98513448D01*
X103372991Y-98542778D01*
X103216466Y-98626443D01*
X103046627Y-98677963D01*
X102980442Y-98684482D01*
X102914260Y-98691000D01*
X102825740Y-98691000D01*
X102759558Y-98684482D01*
X102693373Y-98677963D01*
X102523534Y-98626443D01*
X102367009Y-98542778D01*
X102331271Y-98513448D01*
X102229814Y-98430186D01*
X102146552Y-98328729D01*
X102117222Y-98292991D01*
X102033557Y-98136466D01*
X101982037Y-97966627D01*
X101964641Y-97790000D01*
X101982037Y-97613373D01*
X102033557Y-97443534D01*
X102117222Y-97287009D01*
X102146552Y-97251271D01*
X102229814Y-97149814D01*
X102331271Y-97066552D01*
X102367009Y-97037222D01*
X102523534Y-96953557D01*
X102693373Y-96902037D01*
X102759558Y-96895518D01*
X102825740Y-96889000D01*
X102914260Y-96889000D01*
X102980442Y-96895518D01*
X102980442Y-96895518D01*
G37*
G36*
X100440442Y-96895518D02*
G01*
X100506627Y-96902037D01*
X100676466Y-96953557D01*
X100832991Y-97037222D01*
X100868729Y-97066552D01*
X100970186Y-97149814D01*
X101053448Y-97251271D01*
X101082778Y-97287009D01*
X101166443Y-97443534D01*
X101217963Y-97613373D01*
X101235359Y-97790000D01*
X101217963Y-97966627D01*
X101166443Y-98136466D01*
X101082778Y-98292991D01*
X101053448Y-98328729D01*
X100970186Y-98430186D01*
X100868729Y-98513448D01*
X100832991Y-98542778D01*
X100676466Y-98626443D01*
X100506627Y-98677963D01*
X100440442Y-98684482D01*
X100374260Y-98691000D01*
X100285740Y-98691000D01*
X100219558Y-98684482D01*
X100153373Y-98677963D01*
X99983534Y-98626443D01*
X99827009Y-98542778D01*
X99791271Y-98513448D01*
X99689814Y-98430186D01*
X99606552Y-98328729D01*
X99577222Y-98292991D01*
X99493557Y-98136466D01*
X99442037Y-97966627D01*
X99424641Y-97790000D01*
X99442037Y-97613373D01*
X99493557Y-97443534D01*
X99577222Y-97287009D01*
X99606552Y-97251271D01*
X99689814Y-97149814D01*
X99791271Y-97066552D01*
X99827009Y-97037222D01*
X99983534Y-96953557D01*
X100153373Y-96902037D01*
X100219558Y-96895518D01*
X100285740Y-96889000D01*
X100374260Y-96889000D01*
X100440442Y-96895518D01*
X100440442Y-96895518D01*
G37*
G36*
X94090442Y-94355518D02*
G01*
X94156627Y-94362037D01*
X94326466Y-94413557D01*
X94482991Y-94497222D01*
X94518729Y-94526552D01*
X94620186Y-94609814D01*
X94703448Y-94711271D01*
X94732778Y-94747009D01*
X94816443Y-94903534D01*
X94867963Y-95073373D01*
X94885359Y-95250000D01*
X94867963Y-95426627D01*
X94816443Y-95596466D01*
X94732778Y-95752991D01*
X94703448Y-95788729D01*
X94620186Y-95890186D01*
X94518729Y-95973448D01*
X94482991Y-96002778D01*
X94326466Y-96086443D01*
X94156627Y-96137963D01*
X94090442Y-96144482D01*
X94024260Y-96151000D01*
X93935740Y-96151000D01*
X93869558Y-96144482D01*
X93803373Y-96137963D01*
X93633534Y-96086443D01*
X93477009Y-96002778D01*
X93441271Y-95973448D01*
X93339814Y-95890186D01*
X93256552Y-95788729D01*
X93227222Y-95752991D01*
X93143557Y-95596466D01*
X93092037Y-95426627D01*
X93074641Y-95250000D01*
X93092037Y-95073373D01*
X93143557Y-94903534D01*
X93227222Y-94747009D01*
X93256552Y-94711271D01*
X93339814Y-94609814D01*
X93441271Y-94526552D01*
X93477009Y-94497222D01*
X93633534Y-94413557D01*
X93803373Y-94362037D01*
X93869558Y-94355518D01*
X93935740Y-94349000D01*
X94024260Y-94349000D01*
X94090442Y-94355518D01*
X94090442Y-94355518D01*
G37*
G36*
X91550442Y-94355518D02*
G01*
X91616627Y-94362037D01*
X91786466Y-94413557D01*
X91942991Y-94497222D01*
X91978729Y-94526552D01*
X92080186Y-94609814D01*
X92163448Y-94711271D01*
X92192778Y-94747009D01*
X92276443Y-94903534D01*
X92327963Y-95073373D01*
X92345359Y-95250000D01*
X92327963Y-95426627D01*
X92276443Y-95596466D01*
X92192778Y-95752991D01*
X92163448Y-95788729D01*
X92080186Y-95890186D01*
X91978729Y-95973448D01*
X91942991Y-96002778D01*
X91786466Y-96086443D01*
X91616627Y-96137963D01*
X91550442Y-96144482D01*
X91484260Y-96151000D01*
X91395740Y-96151000D01*
X91329558Y-96144482D01*
X91263373Y-96137963D01*
X91093534Y-96086443D01*
X90937009Y-96002778D01*
X90901271Y-95973448D01*
X90799814Y-95890186D01*
X90716552Y-95788729D01*
X90687222Y-95752991D01*
X90603557Y-95596466D01*
X90552037Y-95426627D01*
X90534641Y-95250000D01*
X90552037Y-95073373D01*
X90603557Y-94903534D01*
X90687222Y-94747009D01*
X90716552Y-94711271D01*
X90799814Y-94609814D01*
X90901271Y-94526552D01*
X90937009Y-94497222D01*
X91093534Y-94413557D01*
X91263373Y-94362037D01*
X91329558Y-94355518D01*
X91395740Y-94349000D01*
X91484260Y-94349000D01*
X91550442Y-94355518D01*
X91550442Y-94355518D01*
G37*
G36*
X100440442Y-94355518D02*
G01*
X100506627Y-94362037D01*
X100676466Y-94413557D01*
X100832991Y-94497222D01*
X100868729Y-94526552D01*
X100970186Y-94609814D01*
X101053448Y-94711271D01*
X101082778Y-94747009D01*
X101166443Y-94903534D01*
X101217963Y-95073373D01*
X101235359Y-95250000D01*
X101217963Y-95426627D01*
X101166443Y-95596466D01*
X101082778Y-95752991D01*
X101053448Y-95788729D01*
X100970186Y-95890186D01*
X100868729Y-95973448D01*
X100832991Y-96002778D01*
X100676466Y-96086443D01*
X100506627Y-96137963D01*
X100440443Y-96144481D01*
X100374260Y-96151000D01*
X100285740Y-96151000D01*
X100219558Y-96144482D01*
X100153373Y-96137963D01*
X99983534Y-96086443D01*
X99827009Y-96002778D01*
X99791271Y-95973448D01*
X99689814Y-95890186D01*
X99606552Y-95788729D01*
X99577222Y-95752991D01*
X99493557Y-95596466D01*
X99442037Y-95426627D01*
X99424641Y-95250000D01*
X99442037Y-95073373D01*
X99493557Y-94903534D01*
X99577222Y-94747009D01*
X99606552Y-94711271D01*
X99689814Y-94609814D01*
X99791271Y-94526552D01*
X99827009Y-94497222D01*
X99983534Y-94413557D01*
X100153373Y-94362037D01*
X100219558Y-94355518D01*
X100285740Y-94349000D01*
X100374260Y-94349000D01*
X100440442Y-94355518D01*
X100440442Y-94355518D01*
G37*
G36*
X102980442Y-94355518D02*
G01*
X103046627Y-94362037D01*
X103216466Y-94413557D01*
X103372991Y-94497222D01*
X103408729Y-94526552D01*
X103510186Y-94609814D01*
X103593448Y-94711271D01*
X103622778Y-94747009D01*
X103706443Y-94903534D01*
X103757963Y-95073373D01*
X103775359Y-95250000D01*
X103757963Y-95426627D01*
X103706443Y-95596466D01*
X103622778Y-95752991D01*
X103593448Y-95788729D01*
X103510186Y-95890186D01*
X103408729Y-95973448D01*
X103372991Y-96002778D01*
X103216466Y-96086443D01*
X103046627Y-96137963D01*
X102980443Y-96144481D01*
X102914260Y-96151000D01*
X102825740Y-96151000D01*
X102759558Y-96144482D01*
X102693373Y-96137963D01*
X102523534Y-96086443D01*
X102367009Y-96002778D01*
X102331271Y-95973448D01*
X102229814Y-95890186D01*
X102146552Y-95788729D01*
X102117222Y-95752991D01*
X102033557Y-95596466D01*
X101982037Y-95426627D01*
X101964641Y-95250000D01*
X101982037Y-95073373D01*
X102033557Y-94903534D01*
X102117222Y-94747009D01*
X102146552Y-94711271D01*
X102229814Y-94609814D01*
X102331271Y-94526552D01*
X102367009Y-94497222D01*
X102523534Y-94413557D01*
X102693373Y-94362037D01*
X102759558Y-94355518D01*
X102825740Y-94349000D01*
X102914260Y-94349000D01*
X102980442Y-94355518D01*
X102980442Y-94355518D01*
G37*
G36*
X94090442Y-91815518D02*
G01*
X94156627Y-91822037D01*
X94326466Y-91873557D01*
X94482991Y-91957222D01*
X94518729Y-91986552D01*
X94620186Y-92069814D01*
X94703448Y-92171271D01*
X94732778Y-92207009D01*
X94816443Y-92363534D01*
X94867963Y-92533373D01*
X94885359Y-92710000D01*
X94867963Y-92886627D01*
X94816443Y-93056466D01*
X94732778Y-93212991D01*
X94703448Y-93248729D01*
X94620186Y-93350186D01*
X94518729Y-93433448D01*
X94482991Y-93462778D01*
X94326466Y-93546443D01*
X94156627Y-93597963D01*
X94090443Y-93604481D01*
X94024260Y-93611000D01*
X93935740Y-93611000D01*
X93869557Y-93604481D01*
X93803373Y-93597963D01*
X93633534Y-93546443D01*
X93477009Y-93462778D01*
X93441271Y-93433448D01*
X93339814Y-93350186D01*
X93256552Y-93248729D01*
X93227222Y-93212991D01*
X93143557Y-93056466D01*
X93092037Y-92886627D01*
X93074641Y-92710000D01*
X93092037Y-92533373D01*
X93143557Y-92363534D01*
X93227222Y-92207009D01*
X93256552Y-92171271D01*
X93339814Y-92069814D01*
X93441271Y-91986552D01*
X93477009Y-91957222D01*
X93633534Y-91873557D01*
X93803373Y-91822037D01*
X93869558Y-91815518D01*
X93935740Y-91809000D01*
X94024260Y-91809000D01*
X94090442Y-91815518D01*
X94090442Y-91815518D01*
G37*
G36*
X100440442Y-91815518D02*
G01*
X100506627Y-91822037D01*
X100676466Y-91873557D01*
X100832991Y-91957222D01*
X100868729Y-91986552D01*
X100970186Y-92069814D01*
X101053448Y-92171271D01*
X101082778Y-92207009D01*
X101166443Y-92363534D01*
X101217963Y-92533373D01*
X101235359Y-92710000D01*
X101217963Y-92886627D01*
X101166443Y-93056466D01*
X101082778Y-93212991D01*
X101053448Y-93248729D01*
X100970186Y-93350186D01*
X100868729Y-93433448D01*
X100832991Y-93462778D01*
X100676466Y-93546443D01*
X100506627Y-93597963D01*
X100440443Y-93604481D01*
X100374260Y-93611000D01*
X100285740Y-93611000D01*
X100219557Y-93604481D01*
X100153373Y-93597963D01*
X99983534Y-93546443D01*
X99827009Y-93462778D01*
X99791271Y-93433448D01*
X99689814Y-93350186D01*
X99606552Y-93248729D01*
X99577222Y-93212991D01*
X99493557Y-93056466D01*
X99442037Y-92886627D01*
X99424641Y-92710000D01*
X99442037Y-92533373D01*
X99493557Y-92363534D01*
X99577222Y-92207009D01*
X99606552Y-92171271D01*
X99689814Y-92069814D01*
X99791271Y-91986552D01*
X99827009Y-91957222D01*
X99983534Y-91873557D01*
X100153373Y-91822037D01*
X100219558Y-91815518D01*
X100285740Y-91809000D01*
X100374260Y-91809000D01*
X100440442Y-91815518D01*
X100440442Y-91815518D01*
G37*
G36*
X91550442Y-91815518D02*
G01*
X91616627Y-91822037D01*
X91786466Y-91873557D01*
X91942991Y-91957222D01*
X91978729Y-91986552D01*
X92080186Y-92069814D01*
X92163448Y-92171271D01*
X92192778Y-92207009D01*
X92276443Y-92363534D01*
X92327963Y-92533373D01*
X92345359Y-92710000D01*
X92327963Y-92886627D01*
X92276443Y-93056466D01*
X92192778Y-93212991D01*
X92163448Y-93248729D01*
X92080186Y-93350186D01*
X91978729Y-93433448D01*
X91942991Y-93462778D01*
X91786466Y-93546443D01*
X91616627Y-93597963D01*
X91550443Y-93604481D01*
X91484260Y-93611000D01*
X91395740Y-93611000D01*
X91329557Y-93604481D01*
X91263373Y-93597963D01*
X91093534Y-93546443D01*
X90937009Y-93462778D01*
X90901271Y-93433448D01*
X90799814Y-93350186D01*
X90716552Y-93248729D01*
X90687222Y-93212991D01*
X90603557Y-93056466D01*
X90552037Y-92886627D01*
X90534641Y-92710000D01*
X90552037Y-92533373D01*
X90603557Y-92363534D01*
X90687222Y-92207009D01*
X90716552Y-92171271D01*
X90799814Y-92069814D01*
X90901271Y-91986552D01*
X90937009Y-91957222D01*
X91093534Y-91873557D01*
X91263373Y-91822037D01*
X91329558Y-91815518D01*
X91395740Y-91809000D01*
X91484260Y-91809000D01*
X91550442Y-91815518D01*
X91550442Y-91815518D01*
G37*
G36*
X102980442Y-91815518D02*
G01*
X103046627Y-91822037D01*
X103216466Y-91873557D01*
X103372991Y-91957222D01*
X103408729Y-91986552D01*
X103510186Y-92069814D01*
X103593448Y-92171271D01*
X103622778Y-92207009D01*
X103706443Y-92363534D01*
X103757963Y-92533373D01*
X103775359Y-92710000D01*
X103757963Y-92886627D01*
X103706443Y-93056466D01*
X103622778Y-93212991D01*
X103593448Y-93248729D01*
X103510186Y-93350186D01*
X103408729Y-93433448D01*
X103372991Y-93462778D01*
X103216466Y-93546443D01*
X103046627Y-93597963D01*
X102980443Y-93604481D01*
X102914260Y-93611000D01*
X102825740Y-93611000D01*
X102759557Y-93604481D01*
X102693373Y-93597963D01*
X102523534Y-93546443D01*
X102367009Y-93462778D01*
X102331271Y-93433448D01*
X102229814Y-93350186D01*
X102146552Y-93248729D01*
X102117222Y-93212991D01*
X102033557Y-93056466D01*
X101982037Y-92886627D01*
X101964641Y-92710000D01*
X101982037Y-92533373D01*
X102033557Y-92363534D01*
X102117222Y-92207009D01*
X102146552Y-92171271D01*
X102229814Y-92069814D01*
X102331271Y-91986552D01*
X102367009Y-91957222D01*
X102523534Y-91873557D01*
X102693373Y-91822037D01*
X102759558Y-91815518D01*
X102825740Y-91809000D01*
X102914260Y-91809000D01*
X102980442Y-91815518D01*
X102980442Y-91815518D01*
G37*
G36*
X100440443Y-89275519D02*
G01*
X100506627Y-89282037D01*
X100676466Y-89333557D01*
X100832991Y-89417222D01*
X100868729Y-89446552D01*
X100970186Y-89529814D01*
X101053448Y-89631271D01*
X101082778Y-89667009D01*
X101166443Y-89823534D01*
X101217963Y-89993373D01*
X101235359Y-90170000D01*
X101217963Y-90346627D01*
X101166443Y-90516466D01*
X101082778Y-90672991D01*
X101053448Y-90708729D01*
X100970186Y-90810186D01*
X100868729Y-90893448D01*
X100832991Y-90922778D01*
X100676466Y-91006443D01*
X100506627Y-91057963D01*
X100440442Y-91064482D01*
X100374260Y-91071000D01*
X100285740Y-91071000D01*
X100219558Y-91064482D01*
X100153373Y-91057963D01*
X99983534Y-91006443D01*
X99827009Y-90922778D01*
X99791271Y-90893448D01*
X99689814Y-90810186D01*
X99606552Y-90708729D01*
X99577222Y-90672991D01*
X99493557Y-90516466D01*
X99442037Y-90346627D01*
X99424641Y-90170000D01*
X99442037Y-89993373D01*
X99493557Y-89823534D01*
X99577222Y-89667009D01*
X99606552Y-89631271D01*
X99689814Y-89529814D01*
X99791271Y-89446552D01*
X99827009Y-89417222D01*
X99983534Y-89333557D01*
X100153373Y-89282037D01*
X100219557Y-89275519D01*
X100285740Y-89269000D01*
X100374260Y-89269000D01*
X100440443Y-89275519D01*
X100440443Y-89275519D01*
G37*
G36*
X94090443Y-89275519D02*
G01*
X94156627Y-89282037D01*
X94326466Y-89333557D01*
X94482991Y-89417222D01*
X94518729Y-89446552D01*
X94620186Y-89529814D01*
X94703448Y-89631271D01*
X94732778Y-89667009D01*
X94816443Y-89823534D01*
X94867963Y-89993373D01*
X94885359Y-90170000D01*
X94867963Y-90346627D01*
X94816443Y-90516466D01*
X94732778Y-90672991D01*
X94703448Y-90708729D01*
X94620186Y-90810186D01*
X94518729Y-90893448D01*
X94482991Y-90922778D01*
X94326466Y-91006443D01*
X94156627Y-91057963D01*
X94090442Y-91064482D01*
X94024260Y-91071000D01*
X93935740Y-91071000D01*
X93869558Y-91064482D01*
X93803373Y-91057963D01*
X93633534Y-91006443D01*
X93477009Y-90922778D01*
X93441271Y-90893448D01*
X93339814Y-90810186D01*
X93256552Y-90708729D01*
X93227222Y-90672991D01*
X93143557Y-90516466D01*
X93092037Y-90346627D01*
X93074641Y-90170000D01*
X93092037Y-89993373D01*
X93143557Y-89823534D01*
X93227222Y-89667009D01*
X93256552Y-89631271D01*
X93339814Y-89529814D01*
X93441271Y-89446552D01*
X93477009Y-89417222D01*
X93633534Y-89333557D01*
X93803373Y-89282037D01*
X93869557Y-89275519D01*
X93935740Y-89269000D01*
X94024260Y-89269000D01*
X94090443Y-89275519D01*
X94090443Y-89275519D01*
G37*
G36*
X91550443Y-89275519D02*
G01*
X91616627Y-89282037D01*
X91786466Y-89333557D01*
X91942991Y-89417222D01*
X91978729Y-89446552D01*
X92080186Y-89529814D01*
X92163448Y-89631271D01*
X92192778Y-89667009D01*
X92276443Y-89823534D01*
X92327963Y-89993373D01*
X92345359Y-90170000D01*
X92327963Y-90346627D01*
X92276443Y-90516466D01*
X92192778Y-90672991D01*
X92163448Y-90708729D01*
X92080186Y-90810186D01*
X91978729Y-90893448D01*
X91942991Y-90922778D01*
X91786466Y-91006443D01*
X91616627Y-91057963D01*
X91550442Y-91064482D01*
X91484260Y-91071000D01*
X91395740Y-91071000D01*
X91329558Y-91064482D01*
X91263373Y-91057963D01*
X91093534Y-91006443D01*
X90937009Y-90922778D01*
X90901271Y-90893448D01*
X90799814Y-90810186D01*
X90716552Y-90708729D01*
X90687222Y-90672991D01*
X90603557Y-90516466D01*
X90552037Y-90346627D01*
X90534641Y-90170000D01*
X90552037Y-89993373D01*
X90603557Y-89823534D01*
X90687222Y-89667009D01*
X90716552Y-89631271D01*
X90799814Y-89529814D01*
X90901271Y-89446552D01*
X90937009Y-89417222D01*
X91093534Y-89333557D01*
X91263373Y-89282037D01*
X91329557Y-89275519D01*
X91395740Y-89269000D01*
X91484260Y-89269000D01*
X91550443Y-89275519D01*
X91550443Y-89275519D01*
G37*
G36*
X102980443Y-89275519D02*
G01*
X103046627Y-89282037D01*
X103216466Y-89333557D01*
X103372991Y-89417222D01*
X103408729Y-89446552D01*
X103510186Y-89529814D01*
X103593448Y-89631271D01*
X103622778Y-89667009D01*
X103706443Y-89823534D01*
X103757963Y-89993373D01*
X103775359Y-90170000D01*
X103757963Y-90346627D01*
X103706443Y-90516466D01*
X103622778Y-90672991D01*
X103593448Y-90708729D01*
X103510186Y-90810186D01*
X103408729Y-90893448D01*
X103372991Y-90922778D01*
X103216466Y-91006443D01*
X103046627Y-91057963D01*
X102980442Y-91064482D01*
X102914260Y-91071000D01*
X102825740Y-91071000D01*
X102759558Y-91064482D01*
X102693373Y-91057963D01*
X102523534Y-91006443D01*
X102367009Y-90922778D01*
X102331271Y-90893448D01*
X102229814Y-90810186D01*
X102146552Y-90708729D01*
X102117222Y-90672991D01*
X102033557Y-90516466D01*
X101982037Y-90346627D01*
X101964641Y-90170000D01*
X101982037Y-89993373D01*
X102033557Y-89823534D01*
X102117222Y-89667009D01*
X102146552Y-89631271D01*
X102229814Y-89529814D01*
X102331271Y-89446552D01*
X102367009Y-89417222D01*
X102523534Y-89333557D01*
X102693373Y-89282037D01*
X102759557Y-89275519D01*
X102825740Y-89269000D01*
X102914260Y-89269000D01*
X102980443Y-89275519D01*
X102980443Y-89275519D01*
G37*
G36*
X100440442Y-86735518D02*
G01*
X100506627Y-86742037D01*
X100676466Y-86793557D01*
X100832991Y-86877222D01*
X100868729Y-86906552D01*
X100970186Y-86989814D01*
X101053448Y-87091271D01*
X101082778Y-87127009D01*
X101166443Y-87283534D01*
X101217963Y-87453373D01*
X101235359Y-87630000D01*
X101217963Y-87806627D01*
X101166443Y-87976466D01*
X101082778Y-88132991D01*
X101053448Y-88168729D01*
X100970186Y-88270186D01*
X100868729Y-88353448D01*
X100832991Y-88382778D01*
X100676466Y-88466443D01*
X100506627Y-88517963D01*
X100440442Y-88524482D01*
X100374260Y-88531000D01*
X100285740Y-88531000D01*
X100219558Y-88524482D01*
X100153373Y-88517963D01*
X99983534Y-88466443D01*
X99827009Y-88382778D01*
X99791271Y-88353448D01*
X99689814Y-88270186D01*
X99606552Y-88168729D01*
X99577222Y-88132991D01*
X99493557Y-87976466D01*
X99442037Y-87806627D01*
X99424641Y-87630000D01*
X99442037Y-87453373D01*
X99493557Y-87283534D01*
X99577222Y-87127009D01*
X99606552Y-87091271D01*
X99689814Y-86989814D01*
X99791271Y-86906552D01*
X99827009Y-86877222D01*
X99983534Y-86793557D01*
X100153373Y-86742037D01*
X100219558Y-86735518D01*
X100285740Y-86729000D01*
X100374260Y-86729000D01*
X100440442Y-86735518D01*
X100440442Y-86735518D01*
G37*
G36*
X102980442Y-86735518D02*
G01*
X103046627Y-86742037D01*
X103216466Y-86793557D01*
X103372991Y-86877222D01*
X103408729Y-86906552D01*
X103510186Y-86989814D01*
X103593448Y-87091271D01*
X103622778Y-87127009D01*
X103706443Y-87283534D01*
X103757963Y-87453373D01*
X103775359Y-87630000D01*
X103757963Y-87806627D01*
X103706443Y-87976466D01*
X103622778Y-88132991D01*
X103593448Y-88168729D01*
X103510186Y-88270186D01*
X103408729Y-88353448D01*
X103372991Y-88382778D01*
X103216466Y-88466443D01*
X103046627Y-88517963D01*
X102980442Y-88524482D01*
X102914260Y-88531000D01*
X102825740Y-88531000D01*
X102759558Y-88524482D01*
X102693373Y-88517963D01*
X102523534Y-88466443D01*
X102367009Y-88382778D01*
X102331271Y-88353448D01*
X102229814Y-88270186D01*
X102146552Y-88168729D01*
X102117222Y-88132991D01*
X102033557Y-87976466D01*
X101982037Y-87806627D01*
X101964641Y-87630000D01*
X101982037Y-87453373D01*
X102033557Y-87283534D01*
X102117222Y-87127009D01*
X102146552Y-87091271D01*
X102229814Y-86989814D01*
X102331271Y-86906552D01*
X102367009Y-86877222D01*
X102523534Y-86793557D01*
X102693373Y-86742037D01*
X102759558Y-86735518D01*
X102825740Y-86729000D01*
X102914260Y-86729000D01*
X102980442Y-86735518D01*
X102980442Y-86735518D01*
G37*
G36*
X91550442Y-86735518D02*
G01*
X91616627Y-86742037D01*
X91786466Y-86793557D01*
X91942991Y-86877222D01*
X91978729Y-86906552D01*
X92080186Y-86989814D01*
X92163448Y-87091271D01*
X92192778Y-87127009D01*
X92276443Y-87283534D01*
X92327963Y-87453373D01*
X92345359Y-87630000D01*
X92327963Y-87806627D01*
X92276443Y-87976466D01*
X92192778Y-88132991D01*
X92163448Y-88168729D01*
X92080186Y-88270186D01*
X91978729Y-88353448D01*
X91942991Y-88382778D01*
X91786466Y-88466443D01*
X91616627Y-88517963D01*
X91550442Y-88524482D01*
X91484260Y-88531000D01*
X91395740Y-88531000D01*
X91329558Y-88524482D01*
X91263373Y-88517963D01*
X91093534Y-88466443D01*
X90937009Y-88382778D01*
X90901271Y-88353448D01*
X90799814Y-88270186D01*
X90716552Y-88168729D01*
X90687222Y-88132991D01*
X90603557Y-87976466D01*
X90552037Y-87806627D01*
X90534641Y-87630000D01*
X90552037Y-87453373D01*
X90603557Y-87283534D01*
X90687222Y-87127009D01*
X90716552Y-87091271D01*
X90799814Y-86989814D01*
X90901271Y-86906552D01*
X90937009Y-86877222D01*
X91093534Y-86793557D01*
X91263373Y-86742037D01*
X91329558Y-86735518D01*
X91395740Y-86729000D01*
X91484260Y-86729000D01*
X91550442Y-86735518D01*
X91550442Y-86735518D01*
G37*
G36*
X94090442Y-86735518D02*
G01*
X94156627Y-86742037D01*
X94326466Y-86793557D01*
X94482991Y-86877222D01*
X94518729Y-86906552D01*
X94620186Y-86989814D01*
X94703448Y-87091271D01*
X94732778Y-87127009D01*
X94816443Y-87283534D01*
X94867963Y-87453373D01*
X94885359Y-87630000D01*
X94867963Y-87806627D01*
X94816443Y-87976466D01*
X94732778Y-88132991D01*
X94703448Y-88168729D01*
X94620186Y-88270186D01*
X94518729Y-88353448D01*
X94482991Y-88382778D01*
X94326466Y-88466443D01*
X94156627Y-88517963D01*
X94090442Y-88524482D01*
X94024260Y-88531000D01*
X93935740Y-88531000D01*
X93869558Y-88524482D01*
X93803373Y-88517963D01*
X93633534Y-88466443D01*
X93477009Y-88382778D01*
X93441271Y-88353448D01*
X93339814Y-88270186D01*
X93256552Y-88168729D01*
X93227222Y-88132991D01*
X93143557Y-87976466D01*
X93092037Y-87806627D01*
X93074641Y-87630000D01*
X93092037Y-87453373D01*
X93143557Y-87283534D01*
X93227222Y-87127009D01*
X93256552Y-87091271D01*
X93339814Y-86989814D01*
X93441271Y-86906552D01*
X93477009Y-86877222D01*
X93633534Y-86793557D01*
X93803373Y-86742037D01*
X93869558Y-86735518D01*
X93935740Y-86729000D01*
X94024260Y-86729000D01*
X94090442Y-86735518D01*
X94090442Y-86735518D01*
G37*
G36*
X102980442Y-84195518D02*
G01*
X103046627Y-84202037D01*
X103216466Y-84253557D01*
X103372991Y-84337222D01*
X103408729Y-84366552D01*
X103510186Y-84449814D01*
X103593448Y-84551271D01*
X103622778Y-84587009D01*
X103706443Y-84743534D01*
X103757963Y-84913373D01*
X103775359Y-85090000D01*
X103757963Y-85266627D01*
X103706443Y-85436466D01*
X103622778Y-85592991D01*
X103593448Y-85628729D01*
X103510186Y-85730186D01*
X103408729Y-85813448D01*
X103372991Y-85842778D01*
X103216466Y-85926443D01*
X103046627Y-85977963D01*
X102980442Y-85984482D01*
X102914260Y-85991000D01*
X102825740Y-85991000D01*
X102759558Y-85984482D01*
X102693373Y-85977963D01*
X102523534Y-85926443D01*
X102367009Y-85842778D01*
X102331271Y-85813448D01*
X102229814Y-85730186D01*
X102146552Y-85628729D01*
X102117222Y-85592991D01*
X102033557Y-85436466D01*
X101982037Y-85266627D01*
X101964641Y-85090000D01*
X101982037Y-84913373D01*
X102033557Y-84743534D01*
X102117222Y-84587009D01*
X102146552Y-84551271D01*
X102229814Y-84449814D01*
X102331271Y-84366552D01*
X102367009Y-84337222D01*
X102523534Y-84253557D01*
X102693373Y-84202037D01*
X102759558Y-84195518D01*
X102825740Y-84189000D01*
X102914260Y-84189000D01*
X102980442Y-84195518D01*
X102980442Y-84195518D01*
G37*
G36*
X94090442Y-84195518D02*
G01*
X94156627Y-84202037D01*
X94326466Y-84253557D01*
X94482991Y-84337222D01*
X94518729Y-84366552D01*
X94620186Y-84449814D01*
X94703448Y-84551271D01*
X94732778Y-84587009D01*
X94816443Y-84743534D01*
X94867963Y-84913373D01*
X94885359Y-85090000D01*
X94867963Y-85266627D01*
X94816443Y-85436466D01*
X94732778Y-85592991D01*
X94703448Y-85628729D01*
X94620186Y-85730186D01*
X94518729Y-85813448D01*
X94482991Y-85842778D01*
X94326466Y-85926443D01*
X94156627Y-85977963D01*
X94090442Y-85984482D01*
X94024260Y-85991000D01*
X93935740Y-85991000D01*
X93869558Y-85984482D01*
X93803373Y-85977963D01*
X93633534Y-85926443D01*
X93477009Y-85842778D01*
X93441271Y-85813448D01*
X93339814Y-85730186D01*
X93256552Y-85628729D01*
X93227222Y-85592991D01*
X93143557Y-85436466D01*
X93092037Y-85266627D01*
X93074641Y-85090000D01*
X93092037Y-84913373D01*
X93143557Y-84743534D01*
X93227222Y-84587009D01*
X93256552Y-84551271D01*
X93339814Y-84449814D01*
X93441271Y-84366552D01*
X93477009Y-84337222D01*
X93633534Y-84253557D01*
X93803373Y-84202037D01*
X93869558Y-84195518D01*
X93935740Y-84189000D01*
X94024260Y-84189000D01*
X94090442Y-84195518D01*
X94090442Y-84195518D01*
G37*
G36*
X100440442Y-84195518D02*
G01*
X100506627Y-84202037D01*
X100676466Y-84253557D01*
X100832991Y-84337222D01*
X100868729Y-84366552D01*
X100970186Y-84449814D01*
X101053448Y-84551271D01*
X101082778Y-84587009D01*
X101166443Y-84743534D01*
X101217963Y-84913373D01*
X101235359Y-85090000D01*
X101217963Y-85266627D01*
X101166443Y-85436466D01*
X101082778Y-85592991D01*
X101053448Y-85628729D01*
X100970186Y-85730186D01*
X100868729Y-85813448D01*
X100832991Y-85842778D01*
X100676466Y-85926443D01*
X100506627Y-85977963D01*
X100440442Y-85984482D01*
X100374260Y-85991000D01*
X100285740Y-85991000D01*
X100219558Y-85984482D01*
X100153373Y-85977963D01*
X99983534Y-85926443D01*
X99827009Y-85842778D01*
X99791271Y-85813448D01*
X99689814Y-85730186D01*
X99606552Y-85628729D01*
X99577222Y-85592991D01*
X99493557Y-85436466D01*
X99442037Y-85266627D01*
X99424641Y-85090000D01*
X99442037Y-84913373D01*
X99493557Y-84743534D01*
X99577222Y-84587009D01*
X99606552Y-84551271D01*
X99689814Y-84449814D01*
X99791271Y-84366552D01*
X99827009Y-84337222D01*
X99983534Y-84253557D01*
X100153373Y-84202037D01*
X100219558Y-84195518D01*
X100285740Y-84189000D01*
X100374260Y-84189000D01*
X100440442Y-84195518D01*
X100440442Y-84195518D01*
G37*
G36*
X91550442Y-84195518D02*
G01*
X91616627Y-84202037D01*
X91786466Y-84253557D01*
X91942991Y-84337222D01*
X91978729Y-84366552D01*
X92080186Y-84449814D01*
X92163448Y-84551271D01*
X92192778Y-84587009D01*
X92276443Y-84743534D01*
X92327963Y-84913373D01*
X92345359Y-85090000D01*
X92327963Y-85266627D01*
X92276443Y-85436466D01*
X92192778Y-85592991D01*
X92163448Y-85628729D01*
X92080186Y-85730186D01*
X91978729Y-85813448D01*
X91942991Y-85842778D01*
X91786466Y-85926443D01*
X91616627Y-85977963D01*
X91550442Y-85984482D01*
X91484260Y-85991000D01*
X91395740Y-85991000D01*
X91329558Y-85984482D01*
X91263373Y-85977963D01*
X91093534Y-85926443D01*
X90937009Y-85842778D01*
X90901271Y-85813448D01*
X90799814Y-85730186D01*
X90716552Y-85628729D01*
X90687222Y-85592991D01*
X90603557Y-85436466D01*
X90552037Y-85266627D01*
X90534641Y-85090000D01*
X90552037Y-84913373D01*
X90603557Y-84743534D01*
X90687222Y-84587009D01*
X90716552Y-84551271D01*
X90799814Y-84449814D01*
X90901271Y-84366552D01*
X90937009Y-84337222D01*
X91093534Y-84253557D01*
X91263373Y-84202037D01*
X91329558Y-84195518D01*
X91395740Y-84189000D01*
X91484260Y-84189000D01*
X91550442Y-84195518D01*
X91550442Y-84195518D01*
G37*
G36*
X102980443Y-81655519D02*
G01*
X103046627Y-81662037D01*
X103216466Y-81713557D01*
X103372991Y-81797222D01*
X103408729Y-81826552D01*
X103510186Y-81909814D01*
X103593448Y-82011271D01*
X103622778Y-82047009D01*
X103706443Y-82203534D01*
X103757963Y-82373373D01*
X103775359Y-82550000D01*
X103757963Y-82726627D01*
X103706443Y-82896466D01*
X103622778Y-83052991D01*
X103593448Y-83088729D01*
X103510186Y-83190186D01*
X103408729Y-83273448D01*
X103372991Y-83302778D01*
X103216466Y-83386443D01*
X103046627Y-83437963D01*
X102980443Y-83444481D01*
X102914260Y-83451000D01*
X102825740Y-83451000D01*
X102759557Y-83444481D01*
X102693373Y-83437963D01*
X102523534Y-83386443D01*
X102367009Y-83302778D01*
X102331271Y-83273448D01*
X102229814Y-83190186D01*
X102146552Y-83088729D01*
X102117222Y-83052991D01*
X102033557Y-82896466D01*
X101982037Y-82726627D01*
X101964641Y-82550000D01*
X101982037Y-82373373D01*
X102033557Y-82203534D01*
X102117222Y-82047009D01*
X102146552Y-82011271D01*
X102229814Y-81909814D01*
X102331271Y-81826552D01*
X102367009Y-81797222D01*
X102523534Y-81713557D01*
X102693373Y-81662037D01*
X102759557Y-81655519D01*
X102825740Y-81649000D01*
X102914260Y-81649000D01*
X102980443Y-81655519D01*
X102980443Y-81655519D01*
G37*
G36*
X100440443Y-81655519D02*
G01*
X100506627Y-81662037D01*
X100676466Y-81713557D01*
X100832991Y-81797222D01*
X100868729Y-81826552D01*
X100970186Y-81909814D01*
X101053448Y-82011271D01*
X101082778Y-82047009D01*
X101166443Y-82203534D01*
X101217963Y-82373373D01*
X101235359Y-82550000D01*
X101217963Y-82726627D01*
X101166443Y-82896466D01*
X101082778Y-83052991D01*
X101053448Y-83088729D01*
X100970186Y-83190186D01*
X100868729Y-83273448D01*
X100832991Y-83302778D01*
X100676466Y-83386443D01*
X100506627Y-83437963D01*
X100440443Y-83444481D01*
X100374260Y-83451000D01*
X100285740Y-83451000D01*
X100219557Y-83444481D01*
X100153373Y-83437963D01*
X99983534Y-83386443D01*
X99827009Y-83302778D01*
X99791271Y-83273448D01*
X99689814Y-83190186D01*
X99606552Y-83088729D01*
X99577222Y-83052991D01*
X99493557Y-82896466D01*
X99442037Y-82726627D01*
X99424641Y-82550000D01*
X99442037Y-82373373D01*
X99493557Y-82203534D01*
X99577222Y-82047009D01*
X99606552Y-82011271D01*
X99689814Y-81909814D01*
X99791271Y-81826552D01*
X99827009Y-81797222D01*
X99983534Y-81713557D01*
X100153373Y-81662037D01*
X100219557Y-81655519D01*
X100285740Y-81649000D01*
X100374260Y-81649000D01*
X100440443Y-81655519D01*
X100440443Y-81655519D01*
G37*
G36*
X91550443Y-81655519D02*
G01*
X91616627Y-81662037D01*
X91786466Y-81713557D01*
X91942991Y-81797222D01*
X91978729Y-81826552D01*
X92080186Y-81909814D01*
X92163448Y-82011271D01*
X92192778Y-82047009D01*
X92276443Y-82203534D01*
X92327963Y-82373373D01*
X92345359Y-82550000D01*
X92327963Y-82726627D01*
X92276443Y-82896466D01*
X92192778Y-83052991D01*
X92163448Y-83088729D01*
X92080186Y-83190186D01*
X91978729Y-83273448D01*
X91942991Y-83302778D01*
X91786466Y-83386443D01*
X91616627Y-83437963D01*
X91550443Y-83444481D01*
X91484260Y-83451000D01*
X91395740Y-83451000D01*
X91329557Y-83444481D01*
X91263373Y-83437963D01*
X91093534Y-83386443D01*
X90937009Y-83302778D01*
X90901271Y-83273448D01*
X90799814Y-83190186D01*
X90716552Y-83088729D01*
X90687222Y-83052991D01*
X90603557Y-82896466D01*
X90552037Y-82726627D01*
X90534641Y-82550000D01*
X90552037Y-82373373D01*
X90603557Y-82203534D01*
X90687222Y-82047009D01*
X90716552Y-82011271D01*
X90799814Y-81909814D01*
X90901271Y-81826552D01*
X90937009Y-81797222D01*
X91093534Y-81713557D01*
X91263373Y-81662037D01*
X91329557Y-81655519D01*
X91395740Y-81649000D01*
X91484260Y-81649000D01*
X91550443Y-81655519D01*
X91550443Y-81655519D01*
G37*
G36*
X94090443Y-81655519D02*
G01*
X94156627Y-81662037D01*
X94326466Y-81713557D01*
X94482991Y-81797222D01*
X94518729Y-81826552D01*
X94620186Y-81909814D01*
X94703448Y-82011271D01*
X94732778Y-82047009D01*
X94816443Y-82203534D01*
X94867963Y-82373373D01*
X94885359Y-82550000D01*
X94867963Y-82726627D01*
X94816443Y-82896466D01*
X94732778Y-83052991D01*
X94703448Y-83088729D01*
X94620186Y-83190186D01*
X94518729Y-83273448D01*
X94482991Y-83302778D01*
X94326466Y-83386443D01*
X94156627Y-83437963D01*
X94090443Y-83444481D01*
X94024260Y-83451000D01*
X93935740Y-83451000D01*
X93869557Y-83444481D01*
X93803373Y-83437963D01*
X93633534Y-83386443D01*
X93477009Y-83302778D01*
X93441271Y-83273448D01*
X93339814Y-83190186D01*
X93256552Y-83088729D01*
X93227222Y-83052991D01*
X93143557Y-82896466D01*
X93092037Y-82726627D01*
X93074641Y-82550000D01*
X93092037Y-82373373D01*
X93143557Y-82203534D01*
X93227222Y-82047009D01*
X93256552Y-82011271D01*
X93339814Y-81909814D01*
X93441271Y-81826552D01*
X93477009Y-81797222D01*
X93633534Y-81713557D01*
X93803373Y-81662037D01*
X93869557Y-81655519D01*
X93935740Y-81649000D01*
X94024260Y-81649000D01*
X94090443Y-81655519D01*
X94090443Y-81655519D01*
G37*
G36*
X94090443Y-79115519D02*
G01*
X94156627Y-79122037D01*
X94326466Y-79173557D01*
X94482991Y-79257222D01*
X94518729Y-79286552D01*
X94620186Y-79369814D01*
X94703448Y-79471271D01*
X94732778Y-79507009D01*
X94816443Y-79663534D01*
X94867963Y-79833373D01*
X94885359Y-80010000D01*
X94867963Y-80186627D01*
X94816443Y-80356466D01*
X94732778Y-80512991D01*
X94703448Y-80548729D01*
X94620186Y-80650186D01*
X94518729Y-80733448D01*
X94482991Y-80762778D01*
X94326466Y-80846443D01*
X94156627Y-80897963D01*
X94090442Y-80904482D01*
X94024260Y-80911000D01*
X93935740Y-80911000D01*
X93869558Y-80904482D01*
X93803373Y-80897963D01*
X93633534Y-80846443D01*
X93477009Y-80762778D01*
X93441271Y-80733448D01*
X93339814Y-80650186D01*
X93256552Y-80548729D01*
X93227222Y-80512991D01*
X93143557Y-80356466D01*
X93092037Y-80186627D01*
X93074641Y-80010000D01*
X93092037Y-79833373D01*
X93143557Y-79663534D01*
X93227222Y-79507009D01*
X93256552Y-79471271D01*
X93339814Y-79369814D01*
X93441271Y-79286552D01*
X93477009Y-79257222D01*
X93633534Y-79173557D01*
X93803373Y-79122037D01*
X93869557Y-79115519D01*
X93935740Y-79109000D01*
X94024260Y-79109000D01*
X94090443Y-79115519D01*
X94090443Y-79115519D01*
G37*
G36*
X102980443Y-79115519D02*
G01*
X103046627Y-79122037D01*
X103216466Y-79173557D01*
X103372991Y-79257222D01*
X103408729Y-79286552D01*
X103510186Y-79369814D01*
X103593448Y-79471271D01*
X103622778Y-79507009D01*
X103706443Y-79663534D01*
X103757963Y-79833373D01*
X103775359Y-80010000D01*
X103757963Y-80186627D01*
X103706443Y-80356466D01*
X103622778Y-80512991D01*
X103593448Y-80548729D01*
X103510186Y-80650186D01*
X103408729Y-80733448D01*
X103372991Y-80762778D01*
X103216466Y-80846443D01*
X103046627Y-80897963D01*
X102980442Y-80904482D01*
X102914260Y-80911000D01*
X102825740Y-80911000D01*
X102759558Y-80904482D01*
X102693373Y-80897963D01*
X102523534Y-80846443D01*
X102367009Y-80762778D01*
X102331271Y-80733448D01*
X102229814Y-80650186D01*
X102146552Y-80548729D01*
X102117222Y-80512991D01*
X102033557Y-80356466D01*
X101982037Y-80186627D01*
X101964641Y-80010000D01*
X101982037Y-79833373D01*
X102033557Y-79663534D01*
X102117222Y-79507009D01*
X102146552Y-79471271D01*
X102229814Y-79369814D01*
X102331271Y-79286552D01*
X102367009Y-79257222D01*
X102523534Y-79173557D01*
X102693373Y-79122037D01*
X102759557Y-79115519D01*
X102825740Y-79109000D01*
X102914260Y-79109000D01*
X102980443Y-79115519D01*
X102980443Y-79115519D01*
G37*
G36*
X91550443Y-79115519D02*
G01*
X91616627Y-79122037D01*
X91786466Y-79173557D01*
X91942991Y-79257222D01*
X91978729Y-79286552D01*
X92080186Y-79369814D01*
X92163448Y-79471271D01*
X92192778Y-79507009D01*
X92276443Y-79663534D01*
X92327963Y-79833373D01*
X92345359Y-80010000D01*
X92327963Y-80186627D01*
X92276443Y-80356466D01*
X92192778Y-80512991D01*
X92163448Y-80548729D01*
X92080186Y-80650186D01*
X91978729Y-80733448D01*
X91942991Y-80762778D01*
X91786466Y-80846443D01*
X91616627Y-80897963D01*
X91550442Y-80904482D01*
X91484260Y-80911000D01*
X91395740Y-80911000D01*
X91329558Y-80904482D01*
X91263373Y-80897963D01*
X91093534Y-80846443D01*
X90937009Y-80762778D01*
X90901271Y-80733448D01*
X90799814Y-80650186D01*
X90716552Y-80548729D01*
X90687222Y-80512991D01*
X90603557Y-80356466D01*
X90552037Y-80186627D01*
X90534641Y-80010000D01*
X90552037Y-79833373D01*
X90603557Y-79663534D01*
X90687222Y-79507009D01*
X90716552Y-79471271D01*
X90799814Y-79369814D01*
X90901271Y-79286552D01*
X90937009Y-79257222D01*
X91093534Y-79173557D01*
X91263373Y-79122037D01*
X91329557Y-79115519D01*
X91395740Y-79109000D01*
X91484260Y-79109000D01*
X91550443Y-79115519D01*
X91550443Y-79115519D01*
G37*
G36*
X100440443Y-79115519D02*
G01*
X100506627Y-79122037D01*
X100676466Y-79173557D01*
X100832991Y-79257222D01*
X100868729Y-79286552D01*
X100970186Y-79369814D01*
X101053448Y-79471271D01*
X101082778Y-79507009D01*
X101166443Y-79663534D01*
X101217963Y-79833373D01*
X101235359Y-80010000D01*
X101217963Y-80186627D01*
X101166443Y-80356466D01*
X101082778Y-80512991D01*
X101053448Y-80548729D01*
X100970186Y-80650186D01*
X100868729Y-80733448D01*
X100832991Y-80762778D01*
X100676466Y-80846443D01*
X100506627Y-80897963D01*
X100440442Y-80904482D01*
X100374260Y-80911000D01*
X100285740Y-80911000D01*
X100219558Y-80904482D01*
X100153373Y-80897963D01*
X99983534Y-80846443D01*
X99827009Y-80762778D01*
X99791271Y-80733448D01*
X99689814Y-80650186D01*
X99606552Y-80548729D01*
X99577222Y-80512991D01*
X99493557Y-80356466D01*
X99442037Y-80186627D01*
X99424641Y-80010000D01*
X99442037Y-79833373D01*
X99493557Y-79663534D01*
X99577222Y-79507009D01*
X99606552Y-79471271D01*
X99689814Y-79369814D01*
X99791271Y-79286552D01*
X99827009Y-79257222D01*
X99983534Y-79173557D01*
X100153373Y-79122037D01*
X100219557Y-79115519D01*
X100285740Y-79109000D01*
X100374260Y-79109000D01*
X100440443Y-79115519D01*
X100440443Y-79115519D01*
G37*
G36*
X100440443Y-76575519D02*
G01*
X100506627Y-76582037D01*
X100676466Y-76633557D01*
X100832991Y-76717222D01*
X100868729Y-76746552D01*
X100970186Y-76829814D01*
X101053448Y-76931271D01*
X101082778Y-76967009D01*
X101166443Y-77123534D01*
X101217963Y-77293373D01*
X101235359Y-77470000D01*
X101217963Y-77646627D01*
X101166443Y-77816466D01*
X101082778Y-77972991D01*
X101053448Y-78008729D01*
X100970186Y-78110186D01*
X100868729Y-78193448D01*
X100832991Y-78222778D01*
X100676466Y-78306443D01*
X100506627Y-78357963D01*
X100440443Y-78364481D01*
X100374260Y-78371000D01*
X100285740Y-78371000D01*
X100219557Y-78364481D01*
X100153373Y-78357963D01*
X99983534Y-78306443D01*
X99827009Y-78222778D01*
X99791271Y-78193448D01*
X99689814Y-78110186D01*
X99606552Y-78008729D01*
X99577222Y-77972991D01*
X99493557Y-77816466D01*
X99442037Y-77646627D01*
X99424641Y-77470000D01*
X99442037Y-77293373D01*
X99493557Y-77123534D01*
X99577222Y-76967009D01*
X99606552Y-76931271D01*
X99689814Y-76829814D01*
X99791271Y-76746552D01*
X99827009Y-76717222D01*
X99983534Y-76633557D01*
X100153373Y-76582037D01*
X100219557Y-76575519D01*
X100285740Y-76569000D01*
X100374260Y-76569000D01*
X100440443Y-76575519D01*
X100440443Y-76575519D01*
G37*
G36*
X102980443Y-76575519D02*
G01*
X103046627Y-76582037D01*
X103216466Y-76633557D01*
X103372991Y-76717222D01*
X103408729Y-76746552D01*
X103510186Y-76829814D01*
X103593448Y-76931271D01*
X103622778Y-76967009D01*
X103706443Y-77123534D01*
X103757963Y-77293373D01*
X103775359Y-77470000D01*
X103757963Y-77646627D01*
X103706443Y-77816466D01*
X103622778Y-77972991D01*
X103593448Y-78008729D01*
X103510186Y-78110186D01*
X103408729Y-78193448D01*
X103372991Y-78222778D01*
X103216466Y-78306443D01*
X103046627Y-78357963D01*
X102980443Y-78364481D01*
X102914260Y-78371000D01*
X102825740Y-78371000D01*
X102759557Y-78364481D01*
X102693373Y-78357963D01*
X102523534Y-78306443D01*
X102367009Y-78222778D01*
X102331271Y-78193448D01*
X102229814Y-78110186D01*
X102146552Y-78008729D01*
X102117222Y-77972991D01*
X102033557Y-77816466D01*
X101982037Y-77646627D01*
X101964641Y-77470000D01*
X101982037Y-77293373D01*
X102033557Y-77123534D01*
X102117222Y-76967009D01*
X102146552Y-76931271D01*
X102229814Y-76829814D01*
X102331271Y-76746552D01*
X102367009Y-76717222D01*
X102523534Y-76633557D01*
X102693373Y-76582037D01*
X102759557Y-76575519D01*
X102825740Y-76569000D01*
X102914260Y-76569000D01*
X102980443Y-76575519D01*
X102980443Y-76575519D01*
G37*
G36*
X94090443Y-76575519D02*
G01*
X94156627Y-76582037D01*
X94326466Y-76633557D01*
X94482991Y-76717222D01*
X94518729Y-76746552D01*
X94620186Y-76829814D01*
X94703448Y-76931271D01*
X94732778Y-76967009D01*
X94816443Y-77123534D01*
X94867963Y-77293373D01*
X94885359Y-77470000D01*
X94867963Y-77646627D01*
X94816443Y-77816466D01*
X94732778Y-77972991D01*
X94703448Y-78008729D01*
X94620186Y-78110186D01*
X94518729Y-78193448D01*
X94482991Y-78222778D01*
X94326466Y-78306443D01*
X94156627Y-78357963D01*
X94090443Y-78364481D01*
X94024260Y-78371000D01*
X93935740Y-78371000D01*
X93869557Y-78364481D01*
X93803373Y-78357963D01*
X93633534Y-78306443D01*
X93477009Y-78222778D01*
X93441271Y-78193448D01*
X93339814Y-78110186D01*
X93256552Y-78008729D01*
X93227222Y-77972991D01*
X93143557Y-77816466D01*
X93092037Y-77646627D01*
X93074641Y-77470000D01*
X93092037Y-77293373D01*
X93143557Y-77123534D01*
X93227222Y-76967009D01*
X93256552Y-76931271D01*
X93339814Y-76829814D01*
X93441271Y-76746552D01*
X93477009Y-76717222D01*
X93633534Y-76633557D01*
X93803373Y-76582037D01*
X93869557Y-76575519D01*
X93935740Y-76569000D01*
X94024260Y-76569000D01*
X94090443Y-76575519D01*
X94090443Y-76575519D01*
G37*
G36*
X91550443Y-76575519D02*
G01*
X91616627Y-76582037D01*
X91786466Y-76633557D01*
X91942991Y-76717222D01*
X91978729Y-76746552D01*
X92080186Y-76829814D01*
X92163448Y-76931271D01*
X92192778Y-76967009D01*
X92276443Y-77123534D01*
X92327963Y-77293373D01*
X92345359Y-77470000D01*
X92327963Y-77646627D01*
X92276443Y-77816466D01*
X92192778Y-77972991D01*
X92163448Y-78008729D01*
X92080186Y-78110186D01*
X91978729Y-78193448D01*
X91942991Y-78222778D01*
X91786466Y-78306443D01*
X91616627Y-78357963D01*
X91550443Y-78364481D01*
X91484260Y-78371000D01*
X91395740Y-78371000D01*
X91329557Y-78364481D01*
X91263373Y-78357963D01*
X91093534Y-78306443D01*
X90937009Y-78222778D01*
X90901271Y-78193448D01*
X90799814Y-78110186D01*
X90716552Y-78008729D01*
X90687222Y-77972991D01*
X90603557Y-77816466D01*
X90552037Y-77646627D01*
X90534641Y-77470000D01*
X90552037Y-77293373D01*
X90603557Y-77123534D01*
X90687222Y-76967009D01*
X90716552Y-76931271D01*
X90799814Y-76829814D01*
X90901271Y-76746552D01*
X90937009Y-76717222D01*
X91093534Y-76633557D01*
X91263373Y-76582037D01*
X91329557Y-76575519D01*
X91395740Y-76569000D01*
X91484260Y-76569000D01*
X91550443Y-76575519D01*
X91550443Y-76575519D01*
G37*
G36*
X102980442Y-74035518D02*
G01*
X103046627Y-74042037D01*
X103216466Y-74093557D01*
X103372991Y-74177222D01*
X103408729Y-74206552D01*
X103510186Y-74289814D01*
X103593448Y-74391271D01*
X103622778Y-74427009D01*
X103706443Y-74583534D01*
X103757963Y-74753373D01*
X103775359Y-74930000D01*
X103757963Y-75106627D01*
X103706443Y-75276466D01*
X103622778Y-75432991D01*
X103593448Y-75468729D01*
X103510186Y-75570186D01*
X103408729Y-75653448D01*
X103372991Y-75682778D01*
X103216466Y-75766443D01*
X103046627Y-75817963D01*
X102980442Y-75824482D01*
X102914260Y-75831000D01*
X102825740Y-75831000D01*
X102759558Y-75824482D01*
X102693373Y-75817963D01*
X102523534Y-75766443D01*
X102367009Y-75682778D01*
X102331271Y-75653448D01*
X102229814Y-75570186D01*
X102146552Y-75468729D01*
X102117222Y-75432991D01*
X102033557Y-75276466D01*
X101982037Y-75106627D01*
X101964641Y-74930000D01*
X101982037Y-74753373D01*
X102033557Y-74583534D01*
X102117222Y-74427009D01*
X102146552Y-74391271D01*
X102229814Y-74289814D01*
X102331271Y-74206552D01*
X102367009Y-74177222D01*
X102523534Y-74093557D01*
X102693373Y-74042037D01*
X102759558Y-74035518D01*
X102825740Y-74029000D01*
X102914260Y-74029000D01*
X102980442Y-74035518D01*
X102980442Y-74035518D01*
G37*
G36*
X91550442Y-74035518D02*
G01*
X91616627Y-74042037D01*
X91786466Y-74093557D01*
X91942991Y-74177222D01*
X91978729Y-74206552D01*
X92080186Y-74289814D01*
X92163448Y-74391271D01*
X92192778Y-74427009D01*
X92276443Y-74583534D01*
X92327963Y-74753373D01*
X92345359Y-74930000D01*
X92327963Y-75106627D01*
X92276443Y-75276466D01*
X92192778Y-75432991D01*
X92163448Y-75468729D01*
X92080186Y-75570186D01*
X91978729Y-75653448D01*
X91942991Y-75682778D01*
X91786466Y-75766443D01*
X91616627Y-75817963D01*
X91550442Y-75824482D01*
X91484260Y-75831000D01*
X91395740Y-75831000D01*
X91329558Y-75824482D01*
X91263373Y-75817963D01*
X91093534Y-75766443D01*
X90937009Y-75682778D01*
X90901271Y-75653448D01*
X90799814Y-75570186D01*
X90716552Y-75468729D01*
X90687222Y-75432991D01*
X90603557Y-75276466D01*
X90552037Y-75106627D01*
X90534641Y-74930000D01*
X90552037Y-74753373D01*
X90603557Y-74583534D01*
X90687222Y-74427009D01*
X90716552Y-74391271D01*
X90799814Y-74289814D01*
X90901271Y-74206552D01*
X90937009Y-74177222D01*
X91093534Y-74093557D01*
X91263373Y-74042037D01*
X91329558Y-74035518D01*
X91395740Y-74029000D01*
X91484260Y-74029000D01*
X91550442Y-74035518D01*
X91550442Y-74035518D01*
G37*
G36*
X94090442Y-74035518D02*
G01*
X94156627Y-74042037D01*
X94326466Y-74093557D01*
X94482991Y-74177222D01*
X94518729Y-74206552D01*
X94620186Y-74289814D01*
X94703448Y-74391271D01*
X94732778Y-74427009D01*
X94816443Y-74583534D01*
X94867963Y-74753373D01*
X94885359Y-74930000D01*
X94867963Y-75106627D01*
X94816443Y-75276466D01*
X94732778Y-75432991D01*
X94703448Y-75468729D01*
X94620186Y-75570186D01*
X94518729Y-75653448D01*
X94482991Y-75682778D01*
X94326466Y-75766443D01*
X94156627Y-75817963D01*
X94090442Y-75824482D01*
X94024260Y-75831000D01*
X93935740Y-75831000D01*
X93869558Y-75824482D01*
X93803373Y-75817963D01*
X93633534Y-75766443D01*
X93477009Y-75682778D01*
X93441271Y-75653448D01*
X93339814Y-75570186D01*
X93256552Y-75468729D01*
X93227222Y-75432991D01*
X93143557Y-75276466D01*
X93092037Y-75106627D01*
X93074641Y-74930000D01*
X93092037Y-74753373D01*
X93143557Y-74583534D01*
X93227222Y-74427009D01*
X93256552Y-74391271D01*
X93339814Y-74289814D01*
X93441271Y-74206552D01*
X93477009Y-74177222D01*
X93633534Y-74093557D01*
X93803373Y-74042037D01*
X93869558Y-74035518D01*
X93935740Y-74029000D01*
X94024260Y-74029000D01*
X94090442Y-74035518D01*
X94090442Y-74035518D01*
G37*
G36*
X100440442Y-74035518D02*
G01*
X100506627Y-74042037D01*
X100676466Y-74093557D01*
X100832991Y-74177222D01*
X100868729Y-74206552D01*
X100970186Y-74289814D01*
X101053448Y-74391271D01*
X101082778Y-74427009D01*
X101166443Y-74583534D01*
X101217963Y-74753373D01*
X101235359Y-74930000D01*
X101217963Y-75106627D01*
X101166443Y-75276466D01*
X101082778Y-75432991D01*
X101053448Y-75468729D01*
X100970186Y-75570186D01*
X100868729Y-75653448D01*
X100832991Y-75682778D01*
X100676466Y-75766443D01*
X100506627Y-75817963D01*
X100440442Y-75824482D01*
X100374260Y-75831000D01*
X100285740Y-75831000D01*
X100219558Y-75824482D01*
X100153373Y-75817963D01*
X99983534Y-75766443D01*
X99827009Y-75682778D01*
X99791271Y-75653448D01*
X99689814Y-75570186D01*
X99606552Y-75468729D01*
X99577222Y-75432991D01*
X99493557Y-75276466D01*
X99442037Y-75106627D01*
X99424641Y-74930000D01*
X99442037Y-74753373D01*
X99493557Y-74583534D01*
X99577222Y-74427009D01*
X99606552Y-74391271D01*
X99689814Y-74289814D01*
X99791271Y-74206552D01*
X99827009Y-74177222D01*
X99983534Y-74093557D01*
X100153373Y-74042037D01*
X100219558Y-74035518D01*
X100285740Y-74029000D01*
X100374260Y-74029000D01*
X100440442Y-74035518D01*
X100440442Y-74035518D01*
G37*
G36*
X100440443Y-71495519D02*
G01*
X100506627Y-71502037D01*
X100676466Y-71553557D01*
X100832991Y-71637222D01*
X100868729Y-71666552D01*
X100970186Y-71749814D01*
X101053448Y-71851271D01*
X101082778Y-71887009D01*
X101166443Y-72043534D01*
X101217963Y-72213373D01*
X101235359Y-72390000D01*
X101217963Y-72566627D01*
X101166443Y-72736466D01*
X101082778Y-72892991D01*
X101053448Y-72928729D01*
X100970186Y-73030186D01*
X100868729Y-73113448D01*
X100832991Y-73142778D01*
X100676466Y-73226443D01*
X100506627Y-73277963D01*
X100440443Y-73284481D01*
X100374260Y-73291000D01*
X100285740Y-73291000D01*
X100219557Y-73284481D01*
X100153373Y-73277963D01*
X99983534Y-73226443D01*
X99827009Y-73142778D01*
X99791271Y-73113448D01*
X99689814Y-73030186D01*
X99606552Y-72928729D01*
X99577222Y-72892991D01*
X99493557Y-72736466D01*
X99442037Y-72566627D01*
X99424641Y-72390000D01*
X99442037Y-72213373D01*
X99493557Y-72043534D01*
X99577222Y-71887009D01*
X99606552Y-71851271D01*
X99689814Y-71749814D01*
X99791271Y-71666552D01*
X99827009Y-71637222D01*
X99983534Y-71553557D01*
X100153373Y-71502037D01*
X100219557Y-71495519D01*
X100285740Y-71489000D01*
X100374260Y-71489000D01*
X100440443Y-71495519D01*
X100440443Y-71495519D01*
G37*
G36*
X102980443Y-71495519D02*
G01*
X103046627Y-71502037D01*
X103216466Y-71553557D01*
X103372991Y-71637222D01*
X103408729Y-71666552D01*
X103510186Y-71749814D01*
X103593448Y-71851271D01*
X103622778Y-71887009D01*
X103706443Y-72043534D01*
X103757963Y-72213373D01*
X103775359Y-72390000D01*
X103757963Y-72566627D01*
X103706443Y-72736466D01*
X103622778Y-72892991D01*
X103593448Y-72928729D01*
X103510186Y-73030186D01*
X103408729Y-73113448D01*
X103372991Y-73142778D01*
X103216466Y-73226443D01*
X103046627Y-73277963D01*
X102980443Y-73284481D01*
X102914260Y-73291000D01*
X102825740Y-73291000D01*
X102759557Y-73284481D01*
X102693373Y-73277963D01*
X102523534Y-73226443D01*
X102367009Y-73142778D01*
X102331271Y-73113448D01*
X102229814Y-73030186D01*
X102146552Y-72928729D01*
X102117222Y-72892991D01*
X102033557Y-72736466D01*
X101982037Y-72566627D01*
X101964641Y-72390000D01*
X101982037Y-72213373D01*
X102033557Y-72043534D01*
X102117222Y-71887009D01*
X102146552Y-71851271D01*
X102229814Y-71749814D01*
X102331271Y-71666552D01*
X102367009Y-71637222D01*
X102523534Y-71553557D01*
X102693373Y-71502037D01*
X102759557Y-71495519D01*
X102825740Y-71489000D01*
X102914260Y-71489000D01*
X102980443Y-71495519D01*
X102980443Y-71495519D01*
G37*
G36*
X94090443Y-71495519D02*
G01*
X94156627Y-71502037D01*
X94326466Y-71553557D01*
X94482991Y-71637222D01*
X94518729Y-71666552D01*
X94620186Y-71749814D01*
X94703448Y-71851271D01*
X94732778Y-71887009D01*
X94816443Y-72043534D01*
X94867963Y-72213373D01*
X94885359Y-72390000D01*
X94867963Y-72566627D01*
X94816443Y-72736466D01*
X94732778Y-72892991D01*
X94703448Y-72928729D01*
X94620186Y-73030186D01*
X94518729Y-73113448D01*
X94482991Y-73142778D01*
X94326466Y-73226443D01*
X94156627Y-73277963D01*
X94090443Y-73284481D01*
X94024260Y-73291000D01*
X93935740Y-73291000D01*
X93869557Y-73284481D01*
X93803373Y-73277963D01*
X93633534Y-73226443D01*
X93477009Y-73142778D01*
X93441271Y-73113448D01*
X93339814Y-73030186D01*
X93256552Y-72928729D01*
X93227222Y-72892991D01*
X93143557Y-72736466D01*
X93092037Y-72566627D01*
X93074641Y-72390000D01*
X93092037Y-72213373D01*
X93143557Y-72043534D01*
X93227222Y-71887009D01*
X93256552Y-71851271D01*
X93339814Y-71749814D01*
X93441271Y-71666552D01*
X93477009Y-71637222D01*
X93633534Y-71553557D01*
X93803373Y-71502037D01*
X93869557Y-71495519D01*
X93935740Y-71489000D01*
X94024260Y-71489000D01*
X94090443Y-71495519D01*
X94090443Y-71495519D01*
G37*
G36*
X91550443Y-71495519D02*
G01*
X91616627Y-71502037D01*
X91786466Y-71553557D01*
X91942991Y-71637222D01*
X91978729Y-71666552D01*
X92080186Y-71749814D01*
X92163448Y-71851271D01*
X92192778Y-71887009D01*
X92276443Y-72043534D01*
X92327963Y-72213373D01*
X92345359Y-72390000D01*
X92327963Y-72566627D01*
X92276443Y-72736466D01*
X92192778Y-72892991D01*
X92163448Y-72928729D01*
X92080186Y-73030186D01*
X91978729Y-73113448D01*
X91942991Y-73142778D01*
X91786466Y-73226443D01*
X91616627Y-73277963D01*
X91550443Y-73284481D01*
X91484260Y-73291000D01*
X91395740Y-73291000D01*
X91329557Y-73284481D01*
X91263373Y-73277963D01*
X91093534Y-73226443D01*
X90937009Y-73142778D01*
X90901271Y-73113448D01*
X90799814Y-73030186D01*
X90716552Y-72928729D01*
X90687222Y-72892991D01*
X90603557Y-72736466D01*
X90552037Y-72566627D01*
X90534641Y-72390000D01*
X90552037Y-72213373D01*
X90603557Y-72043534D01*
X90687222Y-71887009D01*
X90716552Y-71851271D01*
X90799814Y-71749814D01*
X90901271Y-71666552D01*
X90937009Y-71637222D01*
X91093534Y-71553557D01*
X91263373Y-71502037D01*
X91329557Y-71495519D01*
X91395740Y-71489000D01*
X91484260Y-71489000D01*
X91550443Y-71495519D01*
X91550443Y-71495519D01*
G37*
G36*
X102980443Y-68955519D02*
G01*
X103046627Y-68962037D01*
X103216466Y-69013557D01*
X103372991Y-69097222D01*
X103408729Y-69126552D01*
X103510186Y-69209814D01*
X103593448Y-69311271D01*
X103622778Y-69347009D01*
X103706443Y-69503534D01*
X103757963Y-69673373D01*
X103775359Y-69850000D01*
X103757963Y-70026627D01*
X103706443Y-70196466D01*
X103622778Y-70352991D01*
X103593448Y-70388729D01*
X103510186Y-70490186D01*
X103408729Y-70573448D01*
X103372991Y-70602778D01*
X103216466Y-70686443D01*
X103046627Y-70737963D01*
X102980443Y-70744481D01*
X102914260Y-70751000D01*
X102825740Y-70751000D01*
X102759557Y-70744481D01*
X102693373Y-70737963D01*
X102523534Y-70686443D01*
X102367009Y-70602778D01*
X102331271Y-70573448D01*
X102229814Y-70490186D01*
X102146552Y-70388729D01*
X102117222Y-70352991D01*
X102033557Y-70196466D01*
X101982037Y-70026627D01*
X101964641Y-69850000D01*
X101982037Y-69673373D01*
X102033557Y-69503534D01*
X102117222Y-69347009D01*
X102146552Y-69311271D01*
X102229814Y-69209814D01*
X102331271Y-69126552D01*
X102367009Y-69097222D01*
X102523534Y-69013557D01*
X102693373Y-68962037D01*
X102759557Y-68955519D01*
X102825740Y-68949000D01*
X102914260Y-68949000D01*
X102980443Y-68955519D01*
X102980443Y-68955519D01*
G37*
G36*
X100440443Y-68955519D02*
G01*
X100506627Y-68962037D01*
X100676466Y-69013557D01*
X100832991Y-69097222D01*
X100868729Y-69126552D01*
X100970186Y-69209814D01*
X101053448Y-69311271D01*
X101082778Y-69347009D01*
X101166443Y-69503534D01*
X101217963Y-69673373D01*
X101235359Y-69850000D01*
X101217963Y-70026627D01*
X101166443Y-70196466D01*
X101082778Y-70352991D01*
X101053448Y-70388729D01*
X100970186Y-70490186D01*
X100868729Y-70573448D01*
X100832991Y-70602778D01*
X100676466Y-70686443D01*
X100506627Y-70737963D01*
X100440443Y-70744481D01*
X100374260Y-70751000D01*
X100285740Y-70751000D01*
X100219557Y-70744481D01*
X100153373Y-70737963D01*
X99983534Y-70686443D01*
X99827009Y-70602778D01*
X99791271Y-70573448D01*
X99689814Y-70490186D01*
X99606552Y-70388729D01*
X99577222Y-70352991D01*
X99493557Y-70196466D01*
X99442037Y-70026627D01*
X99424641Y-69850000D01*
X99442037Y-69673373D01*
X99493557Y-69503534D01*
X99577222Y-69347009D01*
X99606552Y-69311271D01*
X99689814Y-69209814D01*
X99791271Y-69126552D01*
X99827009Y-69097222D01*
X99983534Y-69013557D01*
X100153373Y-68962037D01*
X100219557Y-68955519D01*
X100285740Y-68949000D01*
X100374260Y-68949000D01*
X100440443Y-68955519D01*
X100440443Y-68955519D01*
G37*
G36*
X91550443Y-68955519D02*
G01*
X91616627Y-68962037D01*
X91786466Y-69013557D01*
X91942991Y-69097222D01*
X91978729Y-69126552D01*
X92080186Y-69209814D01*
X92163448Y-69311271D01*
X92192778Y-69347009D01*
X92276443Y-69503534D01*
X92327963Y-69673373D01*
X92345359Y-69850000D01*
X92327963Y-70026627D01*
X92276443Y-70196466D01*
X92192778Y-70352991D01*
X92163448Y-70388729D01*
X92080186Y-70490186D01*
X91978729Y-70573448D01*
X91942991Y-70602778D01*
X91786466Y-70686443D01*
X91616627Y-70737963D01*
X91550443Y-70744481D01*
X91484260Y-70751000D01*
X91395740Y-70751000D01*
X91329557Y-70744481D01*
X91263373Y-70737963D01*
X91093534Y-70686443D01*
X90937009Y-70602778D01*
X90901271Y-70573448D01*
X90799814Y-70490186D01*
X90716552Y-70388729D01*
X90687222Y-70352991D01*
X90603557Y-70196466D01*
X90552037Y-70026627D01*
X90534641Y-69850000D01*
X90552037Y-69673373D01*
X90603557Y-69503534D01*
X90687222Y-69347009D01*
X90716552Y-69311271D01*
X90799814Y-69209814D01*
X90901271Y-69126552D01*
X90937009Y-69097222D01*
X91093534Y-69013557D01*
X91263373Y-68962037D01*
X91329557Y-68955519D01*
X91395740Y-68949000D01*
X91484260Y-68949000D01*
X91550443Y-68955519D01*
X91550443Y-68955519D01*
G37*
G36*
X94090443Y-68955519D02*
G01*
X94156627Y-68962037D01*
X94326466Y-69013557D01*
X94482991Y-69097222D01*
X94518729Y-69126552D01*
X94620186Y-69209814D01*
X94703448Y-69311271D01*
X94732778Y-69347009D01*
X94816443Y-69503534D01*
X94867963Y-69673373D01*
X94885359Y-69850000D01*
X94867963Y-70026627D01*
X94816443Y-70196466D01*
X94732778Y-70352991D01*
X94703448Y-70388729D01*
X94620186Y-70490186D01*
X94518729Y-70573448D01*
X94482991Y-70602778D01*
X94326466Y-70686443D01*
X94156627Y-70737963D01*
X94090443Y-70744481D01*
X94024260Y-70751000D01*
X93935740Y-70751000D01*
X93869557Y-70744481D01*
X93803373Y-70737963D01*
X93633534Y-70686443D01*
X93477009Y-70602778D01*
X93441271Y-70573448D01*
X93339814Y-70490186D01*
X93256552Y-70388729D01*
X93227222Y-70352991D01*
X93143557Y-70196466D01*
X93092037Y-70026627D01*
X93074641Y-69850000D01*
X93092037Y-69673373D01*
X93143557Y-69503534D01*
X93227222Y-69347009D01*
X93256552Y-69311271D01*
X93339814Y-69209814D01*
X93441271Y-69126552D01*
X93477009Y-69097222D01*
X93633534Y-69013557D01*
X93803373Y-68962037D01*
X93869557Y-68955519D01*
X93935740Y-68949000D01*
X94024260Y-68949000D01*
X94090443Y-68955519D01*
X94090443Y-68955519D01*
G37*
G36*
X100440443Y-66415519D02*
G01*
X100506627Y-66422037D01*
X100676466Y-66473557D01*
X100832991Y-66557222D01*
X100868729Y-66586552D01*
X100970186Y-66669814D01*
X101053448Y-66771271D01*
X101082778Y-66807009D01*
X101166443Y-66963534D01*
X101217963Y-67133373D01*
X101235359Y-67310000D01*
X101217963Y-67486627D01*
X101166443Y-67656466D01*
X101082778Y-67812991D01*
X101053448Y-67848729D01*
X100970186Y-67950186D01*
X100868729Y-68033448D01*
X100832991Y-68062778D01*
X100676466Y-68146443D01*
X100506627Y-68197963D01*
X100440443Y-68204481D01*
X100374260Y-68211000D01*
X100285740Y-68211000D01*
X100219557Y-68204481D01*
X100153373Y-68197963D01*
X99983534Y-68146443D01*
X99827009Y-68062778D01*
X99791271Y-68033448D01*
X99689814Y-67950186D01*
X99606552Y-67848729D01*
X99577222Y-67812991D01*
X99493557Y-67656466D01*
X99442037Y-67486627D01*
X99424641Y-67310000D01*
X99442037Y-67133373D01*
X99493557Y-66963534D01*
X99577222Y-66807009D01*
X99606552Y-66771271D01*
X99689814Y-66669814D01*
X99791271Y-66586552D01*
X99827009Y-66557222D01*
X99983534Y-66473557D01*
X100153373Y-66422037D01*
X100219557Y-66415519D01*
X100285740Y-66409000D01*
X100374260Y-66409000D01*
X100440443Y-66415519D01*
X100440443Y-66415519D01*
G37*
G36*
X102980443Y-66415519D02*
G01*
X103046627Y-66422037D01*
X103216466Y-66473557D01*
X103372991Y-66557222D01*
X103408729Y-66586552D01*
X103510186Y-66669814D01*
X103593448Y-66771271D01*
X103622778Y-66807009D01*
X103706443Y-66963534D01*
X103757963Y-67133373D01*
X103775359Y-67310000D01*
X103757963Y-67486627D01*
X103706443Y-67656466D01*
X103622778Y-67812991D01*
X103593448Y-67848729D01*
X103510186Y-67950186D01*
X103408729Y-68033448D01*
X103372991Y-68062778D01*
X103216466Y-68146443D01*
X103046627Y-68197963D01*
X102980443Y-68204481D01*
X102914260Y-68211000D01*
X102825740Y-68211000D01*
X102759557Y-68204481D01*
X102693373Y-68197963D01*
X102523534Y-68146443D01*
X102367009Y-68062778D01*
X102331271Y-68033448D01*
X102229814Y-67950186D01*
X102146552Y-67848729D01*
X102117222Y-67812991D01*
X102033557Y-67656466D01*
X101982037Y-67486627D01*
X101964641Y-67310000D01*
X101982037Y-67133373D01*
X102033557Y-66963534D01*
X102117222Y-66807009D01*
X102146552Y-66771271D01*
X102229814Y-66669814D01*
X102331271Y-66586552D01*
X102367009Y-66557222D01*
X102523534Y-66473557D01*
X102693373Y-66422037D01*
X102759557Y-66415519D01*
X102825740Y-66409000D01*
X102914260Y-66409000D01*
X102980443Y-66415519D01*
X102980443Y-66415519D01*
G37*
G36*
X94090443Y-66415519D02*
G01*
X94156627Y-66422037D01*
X94326466Y-66473557D01*
X94482991Y-66557222D01*
X94518729Y-66586552D01*
X94620186Y-66669814D01*
X94703448Y-66771271D01*
X94732778Y-66807009D01*
X94816443Y-66963534D01*
X94867963Y-67133373D01*
X94885359Y-67310000D01*
X94867963Y-67486627D01*
X94816443Y-67656466D01*
X94732778Y-67812991D01*
X94703448Y-67848729D01*
X94620186Y-67950186D01*
X94518729Y-68033448D01*
X94482991Y-68062778D01*
X94326466Y-68146443D01*
X94156627Y-68197963D01*
X94090443Y-68204481D01*
X94024260Y-68211000D01*
X93935740Y-68211000D01*
X93869557Y-68204481D01*
X93803373Y-68197963D01*
X93633534Y-68146443D01*
X93477009Y-68062778D01*
X93441271Y-68033448D01*
X93339814Y-67950186D01*
X93256552Y-67848729D01*
X93227222Y-67812991D01*
X93143557Y-67656466D01*
X93092037Y-67486627D01*
X93074641Y-67310000D01*
X93092037Y-67133373D01*
X93143557Y-66963534D01*
X93227222Y-66807009D01*
X93256552Y-66771271D01*
X93339814Y-66669814D01*
X93441271Y-66586552D01*
X93477009Y-66557222D01*
X93633534Y-66473557D01*
X93803373Y-66422037D01*
X93869557Y-66415519D01*
X93935740Y-66409000D01*
X94024260Y-66409000D01*
X94090443Y-66415519D01*
X94090443Y-66415519D01*
G37*
G36*
X91550443Y-66415519D02*
G01*
X91616627Y-66422037D01*
X91786466Y-66473557D01*
X91942991Y-66557222D01*
X91978729Y-66586552D01*
X92080186Y-66669814D01*
X92163448Y-66771271D01*
X92192778Y-66807009D01*
X92276443Y-66963534D01*
X92327963Y-67133373D01*
X92345359Y-67310000D01*
X92327963Y-67486627D01*
X92276443Y-67656466D01*
X92192778Y-67812991D01*
X92163448Y-67848729D01*
X92080186Y-67950186D01*
X91978729Y-68033448D01*
X91942991Y-68062778D01*
X91786466Y-68146443D01*
X91616627Y-68197963D01*
X91550443Y-68204481D01*
X91484260Y-68211000D01*
X91395740Y-68211000D01*
X91329557Y-68204481D01*
X91263373Y-68197963D01*
X91093534Y-68146443D01*
X90937009Y-68062778D01*
X90901271Y-68033448D01*
X90799814Y-67950186D01*
X90716552Y-67848729D01*
X90687222Y-67812991D01*
X90603557Y-67656466D01*
X90552037Y-67486627D01*
X90534641Y-67310000D01*
X90552037Y-67133373D01*
X90603557Y-66963534D01*
X90687222Y-66807009D01*
X90716552Y-66771271D01*
X90799814Y-66669814D01*
X90901271Y-66586552D01*
X90937009Y-66557222D01*
X91093534Y-66473557D01*
X91263373Y-66422037D01*
X91329557Y-66415519D01*
X91395740Y-66409000D01*
X91484260Y-66409000D01*
X91550443Y-66415519D01*
X91550443Y-66415519D01*
G37*
G36*
X103771000Y-65671000D02*
G01*
X101969000Y-65671000D01*
X101969000Y-63869000D01*
X103771000Y-63869000D01*
X103771000Y-65671000D01*
X103771000Y-65671000D01*
G37*
G36*
X100440442Y-63875518D02*
G01*
X100506627Y-63882037D01*
X100676466Y-63933557D01*
X100832991Y-64017222D01*
X100868729Y-64046552D01*
X100970186Y-64129814D01*
X101053448Y-64231271D01*
X101082778Y-64267009D01*
X101166443Y-64423534D01*
X101217963Y-64593373D01*
X101235359Y-64770000D01*
X101217963Y-64946627D01*
X101166443Y-65116466D01*
X101082778Y-65272991D01*
X101053448Y-65308729D01*
X100970186Y-65410186D01*
X100868729Y-65493448D01*
X100832991Y-65522778D01*
X100676466Y-65606443D01*
X100506627Y-65657963D01*
X100440442Y-65664482D01*
X100374260Y-65671000D01*
X100285740Y-65671000D01*
X100219558Y-65664482D01*
X100153373Y-65657963D01*
X99983534Y-65606443D01*
X99827009Y-65522778D01*
X99791271Y-65493448D01*
X99689814Y-65410186D01*
X99606552Y-65308729D01*
X99577222Y-65272991D01*
X99493557Y-65116466D01*
X99442037Y-64946627D01*
X99424641Y-64770000D01*
X99442037Y-64593373D01*
X99493557Y-64423534D01*
X99577222Y-64267009D01*
X99606552Y-64231271D01*
X99689814Y-64129814D01*
X99791271Y-64046552D01*
X99827009Y-64017222D01*
X99983534Y-63933557D01*
X100153373Y-63882037D01*
X100219558Y-63875518D01*
X100285740Y-63869000D01*
X100374260Y-63869000D01*
X100440442Y-63875518D01*
X100440442Y-63875518D01*
G37*
G36*
X94090442Y-63875518D02*
G01*
X94156627Y-63882037D01*
X94326466Y-63933557D01*
X94482991Y-64017222D01*
X94518729Y-64046552D01*
X94620186Y-64129814D01*
X94703448Y-64231271D01*
X94732778Y-64267009D01*
X94816443Y-64423534D01*
X94867963Y-64593373D01*
X94885359Y-64770000D01*
X94867963Y-64946627D01*
X94816443Y-65116466D01*
X94732778Y-65272991D01*
X94703448Y-65308729D01*
X94620186Y-65410186D01*
X94518729Y-65493448D01*
X94482991Y-65522778D01*
X94326466Y-65606443D01*
X94156627Y-65657963D01*
X94090442Y-65664482D01*
X94024260Y-65671000D01*
X93935740Y-65671000D01*
X93869558Y-65664482D01*
X93803373Y-65657963D01*
X93633534Y-65606443D01*
X93477009Y-65522778D01*
X93441271Y-65493448D01*
X93339814Y-65410186D01*
X93256552Y-65308729D01*
X93227222Y-65272991D01*
X93143557Y-65116466D01*
X93092037Y-64946627D01*
X93074641Y-64770000D01*
X93092037Y-64593373D01*
X93143557Y-64423534D01*
X93227222Y-64267009D01*
X93256552Y-64231271D01*
X93339814Y-64129814D01*
X93441271Y-64046552D01*
X93477009Y-64017222D01*
X93633534Y-63933557D01*
X93803373Y-63882037D01*
X93869558Y-63875518D01*
X93935740Y-63869000D01*
X94024260Y-63869000D01*
X94090442Y-63875518D01*
X94090442Y-63875518D01*
G37*
G36*
X92341000Y-65671000D02*
G01*
X90539000Y-65671000D01*
X90539000Y-63869000D01*
X92341000Y-63869000D01*
X92341000Y-65671000D01*
X92341000Y-65671000D01*
G37*
M02*
