G04 #@! TF.GenerationSoftware,KiCad,Pcbnew,(5.1.2)-2*
G04 #@! TF.CreationDate,2019-06-27T20:54:23+09:00*
G04 #@! TF.ProjectId,itg_uturn_adapter,6974675f-7574-4757-926e-5f6164617074,rev?*
G04 #@! TF.SameCoordinates,Original*
G04 #@! TF.FileFunction,Copper,L2,Bot*
G04 #@! TF.FilePolarity,Positive*
%FSLAX46Y46*%
G04 Gerber Fmt 4.6, Leading zero omitted, Abs format (unit mm)*
G04 Created by KiCad (PCBNEW (5.1.2)-2) date 2019-06-27 20:54:23*
%MOMM*%
%LPD*%
G04 APERTURE LIST*
%ADD10R,1.700000X1.700000*%
%ADD11O,1.700000X1.700000*%
%ADD12C,0.250000*%
%ADD13C,1.000000*%
%ADD14C,0.254000*%
G04 APERTURE END LIST*
D10*
X104140000Y-64770000D03*
D11*
X101600000Y-64770000D03*
X104140000Y-67310000D03*
X101600000Y-67310000D03*
X104140000Y-69850000D03*
X101600000Y-69850000D03*
X104140000Y-72390000D03*
X101600000Y-72390000D03*
X104140000Y-74930000D03*
X101600000Y-74930000D03*
X104140000Y-77470000D03*
X101600000Y-77470000D03*
X104140000Y-80010000D03*
X101600000Y-80010000D03*
X104140000Y-82550000D03*
X101600000Y-82550000D03*
X104140000Y-85090000D03*
X101600000Y-85090000D03*
X104140000Y-87630000D03*
X101600000Y-87630000D03*
X104140000Y-90170000D03*
X101600000Y-90170000D03*
X104140000Y-92710000D03*
X101600000Y-92710000D03*
X104140000Y-95250000D03*
X101600000Y-95250000D03*
X104140000Y-97790000D03*
X101600000Y-97790000D03*
X104140000Y-100330000D03*
X101600000Y-100330000D03*
X104140000Y-102870000D03*
X101600000Y-102870000D03*
X104140000Y-105410000D03*
X101600000Y-105410000D03*
X104140000Y-107950000D03*
X101600000Y-107950000D03*
X104140000Y-110490000D03*
X101600000Y-110490000D03*
X104140000Y-113030000D03*
X101600000Y-113030000D03*
D10*
X91440000Y-64770000D03*
D11*
X93980000Y-64770000D03*
X91440000Y-67310000D03*
X93980000Y-67310000D03*
X91440000Y-69850000D03*
X93980000Y-69850000D03*
X91440000Y-72390000D03*
X93980000Y-72390000D03*
X91440000Y-74930000D03*
X93980000Y-74930000D03*
X91440000Y-77470000D03*
X93980000Y-77470000D03*
X91440000Y-80010000D03*
X93980000Y-80010000D03*
X91440000Y-82550000D03*
X93980000Y-82550000D03*
X91440000Y-85090000D03*
X93980000Y-85090000D03*
X91440000Y-87630000D03*
X93980000Y-87630000D03*
X91440000Y-90170000D03*
X93980000Y-90170000D03*
X91440000Y-92710000D03*
X93980000Y-92710000D03*
X91440000Y-95250000D03*
X93980000Y-95250000D03*
X91440000Y-97790000D03*
X93980000Y-97790000D03*
X91440000Y-100330000D03*
X93980000Y-100330000D03*
X91440000Y-102870000D03*
X93980000Y-102870000D03*
X91440000Y-105410000D03*
X93980000Y-105410000D03*
X91440000Y-107950000D03*
X93980000Y-107950000D03*
X91440000Y-110490000D03*
X93980000Y-110490000D03*
X91440000Y-113030000D03*
X93980000Y-113030000D03*
D12*
X93980000Y-67310000D02*
X96520000Y-67310000D01*
X99060000Y-64770000D02*
X101600000Y-64770000D01*
X96520000Y-67310000D02*
X99060000Y-64770000D01*
X102870000Y-68580000D02*
X104140000Y-69850000D01*
X92710000Y-66040000D02*
X91440000Y-67310000D01*
X92710000Y-66040000D02*
X92710000Y-64135000D01*
X92710000Y-64135000D02*
X93345000Y-63500000D01*
X93345000Y-63500000D02*
X102235000Y-63500000D01*
X102235000Y-63500000D02*
X102870000Y-64135000D01*
X102870000Y-64135000D02*
X102870000Y-68580000D01*
X91440000Y-69850000D02*
X92710000Y-68580000D01*
X92710000Y-68580000D02*
X100330000Y-68580000D01*
X100330000Y-68580000D02*
X101600000Y-69850000D01*
X93980000Y-69850000D02*
X99060000Y-69850000D01*
X99060000Y-69850000D02*
X100330000Y-71120000D01*
X100330000Y-71120000D02*
X102870000Y-71120000D01*
X102870000Y-71120000D02*
X104140000Y-72390000D01*
X91440000Y-72390000D02*
X92710000Y-71120000D01*
X92710000Y-71120000D02*
X97790000Y-71120000D01*
X97790000Y-71120000D02*
X99060000Y-72390000D01*
X99060000Y-72390000D02*
X101600000Y-72390000D01*
X93980000Y-72390000D02*
X96520000Y-72390000D01*
X96520000Y-72390000D02*
X97790000Y-73660000D01*
X97790000Y-73660000D02*
X102870000Y-73660000D01*
X102870000Y-73660000D02*
X104140000Y-74930000D01*
X91440000Y-74930000D02*
X92710000Y-73660000D01*
X92710000Y-73660000D02*
X95250000Y-73660000D01*
X95250000Y-73660000D02*
X96520000Y-74930000D01*
X96520000Y-74930000D02*
X101600000Y-74930000D01*
D13*
X91440000Y-77470000D02*
X90170000Y-77470000D01*
X90170000Y-77470000D02*
X89535000Y-76835000D01*
X89535000Y-76835000D02*
X89535000Y-62865000D01*
X89535000Y-62865000D02*
X90170000Y-62230000D01*
X90170000Y-62230000D02*
X105410000Y-62230000D01*
X105410000Y-62230000D02*
X106045000Y-62865000D01*
X106045000Y-62865000D02*
X106045000Y-76835000D01*
X106045000Y-76835000D02*
X105410000Y-77470000D01*
X105410000Y-77470000D02*
X104140000Y-77470000D01*
X91440000Y-87630000D02*
X89535000Y-87630000D01*
X95250000Y-90170000D02*
X93980000Y-90170000D01*
X93980000Y-100330000D02*
X95885000Y-100330000D01*
X101600000Y-100330000D02*
X99695000Y-100330000D01*
X93980000Y-92710000D02*
X97155000Y-92710000D01*
X93980000Y-105410000D02*
X97155000Y-105410000D01*
X93980000Y-113030000D02*
X97155000Y-113030000D01*
X101600000Y-77470000D02*
X99695000Y-77470000D01*
X99695000Y-77470000D02*
X101845998Y-77470000D01*
X93980000Y-64770000D02*
X96520000Y-64770000D01*
D12*
X102870000Y-78740000D02*
X104140000Y-80010000D01*
X99060000Y-78740000D02*
X102870000Y-78740000D01*
X93980000Y-74930000D02*
X95250000Y-74930000D01*
X95250000Y-74930000D02*
X99060000Y-78740000D01*
X93980000Y-77470000D02*
X95250000Y-77470000D01*
X95250000Y-77470000D02*
X97790000Y-80010000D01*
X97790000Y-80010000D02*
X101600000Y-80010000D01*
X104140000Y-82550000D02*
X102870000Y-81280000D01*
X102870000Y-81280000D02*
X97790000Y-81280000D01*
X97790000Y-81280000D02*
X95250000Y-78740000D01*
X95250000Y-78740000D02*
X92710000Y-78740000D01*
X92710000Y-78740000D02*
X91440000Y-80010000D01*
X93980000Y-80010000D02*
X95250000Y-80010000D01*
X95250000Y-80010000D02*
X97790000Y-82550000D01*
X97790000Y-82550000D02*
X101600000Y-82550000D01*
X91440000Y-82550000D02*
X92710000Y-81280000D01*
X92710000Y-81280000D02*
X95250000Y-81280000D01*
X95250000Y-81280000D02*
X97790000Y-83820000D01*
X97790000Y-83820000D02*
X102870000Y-83820000D01*
X102870000Y-83820000D02*
X104140000Y-85090000D01*
X93980000Y-82550000D02*
X95250000Y-82550000D01*
X95250000Y-82550000D02*
X97790000Y-85090000D01*
X97790000Y-85090000D02*
X101600000Y-85090000D01*
X91440000Y-85090000D02*
X92710000Y-83820000D01*
X92710000Y-83820000D02*
X95250000Y-83820000D01*
X95250000Y-83820000D02*
X100330000Y-88900000D01*
X100330000Y-88900000D02*
X102870000Y-88900000D01*
X102870000Y-88900000D02*
X104140000Y-90170000D01*
X93980000Y-85090000D02*
X95250000Y-85090000D01*
X95250000Y-85090000D02*
X100330000Y-90170000D01*
X100330000Y-90170000D02*
X101600000Y-90170000D01*
X91440000Y-92710000D02*
X92710000Y-93980000D01*
X92710000Y-93980000D02*
X102870000Y-93980000D01*
X102870000Y-93980000D02*
X104140000Y-92710000D01*
X91440000Y-90170000D02*
X92710000Y-91440000D01*
X92710000Y-91440000D02*
X100330000Y-91440000D01*
X100330000Y-91440000D02*
X101600000Y-92710000D01*
X101600000Y-95250000D02*
X96520000Y-95250000D01*
X96520000Y-95250000D02*
X95250000Y-96520000D01*
X95250000Y-96520000D02*
X92710000Y-96520000D01*
X92710000Y-96520000D02*
X91440000Y-97790000D01*
X93980000Y-97790000D02*
X96520000Y-97790000D01*
X96520000Y-97790000D02*
X97790000Y-96520000D01*
X97790000Y-96520000D02*
X102870000Y-96520000D01*
X102870000Y-96520000D02*
X104140000Y-97790000D01*
X101600000Y-97790000D02*
X99060000Y-97790000D01*
X99060000Y-97790000D02*
X97790000Y-99060000D01*
X97790000Y-99060000D02*
X92710000Y-99060000D01*
X92710000Y-99060000D02*
X91440000Y-100330000D01*
X91440000Y-102870000D02*
X92710000Y-104140000D01*
X92710000Y-104140000D02*
X102870000Y-104140000D01*
X102870000Y-104140000D02*
X104140000Y-102870000D01*
X93980000Y-102870000D02*
X101600000Y-102870000D01*
X91440000Y-105410000D02*
X92710000Y-106680000D01*
X92710000Y-106680000D02*
X102870000Y-106680000D01*
X102870000Y-106680000D02*
X104140000Y-105410000D01*
X91440000Y-107950000D02*
X92710000Y-109220000D01*
X92710000Y-109220000D02*
X102870000Y-109220000D01*
X102870000Y-109220000D02*
X104140000Y-107950000D01*
X93980000Y-107950000D02*
X101600000Y-107950000D01*
X91440000Y-110490000D02*
X92710000Y-111760000D01*
X92710000Y-111760000D02*
X102870000Y-111760000D01*
X102870000Y-111760000D02*
X104140000Y-110490000D01*
X93980000Y-110490000D02*
X101600000Y-110490000D01*
X104140000Y-114300000D02*
X104140000Y-113030000D01*
X91440000Y-113030000D02*
X91440000Y-114300000D01*
X92075000Y-114935000D02*
X103505000Y-114935000D01*
X103505000Y-114935000D02*
X104140000Y-114300000D01*
X91440000Y-114300000D02*
X92075000Y-114935000D01*
D14*
G36*
X107188000Y-117348000D02*
G01*
X88392000Y-117348000D01*
X88392000Y-62865000D01*
X88394509Y-62865000D01*
X88400001Y-62920761D01*
X88400000Y-76779249D01*
X88394509Y-76835000D01*
X88400000Y-76890751D01*
X88416423Y-77057498D01*
X88481324Y-77271446D01*
X88586716Y-77468623D01*
X88728551Y-77641449D01*
X88771864Y-77676995D01*
X89328008Y-78233140D01*
X89363551Y-78276449D01*
X89536377Y-78418284D01*
X89733553Y-78523676D01*
X89947501Y-78588577D01*
X89972245Y-78591014D01*
X90170000Y-78610491D01*
X90225752Y-78605000D01*
X90482183Y-78605000D01*
X90610986Y-78710706D01*
X90665791Y-78740000D01*
X90610986Y-78769294D01*
X90384866Y-78954866D01*
X90199294Y-79180986D01*
X90061401Y-79438966D01*
X89976487Y-79718889D01*
X89947815Y-80010000D01*
X89976487Y-80301111D01*
X90061401Y-80581034D01*
X90199294Y-80839014D01*
X90384866Y-81065134D01*
X90610986Y-81250706D01*
X90665791Y-81280000D01*
X90610986Y-81309294D01*
X90384866Y-81494866D01*
X90199294Y-81720986D01*
X90061401Y-81978966D01*
X89976487Y-82258889D01*
X89947815Y-82550000D01*
X89976487Y-82841111D01*
X90061401Y-83121034D01*
X90199294Y-83379014D01*
X90384866Y-83605134D01*
X90610986Y-83790706D01*
X90665791Y-83820000D01*
X90610986Y-83849294D01*
X90384866Y-84034866D01*
X90199294Y-84260986D01*
X90061401Y-84518966D01*
X89976487Y-84798889D01*
X89947815Y-85090000D01*
X89976487Y-85381111D01*
X90061401Y-85661034D01*
X90199294Y-85919014D01*
X90384866Y-86145134D01*
X90610986Y-86330706D01*
X90675523Y-86365201D01*
X90558645Y-86434822D01*
X90342412Y-86629731D01*
X90168359Y-86863080D01*
X90043175Y-87125901D01*
X89998524Y-87273110D01*
X90119845Y-87503000D01*
X91313000Y-87503000D01*
X91313000Y-87483000D01*
X91567000Y-87483000D01*
X91567000Y-87503000D01*
X91587000Y-87503000D01*
X91587000Y-87757000D01*
X91567000Y-87757000D01*
X91567000Y-87777000D01*
X91313000Y-87777000D01*
X91313000Y-87757000D01*
X90119845Y-87757000D01*
X89998524Y-87986890D01*
X90043175Y-88134099D01*
X90168359Y-88396920D01*
X90342412Y-88630269D01*
X90558645Y-88825178D01*
X90675523Y-88894799D01*
X90610986Y-88929294D01*
X90384866Y-89114866D01*
X90199294Y-89340986D01*
X90061401Y-89598966D01*
X89976487Y-89878889D01*
X89947815Y-90170000D01*
X89976487Y-90461111D01*
X90061401Y-90741034D01*
X90199294Y-90999014D01*
X90384866Y-91225134D01*
X90610986Y-91410706D01*
X90665791Y-91440000D01*
X90610986Y-91469294D01*
X90384866Y-91654866D01*
X90199294Y-91880986D01*
X90061401Y-92138966D01*
X89976487Y-92418889D01*
X89947815Y-92710000D01*
X89976487Y-93001111D01*
X90061401Y-93281034D01*
X90199294Y-93539014D01*
X90384866Y-93765134D01*
X90610986Y-93950706D01*
X90665791Y-93980000D01*
X90610986Y-94009294D01*
X90384866Y-94194866D01*
X90199294Y-94420986D01*
X90061401Y-94678966D01*
X89976487Y-94958889D01*
X89947815Y-95250000D01*
X89976487Y-95541111D01*
X90061401Y-95821034D01*
X90199294Y-96079014D01*
X90384866Y-96305134D01*
X90610986Y-96490706D01*
X90665791Y-96520000D01*
X90610986Y-96549294D01*
X90384866Y-96734866D01*
X90199294Y-96960986D01*
X90061401Y-97218966D01*
X89976487Y-97498889D01*
X89947815Y-97790000D01*
X89976487Y-98081111D01*
X90061401Y-98361034D01*
X90199294Y-98619014D01*
X90384866Y-98845134D01*
X90610986Y-99030706D01*
X90665791Y-99060000D01*
X90610986Y-99089294D01*
X90384866Y-99274866D01*
X90199294Y-99500986D01*
X90061401Y-99758966D01*
X89976487Y-100038889D01*
X89947815Y-100330000D01*
X89976487Y-100621111D01*
X90061401Y-100901034D01*
X90199294Y-101159014D01*
X90384866Y-101385134D01*
X90610986Y-101570706D01*
X90665791Y-101600000D01*
X90610986Y-101629294D01*
X90384866Y-101814866D01*
X90199294Y-102040986D01*
X90061401Y-102298966D01*
X89976487Y-102578889D01*
X89947815Y-102870000D01*
X89976487Y-103161111D01*
X90061401Y-103441034D01*
X90199294Y-103699014D01*
X90384866Y-103925134D01*
X90610986Y-104110706D01*
X90665791Y-104140000D01*
X90610986Y-104169294D01*
X90384866Y-104354866D01*
X90199294Y-104580986D01*
X90061401Y-104838966D01*
X89976487Y-105118889D01*
X89947815Y-105410000D01*
X89976487Y-105701111D01*
X90061401Y-105981034D01*
X90199294Y-106239014D01*
X90384866Y-106465134D01*
X90610986Y-106650706D01*
X90665791Y-106680000D01*
X90610986Y-106709294D01*
X90384866Y-106894866D01*
X90199294Y-107120986D01*
X90061401Y-107378966D01*
X89976487Y-107658889D01*
X89947815Y-107950000D01*
X89976487Y-108241111D01*
X90061401Y-108521034D01*
X90199294Y-108779014D01*
X90384866Y-109005134D01*
X90610986Y-109190706D01*
X90665791Y-109220000D01*
X90610986Y-109249294D01*
X90384866Y-109434866D01*
X90199294Y-109660986D01*
X90061401Y-109918966D01*
X89976487Y-110198889D01*
X89947815Y-110490000D01*
X89976487Y-110781111D01*
X90061401Y-111061034D01*
X90199294Y-111319014D01*
X90384866Y-111545134D01*
X90610986Y-111730706D01*
X90665791Y-111760000D01*
X90610986Y-111789294D01*
X90384866Y-111974866D01*
X90199294Y-112200986D01*
X90061401Y-112458966D01*
X89976487Y-112738889D01*
X89947815Y-113030000D01*
X89976487Y-113321111D01*
X90061401Y-113601034D01*
X90199294Y-113859014D01*
X90384866Y-114085134D01*
X90610986Y-114270706D01*
X90676909Y-114305943D01*
X90690998Y-114448985D01*
X90734454Y-114592246D01*
X90805026Y-114724276D01*
X90876201Y-114811002D01*
X90900000Y-114840001D01*
X90928998Y-114863799D01*
X91511200Y-115446002D01*
X91534999Y-115475001D01*
X91563997Y-115498799D01*
X91650724Y-115569974D01*
X91782753Y-115640546D01*
X91926014Y-115684003D01*
X92075000Y-115698677D01*
X92112333Y-115695000D01*
X103467678Y-115695000D01*
X103505000Y-115698676D01*
X103542322Y-115695000D01*
X103542333Y-115695000D01*
X103653986Y-115684003D01*
X103797247Y-115640546D01*
X103929276Y-115569974D01*
X104045001Y-115475001D01*
X104068803Y-115445998D01*
X104651004Y-114863798D01*
X104680001Y-114840001D01*
X104774974Y-114724276D01*
X104845546Y-114592247D01*
X104889003Y-114448986D01*
X104900000Y-114337333D01*
X104900000Y-114337332D01*
X104903092Y-114305942D01*
X104969014Y-114270706D01*
X105195134Y-114085134D01*
X105380706Y-113859014D01*
X105518599Y-113601034D01*
X105603513Y-113321111D01*
X105632185Y-113030000D01*
X105603513Y-112738889D01*
X105518599Y-112458966D01*
X105380706Y-112200986D01*
X105195134Y-111974866D01*
X104969014Y-111789294D01*
X104914209Y-111760000D01*
X104969014Y-111730706D01*
X105195134Y-111545134D01*
X105380706Y-111319014D01*
X105518599Y-111061034D01*
X105603513Y-110781111D01*
X105632185Y-110490000D01*
X105603513Y-110198889D01*
X105518599Y-109918966D01*
X105380706Y-109660986D01*
X105195134Y-109434866D01*
X104969014Y-109249294D01*
X104914209Y-109220000D01*
X104969014Y-109190706D01*
X105195134Y-109005134D01*
X105380706Y-108779014D01*
X105518599Y-108521034D01*
X105603513Y-108241111D01*
X105632185Y-107950000D01*
X105603513Y-107658889D01*
X105518599Y-107378966D01*
X105380706Y-107120986D01*
X105195134Y-106894866D01*
X104969014Y-106709294D01*
X104914209Y-106680000D01*
X104969014Y-106650706D01*
X105195134Y-106465134D01*
X105380706Y-106239014D01*
X105518599Y-105981034D01*
X105603513Y-105701111D01*
X105632185Y-105410000D01*
X105603513Y-105118889D01*
X105518599Y-104838966D01*
X105380706Y-104580986D01*
X105195134Y-104354866D01*
X104969014Y-104169294D01*
X104914209Y-104140000D01*
X104969014Y-104110706D01*
X105195134Y-103925134D01*
X105380706Y-103699014D01*
X105518599Y-103441034D01*
X105603513Y-103161111D01*
X105632185Y-102870000D01*
X105603513Y-102578889D01*
X105518599Y-102298966D01*
X105380706Y-102040986D01*
X105195134Y-101814866D01*
X104969014Y-101629294D01*
X104914209Y-101600000D01*
X104969014Y-101570706D01*
X105195134Y-101385134D01*
X105380706Y-101159014D01*
X105518599Y-100901034D01*
X105603513Y-100621111D01*
X105632185Y-100330000D01*
X105603513Y-100038889D01*
X105518599Y-99758966D01*
X105380706Y-99500986D01*
X105195134Y-99274866D01*
X104969014Y-99089294D01*
X104914209Y-99060000D01*
X104969014Y-99030706D01*
X105195134Y-98845134D01*
X105380706Y-98619014D01*
X105518599Y-98361034D01*
X105603513Y-98081111D01*
X105632185Y-97790000D01*
X105603513Y-97498889D01*
X105518599Y-97218966D01*
X105380706Y-96960986D01*
X105195134Y-96734866D01*
X104969014Y-96549294D01*
X104914209Y-96520000D01*
X104969014Y-96490706D01*
X105195134Y-96305134D01*
X105380706Y-96079014D01*
X105518599Y-95821034D01*
X105603513Y-95541111D01*
X105632185Y-95250000D01*
X105603513Y-94958889D01*
X105518599Y-94678966D01*
X105380706Y-94420986D01*
X105195134Y-94194866D01*
X104969014Y-94009294D01*
X104914209Y-93980000D01*
X104969014Y-93950706D01*
X105195134Y-93765134D01*
X105380706Y-93539014D01*
X105518599Y-93281034D01*
X105603513Y-93001111D01*
X105632185Y-92710000D01*
X105603513Y-92418889D01*
X105518599Y-92138966D01*
X105380706Y-91880986D01*
X105195134Y-91654866D01*
X104969014Y-91469294D01*
X104914209Y-91440000D01*
X104969014Y-91410706D01*
X105195134Y-91225134D01*
X105380706Y-90999014D01*
X105518599Y-90741034D01*
X105603513Y-90461111D01*
X105632185Y-90170000D01*
X105603513Y-89878889D01*
X105518599Y-89598966D01*
X105380706Y-89340986D01*
X105195134Y-89114866D01*
X104969014Y-88929294D01*
X104914209Y-88900000D01*
X104969014Y-88870706D01*
X105195134Y-88685134D01*
X105380706Y-88459014D01*
X105518599Y-88201034D01*
X105603513Y-87921111D01*
X105632185Y-87630000D01*
X105603513Y-87338889D01*
X105518599Y-87058966D01*
X105380706Y-86800986D01*
X105195134Y-86574866D01*
X104969014Y-86389294D01*
X104914209Y-86360000D01*
X104969014Y-86330706D01*
X105195134Y-86145134D01*
X105380706Y-85919014D01*
X105518599Y-85661034D01*
X105603513Y-85381111D01*
X105632185Y-85090000D01*
X105603513Y-84798889D01*
X105518599Y-84518966D01*
X105380706Y-84260986D01*
X105195134Y-84034866D01*
X104969014Y-83849294D01*
X104914209Y-83820000D01*
X104969014Y-83790706D01*
X105195134Y-83605134D01*
X105380706Y-83379014D01*
X105518599Y-83121034D01*
X105603513Y-82841111D01*
X105632185Y-82550000D01*
X105603513Y-82258889D01*
X105518599Y-81978966D01*
X105380706Y-81720986D01*
X105195134Y-81494866D01*
X104969014Y-81309294D01*
X104914209Y-81280000D01*
X104969014Y-81250706D01*
X105195134Y-81065134D01*
X105380706Y-80839014D01*
X105518599Y-80581034D01*
X105603513Y-80301111D01*
X105632185Y-80010000D01*
X105603513Y-79718889D01*
X105518599Y-79438966D01*
X105380706Y-79180986D01*
X105195134Y-78954866D01*
X104969014Y-78769294D01*
X104914209Y-78740000D01*
X104969014Y-78710706D01*
X105097817Y-78605000D01*
X105354249Y-78605000D01*
X105410000Y-78610491D01*
X105465751Y-78605000D01*
X105465752Y-78605000D01*
X105632499Y-78588577D01*
X105846447Y-78523676D01*
X106043623Y-78418284D01*
X106216449Y-78276449D01*
X106251995Y-78233136D01*
X106808140Y-77676992D01*
X106851449Y-77641449D01*
X106993284Y-77468623D01*
X107098676Y-77271447D01*
X107163577Y-77057499D01*
X107180000Y-76890752D01*
X107180000Y-76890751D01*
X107185491Y-76835000D01*
X107180000Y-76779248D01*
X107180000Y-62920752D01*
X107185491Y-62865000D01*
X107163577Y-62642501D01*
X107098676Y-62428553D01*
X106993284Y-62231377D01*
X106886989Y-62101857D01*
X106851449Y-62058551D01*
X106808140Y-62023008D01*
X106251995Y-61466864D01*
X106216449Y-61423551D01*
X106043623Y-61281716D01*
X105846447Y-61176324D01*
X105632499Y-61111423D01*
X105465752Y-61095000D01*
X105465751Y-61095000D01*
X105410000Y-61089509D01*
X105354249Y-61095000D01*
X90225752Y-61095000D01*
X90170000Y-61089509D01*
X90114248Y-61095000D01*
X89947501Y-61111423D01*
X89733553Y-61176324D01*
X89536377Y-61281716D01*
X89363551Y-61423551D01*
X89328008Y-61466860D01*
X88771860Y-62023009D01*
X88728552Y-62058551D01*
X88586717Y-62231377D01*
X88530384Y-62336770D01*
X88481324Y-62428554D01*
X88416423Y-62642502D01*
X88394509Y-62865000D01*
X88392000Y-62865000D01*
X88392000Y-60452000D01*
X107188000Y-60452000D01*
X107188000Y-117348000D01*
X107188000Y-117348000D01*
G37*
X107188000Y-117348000D02*
X88392000Y-117348000D01*
X88392000Y-62865000D01*
X88394509Y-62865000D01*
X88400001Y-62920761D01*
X88400000Y-76779249D01*
X88394509Y-76835000D01*
X88400000Y-76890751D01*
X88416423Y-77057498D01*
X88481324Y-77271446D01*
X88586716Y-77468623D01*
X88728551Y-77641449D01*
X88771864Y-77676995D01*
X89328008Y-78233140D01*
X89363551Y-78276449D01*
X89536377Y-78418284D01*
X89733553Y-78523676D01*
X89947501Y-78588577D01*
X89972245Y-78591014D01*
X90170000Y-78610491D01*
X90225752Y-78605000D01*
X90482183Y-78605000D01*
X90610986Y-78710706D01*
X90665791Y-78740000D01*
X90610986Y-78769294D01*
X90384866Y-78954866D01*
X90199294Y-79180986D01*
X90061401Y-79438966D01*
X89976487Y-79718889D01*
X89947815Y-80010000D01*
X89976487Y-80301111D01*
X90061401Y-80581034D01*
X90199294Y-80839014D01*
X90384866Y-81065134D01*
X90610986Y-81250706D01*
X90665791Y-81280000D01*
X90610986Y-81309294D01*
X90384866Y-81494866D01*
X90199294Y-81720986D01*
X90061401Y-81978966D01*
X89976487Y-82258889D01*
X89947815Y-82550000D01*
X89976487Y-82841111D01*
X90061401Y-83121034D01*
X90199294Y-83379014D01*
X90384866Y-83605134D01*
X90610986Y-83790706D01*
X90665791Y-83820000D01*
X90610986Y-83849294D01*
X90384866Y-84034866D01*
X90199294Y-84260986D01*
X90061401Y-84518966D01*
X89976487Y-84798889D01*
X89947815Y-85090000D01*
X89976487Y-85381111D01*
X90061401Y-85661034D01*
X90199294Y-85919014D01*
X90384866Y-86145134D01*
X90610986Y-86330706D01*
X90675523Y-86365201D01*
X90558645Y-86434822D01*
X90342412Y-86629731D01*
X90168359Y-86863080D01*
X90043175Y-87125901D01*
X89998524Y-87273110D01*
X90119845Y-87503000D01*
X91313000Y-87503000D01*
X91313000Y-87483000D01*
X91567000Y-87483000D01*
X91567000Y-87503000D01*
X91587000Y-87503000D01*
X91587000Y-87757000D01*
X91567000Y-87757000D01*
X91567000Y-87777000D01*
X91313000Y-87777000D01*
X91313000Y-87757000D01*
X90119845Y-87757000D01*
X89998524Y-87986890D01*
X90043175Y-88134099D01*
X90168359Y-88396920D01*
X90342412Y-88630269D01*
X90558645Y-88825178D01*
X90675523Y-88894799D01*
X90610986Y-88929294D01*
X90384866Y-89114866D01*
X90199294Y-89340986D01*
X90061401Y-89598966D01*
X89976487Y-89878889D01*
X89947815Y-90170000D01*
X89976487Y-90461111D01*
X90061401Y-90741034D01*
X90199294Y-90999014D01*
X90384866Y-91225134D01*
X90610986Y-91410706D01*
X90665791Y-91440000D01*
X90610986Y-91469294D01*
X90384866Y-91654866D01*
X90199294Y-91880986D01*
X90061401Y-92138966D01*
X89976487Y-92418889D01*
X89947815Y-92710000D01*
X89976487Y-93001111D01*
X90061401Y-93281034D01*
X90199294Y-93539014D01*
X90384866Y-93765134D01*
X90610986Y-93950706D01*
X90665791Y-93980000D01*
X90610986Y-94009294D01*
X90384866Y-94194866D01*
X90199294Y-94420986D01*
X90061401Y-94678966D01*
X89976487Y-94958889D01*
X89947815Y-95250000D01*
X89976487Y-95541111D01*
X90061401Y-95821034D01*
X90199294Y-96079014D01*
X90384866Y-96305134D01*
X90610986Y-96490706D01*
X90665791Y-96520000D01*
X90610986Y-96549294D01*
X90384866Y-96734866D01*
X90199294Y-96960986D01*
X90061401Y-97218966D01*
X89976487Y-97498889D01*
X89947815Y-97790000D01*
X89976487Y-98081111D01*
X90061401Y-98361034D01*
X90199294Y-98619014D01*
X90384866Y-98845134D01*
X90610986Y-99030706D01*
X90665791Y-99060000D01*
X90610986Y-99089294D01*
X90384866Y-99274866D01*
X90199294Y-99500986D01*
X90061401Y-99758966D01*
X89976487Y-100038889D01*
X89947815Y-100330000D01*
X89976487Y-100621111D01*
X90061401Y-100901034D01*
X90199294Y-101159014D01*
X90384866Y-101385134D01*
X90610986Y-101570706D01*
X90665791Y-101600000D01*
X90610986Y-101629294D01*
X90384866Y-101814866D01*
X90199294Y-102040986D01*
X90061401Y-102298966D01*
X89976487Y-102578889D01*
X89947815Y-102870000D01*
X89976487Y-103161111D01*
X90061401Y-103441034D01*
X90199294Y-103699014D01*
X90384866Y-103925134D01*
X90610986Y-104110706D01*
X90665791Y-104140000D01*
X90610986Y-104169294D01*
X90384866Y-104354866D01*
X90199294Y-104580986D01*
X90061401Y-104838966D01*
X89976487Y-105118889D01*
X89947815Y-105410000D01*
X89976487Y-105701111D01*
X90061401Y-105981034D01*
X90199294Y-106239014D01*
X90384866Y-106465134D01*
X90610986Y-106650706D01*
X90665791Y-106680000D01*
X90610986Y-106709294D01*
X90384866Y-106894866D01*
X90199294Y-107120986D01*
X90061401Y-107378966D01*
X89976487Y-107658889D01*
X89947815Y-107950000D01*
X89976487Y-108241111D01*
X90061401Y-108521034D01*
X90199294Y-108779014D01*
X90384866Y-109005134D01*
X90610986Y-109190706D01*
X90665791Y-109220000D01*
X90610986Y-109249294D01*
X90384866Y-109434866D01*
X90199294Y-109660986D01*
X90061401Y-109918966D01*
X89976487Y-110198889D01*
X89947815Y-110490000D01*
X89976487Y-110781111D01*
X90061401Y-111061034D01*
X90199294Y-111319014D01*
X90384866Y-111545134D01*
X90610986Y-111730706D01*
X90665791Y-111760000D01*
X90610986Y-111789294D01*
X90384866Y-111974866D01*
X90199294Y-112200986D01*
X90061401Y-112458966D01*
X89976487Y-112738889D01*
X89947815Y-113030000D01*
X89976487Y-113321111D01*
X90061401Y-113601034D01*
X90199294Y-113859014D01*
X90384866Y-114085134D01*
X90610986Y-114270706D01*
X90676909Y-114305943D01*
X90690998Y-114448985D01*
X90734454Y-114592246D01*
X90805026Y-114724276D01*
X90876201Y-114811002D01*
X90900000Y-114840001D01*
X90928998Y-114863799D01*
X91511200Y-115446002D01*
X91534999Y-115475001D01*
X91563997Y-115498799D01*
X91650724Y-115569974D01*
X91782753Y-115640546D01*
X91926014Y-115684003D01*
X92075000Y-115698677D01*
X92112333Y-115695000D01*
X103467678Y-115695000D01*
X103505000Y-115698676D01*
X103542322Y-115695000D01*
X103542333Y-115695000D01*
X103653986Y-115684003D01*
X103797247Y-115640546D01*
X103929276Y-115569974D01*
X104045001Y-115475001D01*
X104068803Y-115445998D01*
X104651004Y-114863798D01*
X104680001Y-114840001D01*
X104774974Y-114724276D01*
X104845546Y-114592247D01*
X104889003Y-114448986D01*
X104900000Y-114337333D01*
X104900000Y-114337332D01*
X104903092Y-114305942D01*
X104969014Y-114270706D01*
X105195134Y-114085134D01*
X105380706Y-113859014D01*
X105518599Y-113601034D01*
X105603513Y-113321111D01*
X105632185Y-113030000D01*
X105603513Y-112738889D01*
X105518599Y-112458966D01*
X105380706Y-112200986D01*
X105195134Y-111974866D01*
X104969014Y-111789294D01*
X104914209Y-111760000D01*
X104969014Y-111730706D01*
X105195134Y-111545134D01*
X105380706Y-111319014D01*
X105518599Y-111061034D01*
X105603513Y-110781111D01*
X105632185Y-110490000D01*
X105603513Y-110198889D01*
X105518599Y-109918966D01*
X105380706Y-109660986D01*
X105195134Y-109434866D01*
X104969014Y-109249294D01*
X104914209Y-109220000D01*
X104969014Y-109190706D01*
X105195134Y-109005134D01*
X105380706Y-108779014D01*
X105518599Y-108521034D01*
X105603513Y-108241111D01*
X105632185Y-107950000D01*
X105603513Y-107658889D01*
X105518599Y-107378966D01*
X105380706Y-107120986D01*
X105195134Y-106894866D01*
X104969014Y-106709294D01*
X104914209Y-106680000D01*
X104969014Y-106650706D01*
X105195134Y-106465134D01*
X105380706Y-106239014D01*
X105518599Y-105981034D01*
X105603513Y-105701111D01*
X105632185Y-105410000D01*
X105603513Y-105118889D01*
X105518599Y-104838966D01*
X105380706Y-104580986D01*
X105195134Y-104354866D01*
X104969014Y-104169294D01*
X104914209Y-104140000D01*
X104969014Y-104110706D01*
X105195134Y-103925134D01*
X105380706Y-103699014D01*
X105518599Y-103441034D01*
X105603513Y-103161111D01*
X105632185Y-102870000D01*
X105603513Y-102578889D01*
X105518599Y-102298966D01*
X105380706Y-102040986D01*
X105195134Y-101814866D01*
X104969014Y-101629294D01*
X104914209Y-101600000D01*
X104969014Y-101570706D01*
X105195134Y-101385134D01*
X105380706Y-101159014D01*
X105518599Y-100901034D01*
X105603513Y-100621111D01*
X105632185Y-100330000D01*
X105603513Y-100038889D01*
X105518599Y-99758966D01*
X105380706Y-99500986D01*
X105195134Y-99274866D01*
X104969014Y-99089294D01*
X104914209Y-99060000D01*
X104969014Y-99030706D01*
X105195134Y-98845134D01*
X105380706Y-98619014D01*
X105518599Y-98361034D01*
X105603513Y-98081111D01*
X105632185Y-97790000D01*
X105603513Y-97498889D01*
X105518599Y-97218966D01*
X105380706Y-96960986D01*
X105195134Y-96734866D01*
X104969014Y-96549294D01*
X104914209Y-96520000D01*
X104969014Y-96490706D01*
X105195134Y-96305134D01*
X105380706Y-96079014D01*
X105518599Y-95821034D01*
X105603513Y-95541111D01*
X105632185Y-95250000D01*
X105603513Y-94958889D01*
X105518599Y-94678966D01*
X105380706Y-94420986D01*
X105195134Y-94194866D01*
X104969014Y-94009294D01*
X104914209Y-93980000D01*
X104969014Y-93950706D01*
X105195134Y-93765134D01*
X105380706Y-93539014D01*
X105518599Y-93281034D01*
X105603513Y-93001111D01*
X105632185Y-92710000D01*
X105603513Y-92418889D01*
X105518599Y-92138966D01*
X105380706Y-91880986D01*
X105195134Y-91654866D01*
X104969014Y-91469294D01*
X104914209Y-91440000D01*
X104969014Y-91410706D01*
X105195134Y-91225134D01*
X105380706Y-90999014D01*
X105518599Y-90741034D01*
X105603513Y-90461111D01*
X105632185Y-90170000D01*
X105603513Y-89878889D01*
X105518599Y-89598966D01*
X105380706Y-89340986D01*
X105195134Y-89114866D01*
X104969014Y-88929294D01*
X104914209Y-88900000D01*
X104969014Y-88870706D01*
X105195134Y-88685134D01*
X105380706Y-88459014D01*
X105518599Y-88201034D01*
X105603513Y-87921111D01*
X105632185Y-87630000D01*
X105603513Y-87338889D01*
X105518599Y-87058966D01*
X105380706Y-86800986D01*
X105195134Y-86574866D01*
X104969014Y-86389294D01*
X104914209Y-86360000D01*
X104969014Y-86330706D01*
X105195134Y-86145134D01*
X105380706Y-85919014D01*
X105518599Y-85661034D01*
X105603513Y-85381111D01*
X105632185Y-85090000D01*
X105603513Y-84798889D01*
X105518599Y-84518966D01*
X105380706Y-84260986D01*
X105195134Y-84034866D01*
X104969014Y-83849294D01*
X104914209Y-83820000D01*
X104969014Y-83790706D01*
X105195134Y-83605134D01*
X105380706Y-83379014D01*
X105518599Y-83121034D01*
X105603513Y-82841111D01*
X105632185Y-82550000D01*
X105603513Y-82258889D01*
X105518599Y-81978966D01*
X105380706Y-81720986D01*
X105195134Y-81494866D01*
X104969014Y-81309294D01*
X104914209Y-81280000D01*
X104969014Y-81250706D01*
X105195134Y-81065134D01*
X105380706Y-80839014D01*
X105518599Y-80581034D01*
X105603513Y-80301111D01*
X105632185Y-80010000D01*
X105603513Y-79718889D01*
X105518599Y-79438966D01*
X105380706Y-79180986D01*
X105195134Y-78954866D01*
X104969014Y-78769294D01*
X104914209Y-78740000D01*
X104969014Y-78710706D01*
X105097817Y-78605000D01*
X105354249Y-78605000D01*
X105410000Y-78610491D01*
X105465751Y-78605000D01*
X105465752Y-78605000D01*
X105632499Y-78588577D01*
X105846447Y-78523676D01*
X106043623Y-78418284D01*
X106216449Y-78276449D01*
X106251995Y-78233136D01*
X106808140Y-77676992D01*
X106851449Y-77641449D01*
X106993284Y-77468623D01*
X107098676Y-77271447D01*
X107163577Y-77057499D01*
X107180000Y-76890752D01*
X107180000Y-76890751D01*
X107185491Y-76835000D01*
X107180000Y-76779248D01*
X107180000Y-62920752D01*
X107185491Y-62865000D01*
X107163577Y-62642501D01*
X107098676Y-62428553D01*
X106993284Y-62231377D01*
X106886989Y-62101857D01*
X106851449Y-62058551D01*
X106808140Y-62023008D01*
X106251995Y-61466864D01*
X106216449Y-61423551D01*
X106043623Y-61281716D01*
X105846447Y-61176324D01*
X105632499Y-61111423D01*
X105465752Y-61095000D01*
X105465751Y-61095000D01*
X105410000Y-61089509D01*
X105354249Y-61095000D01*
X90225752Y-61095000D01*
X90170000Y-61089509D01*
X90114248Y-61095000D01*
X89947501Y-61111423D01*
X89733553Y-61176324D01*
X89536377Y-61281716D01*
X89363551Y-61423551D01*
X89328008Y-61466860D01*
X88771860Y-62023009D01*
X88728552Y-62058551D01*
X88586717Y-62231377D01*
X88530384Y-62336770D01*
X88481324Y-62428554D01*
X88416423Y-62642502D01*
X88394509Y-62865000D01*
X88392000Y-62865000D01*
X88392000Y-60452000D01*
X107188000Y-60452000D01*
X107188000Y-117348000D01*
G36*
X100136487Y-112738889D02*
G01*
X100107815Y-113030000D01*
X100136487Y-113321111D01*
X100221401Y-113601034D01*
X100359294Y-113859014D01*
X100544866Y-114085134D01*
X100654368Y-114175000D01*
X94917023Y-114175000D01*
X95077588Y-114030269D01*
X95251641Y-113796920D01*
X95376825Y-113534099D01*
X95421476Y-113386890D01*
X95300155Y-113157000D01*
X94107000Y-113157000D01*
X94107000Y-113177000D01*
X93853000Y-113177000D01*
X93853000Y-113157000D01*
X93833000Y-113157000D01*
X93833000Y-112903000D01*
X93853000Y-112903000D01*
X93853000Y-112883000D01*
X94107000Y-112883000D01*
X94107000Y-112903000D01*
X95300155Y-112903000D01*
X95421476Y-112673110D01*
X95376825Y-112525901D01*
X95374014Y-112520000D01*
X100202886Y-112520000D01*
X100136487Y-112738889D01*
X100136487Y-112738889D01*
G37*
X100136487Y-112738889D02*
X100107815Y-113030000D01*
X100136487Y-113321111D01*
X100221401Y-113601034D01*
X100359294Y-113859014D01*
X100544866Y-114085134D01*
X100654368Y-114175000D01*
X94917023Y-114175000D01*
X95077588Y-114030269D01*
X95251641Y-113796920D01*
X95376825Y-113534099D01*
X95421476Y-113386890D01*
X95300155Y-113157000D01*
X94107000Y-113157000D01*
X94107000Y-113177000D01*
X93853000Y-113177000D01*
X93853000Y-113157000D01*
X93833000Y-113157000D01*
X93833000Y-112903000D01*
X93853000Y-112903000D01*
X93853000Y-112883000D01*
X94107000Y-112883000D01*
X94107000Y-112903000D01*
X95300155Y-112903000D01*
X95421476Y-112673110D01*
X95376825Y-112525901D01*
X95374014Y-112520000D01*
X100202886Y-112520000D01*
X100136487Y-112738889D01*
G36*
X100136487Y-105118889D02*
G01*
X100107815Y-105410000D01*
X100136487Y-105701111D01*
X100202886Y-105920000D01*
X95374014Y-105920000D01*
X95376825Y-105914099D01*
X95421476Y-105766890D01*
X95300155Y-105537000D01*
X94107000Y-105537000D01*
X94107000Y-105557000D01*
X93853000Y-105557000D01*
X93853000Y-105537000D01*
X93833000Y-105537000D01*
X93833000Y-105283000D01*
X93853000Y-105283000D01*
X93853000Y-105263000D01*
X94107000Y-105263000D01*
X94107000Y-105283000D01*
X95300155Y-105283000D01*
X95421476Y-105053110D01*
X95376825Y-104905901D01*
X95374014Y-104900000D01*
X100202886Y-104900000D01*
X100136487Y-105118889D01*
X100136487Y-105118889D01*
G37*
X100136487Y-105118889D02*
X100107815Y-105410000D01*
X100136487Y-105701111D01*
X100202886Y-105920000D01*
X95374014Y-105920000D01*
X95376825Y-105914099D01*
X95421476Y-105766890D01*
X95300155Y-105537000D01*
X94107000Y-105537000D01*
X94107000Y-105557000D01*
X93853000Y-105557000D01*
X93853000Y-105537000D01*
X93833000Y-105537000D01*
X93833000Y-105283000D01*
X93853000Y-105283000D01*
X93853000Y-105263000D01*
X94107000Y-105263000D01*
X94107000Y-105283000D01*
X95300155Y-105283000D01*
X95421476Y-105053110D01*
X95376825Y-104905901D01*
X95374014Y-104900000D01*
X100202886Y-104900000D01*
X100136487Y-105118889D01*
G36*
X100359294Y-98619014D02*
G01*
X100544866Y-98845134D01*
X100770986Y-99030706D01*
X100835523Y-99065201D01*
X100718645Y-99134822D01*
X100502412Y-99329731D01*
X100328359Y-99563080D01*
X100203175Y-99825901D01*
X100158524Y-99973110D01*
X100279845Y-100203000D01*
X101473000Y-100203000D01*
X101473000Y-100183000D01*
X101727000Y-100183000D01*
X101727000Y-100203000D01*
X101747000Y-100203000D01*
X101747000Y-100457000D01*
X101727000Y-100457000D01*
X101727000Y-100477000D01*
X101473000Y-100477000D01*
X101473000Y-100457000D01*
X100279845Y-100457000D01*
X100158524Y-100686890D01*
X100203175Y-100834099D01*
X100328359Y-101096920D01*
X100502412Y-101330269D01*
X100718645Y-101525178D01*
X100835523Y-101594799D01*
X100770986Y-101629294D01*
X100544866Y-101814866D01*
X100359294Y-102040986D01*
X100322405Y-102110000D01*
X95257595Y-102110000D01*
X95220706Y-102040986D01*
X95035134Y-101814866D01*
X94809014Y-101629294D01*
X94744477Y-101594799D01*
X94861355Y-101525178D01*
X95077588Y-101330269D01*
X95251641Y-101096920D01*
X95376825Y-100834099D01*
X95421476Y-100686890D01*
X95300155Y-100457000D01*
X94107000Y-100457000D01*
X94107000Y-100477000D01*
X93853000Y-100477000D01*
X93853000Y-100457000D01*
X93833000Y-100457000D01*
X93833000Y-100203000D01*
X93853000Y-100203000D01*
X93853000Y-100183000D01*
X94107000Y-100183000D01*
X94107000Y-100203000D01*
X95300155Y-100203000D01*
X95421476Y-99973110D01*
X95376825Y-99825901D01*
X95374014Y-99820000D01*
X97752678Y-99820000D01*
X97790000Y-99823676D01*
X97827322Y-99820000D01*
X97827333Y-99820000D01*
X97938986Y-99809003D01*
X98082247Y-99765546D01*
X98214276Y-99694974D01*
X98330001Y-99600001D01*
X98353804Y-99570997D01*
X99374802Y-98550000D01*
X100322405Y-98550000D01*
X100359294Y-98619014D01*
X100359294Y-98619014D01*
G37*
X100359294Y-98619014D02*
X100544866Y-98845134D01*
X100770986Y-99030706D01*
X100835523Y-99065201D01*
X100718645Y-99134822D01*
X100502412Y-99329731D01*
X100328359Y-99563080D01*
X100203175Y-99825901D01*
X100158524Y-99973110D01*
X100279845Y-100203000D01*
X101473000Y-100203000D01*
X101473000Y-100183000D01*
X101727000Y-100183000D01*
X101727000Y-100203000D01*
X101747000Y-100203000D01*
X101747000Y-100457000D01*
X101727000Y-100457000D01*
X101727000Y-100477000D01*
X101473000Y-100477000D01*
X101473000Y-100457000D01*
X100279845Y-100457000D01*
X100158524Y-100686890D01*
X100203175Y-100834099D01*
X100328359Y-101096920D01*
X100502412Y-101330269D01*
X100718645Y-101525178D01*
X100835523Y-101594799D01*
X100770986Y-101629294D01*
X100544866Y-101814866D01*
X100359294Y-102040986D01*
X100322405Y-102110000D01*
X95257595Y-102110000D01*
X95220706Y-102040986D01*
X95035134Y-101814866D01*
X94809014Y-101629294D01*
X94744477Y-101594799D01*
X94861355Y-101525178D01*
X95077588Y-101330269D01*
X95251641Y-101096920D01*
X95376825Y-100834099D01*
X95421476Y-100686890D01*
X95300155Y-100457000D01*
X94107000Y-100457000D01*
X94107000Y-100477000D01*
X93853000Y-100477000D01*
X93853000Y-100457000D01*
X93833000Y-100457000D01*
X93833000Y-100203000D01*
X93853000Y-100203000D01*
X93853000Y-100183000D01*
X94107000Y-100183000D01*
X94107000Y-100203000D01*
X95300155Y-100203000D01*
X95421476Y-99973110D01*
X95376825Y-99825901D01*
X95374014Y-99820000D01*
X97752678Y-99820000D01*
X97790000Y-99823676D01*
X97827322Y-99820000D01*
X97827333Y-99820000D01*
X97938986Y-99809003D01*
X98082247Y-99765546D01*
X98214276Y-99694974D01*
X98330001Y-99600001D01*
X98353804Y-99570997D01*
X99374802Y-98550000D01*
X100322405Y-98550000D01*
X100359294Y-98619014D01*
G36*
X94107000Y-95123000D02*
G01*
X94127000Y-95123000D01*
X94127000Y-95377000D01*
X94107000Y-95377000D01*
X94107000Y-95397000D01*
X93853000Y-95397000D01*
X93853000Y-95377000D01*
X93833000Y-95377000D01*
X93833000Y-95123000D01*
X93853000Y-95123000D01*
X93853000Y-95103000D01*
X94107000Y-95103000D01*
X94107000Y-95123000D01*
X94107000Y-95123000D01*
G37*
X94107000Y-95123000D02*
X94127000Y-95123000D01*
X94127000Y-95377000D01*
X94107000Y-95377000D01*
X94107000Y-95397000D01*
X93853000Y-95397000D01*
X93853000Y-95377000D01*
X93833000Y-95377000D01*
X93833000Y-95123000D01*
X93853000Y-95123000D01*
X93853000Y-95103000D01*
X94107000Y-95103000D01*
X94107000Y-95123000D01*
G36*
X100159203Y-92344004D02*
G01*
X100136487Y-92418889D01*
X100107815Y-92710000D01*
X100136487Y-93001111D01*
X100202886Y-93220000D01*
X95374014Y-93220000D01*
X95376825Y-93214099D01*
X95421476Y-93066890D01*
X95300155Y-92837000D01*
X94107000Y-92837000D01*
X94107000Y-92857000D01*
X93853000Y-92857000D01*
X93853000Y-92837000D01*
X93833000Y-92837000D01*
X93833000Y-92583000D01*
X93853000Y-92583000D01*
X93853000Y-92563000D01*
X94107000Y-92563000D01*
X94107000Y-92583000D01*
X95300155Y-92583000D01*
X95421476Y-92353110D01*
X95376825Y-92205901D01*
X95374014Y-92200000D01*
X100015199Y-92200000D01*
X100159203Y-92344004D01*
X100159203Y-92344004D01*
G37*
X100159203Y-92344004D02*
X100136487Y-92418889D01*
X100107815Y-92710000D01*
X100136487Y-93001111D01*
X100202886Y-93220000D01*
X95374014Y-93220000D01*
X95376825Y-93214099D01*
X95421476Y-93066890D01*
X95300155Y-92837000D01*
X94107000Y-92837000D01*
X94107000Y-92857000D01*
X93853000Y-92857000D01*
X93853000Y-92837000D01*
X93833000Y-92837000D01*
X93833000Y-92583000D01*
X93853000Y-92583000D01*
X93853000Y-92563000D01*
X94107000Y-92563000D01*
X94107000Y-92583000D01*
X95300155Y-92583000D01*
X95421476Y-92353110D01*
X95376825Y-92205901D01*
X95374014Y-92200000D01*
X100015199Y-92200000D01*
X100159203Y-92344004D01*
G36*
X99765198Y-90680000D02*
G01*
X95374014Y-90680000D01*
X95376825Y-90674099D01*
X95421476Y-90526890D01*
X95300155Y-90297000D01*
X94107000Y-90297000D01*
X94107000Y-90317000D01*
X93853000Y-90317000D01*
X93853000Y-90297000D01*
X93833000Y-90297000D01*
X93833000Y-90043000D01*
X93853000Y-90043000D01*
X93853000Y-90023000D01*
X94107000Y-90023000D01*
X94107000Y-90043000D01*
X95300155Y-90043000D01*
X95421476Y-89813110D01*
X95376825Y-89665901D01*
X95251641Y-89403080D01*
X95077588Y-89169731D01*
X94861355Y-88974822D01*
X94744477Y-88905201D01*
X94809014Y-88870706D01*
X95035134Y-88685134D01*
X95220706Y-88459014D01*
X95358599Y-88201034D01*
X95443513Y-87921111D01*
X95472185Y-87630000D01*
X95443513Y-87338889D01*
X95358599Y-87058966D01*
X95220706Y-86800986D01*
X95035134Y-86574866D01*
X94809014Y-86389294D01*
X94754209Y-86360000D01*
X94809014Y-86330706D01*
X95035134Y-86145134D01*
X95123121Y-86037922D01*
X99765198Y-90680000D01*
X99765198Y-90680000D01*
G37*
X99765198Y-90680000D02*
X95374014Y-90680000D01*
X95376825Y-90674099D01*
X95421476Y-90526890D01*
X95300155Y-90297000D01*
X94107000Y-90297000D01*
X94107000Y-90317000D01*
X93853000Y-90317000D01*
X93853000Y-90297000D01*
X93833000Y-90297000D01*
X93833000Y-90043000D01*
X93853000Y-90043000D01*
X93853000Y-90023000D01*
X94107000Y-90023000D01*
X94107000Y-90043000D01*
X95300155Y-90043000D01*
X95421476Y-89813110D01*
X95376825Y-89665901D01*
X95251641Y-89403080D01*
X95077588Y-89169731D01*
X94861355Y-88974822D01*
X94744477Y-88905201D01*
X94809014Y-88870706D01*
X95035134Y-88685134D01*
X95220706Y-88459014D01*
X95358599Y-88201034D01*
X95443513Y-87921111D01*
X95472185Y-87630000D01*
X95443513Y-87338889D01*
X95358599Y-87058966D01*
X95220706Y-86800986D01*
X95035134Y-86574866D01*
X94809014Y-86389294D01*
X94754209Y-86360000D01*
X94809014Y-86330706D01*
X95035134Y-86145134D01*
X95123121Y-86037922D01*
X99765198Y-90680000D01*
G36*
X100359294Y-75759014D02*
G01*
X100544866Y-75985134D01*
X100770986Y-76170706D01*
X100835523Y-76205201D01*
X100718645Y-76274822D01*
X100502412Y-76469731D01*
X100328359Y-76703080D01*
X100203175Y-76965901D01*
X100158524Y-77113110D01*
X100279845Y-77343000D01*
X101473000Y-77343000D01*
X101473000Y-77323000D01*
X101727000Y-77323000D01*
X101727000Y-77343000D01*
X101747000Y-77343000D01*
X101747000Y-77597000D01*
X101727000Y-77597000D01*
X101727000Y-77617000D01*
X101473000Y-77617000D01*
X101473000Y-77597000D01*
X100279845Y-77597000D01*
X100158524Y-77826890D01*
X100203175Y-77974099D01*
X100205986Y-77980000D01*
X99374802Y-77980000D01*
X97084801Y-75690000D01*
X100322405Y-75690000D01*
X100359294Y-75759014D01*
X100359294Y-75759014D01*
G37*
X100359294Y-75759014D02*
X100544866Y-75985134D01*
X100770986Y-76170706D01*
X100835523Y-76205201D01*
X100718645Y-76274822D01*
X100502412Y-76469731D01*
X100328359Y-76703080D01*
X100203175Y-76965901D01*
X100158524Y-77113110D01*
X100279845Y-77343000D01*
X101473000Y-77343000D01*
X101473000Y-77323000D01*
X101727000Y-77323000D01*
X101727000Y-77343000D01*
X101747000Y-77343000D01*
X101747000Y-77597000D01*
X101727000Y-77597000D01*
X101727000Y-77617000D01*
X101473000Y-77617000D01*
X101473000Y-77597000D01*
X100279845Y-77597000D01*
X100158524Y-77826890D01*
X100203175Y-77974099D01*
X100205986Y-77980000D01*
X99374802Y-77980000D01*
X97084801Y-75690000D01*
X100322405Y-75690000D01*
X100359294Y-75759014D01*
G36*
X96205199Y-66550000D02*
G01*
X95257595Y-66550000D01*
X95220706Y-66480986D01*
X95035134Y-66254866D01*
X94809014Y-66069294D01*
X94744477Y-66034799D01*
X94861355Y-65965178D01*
X95077588Y-65770269D01*
X95251641Y-65536920D01*
X95376825Y-65274099D01*
X95421476Y-65126890D01*
X95300155Y-64897000D01*
X94107000Y-64897000D01*
X94107000Y-64917000D01*
X93853000Y-64917000D01*
X93853000Y-64897000D01*
X93833000Y-64897000D01*
X93833000Y-64643000D01*
X93853000Y-64643000D01*
X93853000Y-64623000D01*
X94107000Y-64623000D01*
X94107000Y-64643000D01*
X95300155Y-64643000D01*
X95421476Y-64413110D01*
X95376825Y-64265901D01*
X95374014Y-64260000D01*
X98495197Y-64260000D01*
X96205199Y-66550000D01*
X96205199Y-66550000D01*
G37*
X96205199Y-66550000D02*
X95257595Y-66550000D01*
X95220706Y-66480986D01*
X95035134Y-66254866D01*
X94809014Y-66069294D01*
X94744477Y-66034799D01*
X94861355Y-65965178D01*
X95077588Y-65770269D01*
X95251641Y-65536920D01*
X95376825Y-65274099D01*
X95421476Y-65126890D01*
X95300155Y-64897000D01*
X94107000Y-64897000D01*
X94107000Y-64917000D01*
X93853000Y-64917000D01*
X93853000Y-64897000D01*
X93833000Y-64897000D01*
X93833000Y-64643000D01*
X93853000Y-64643000D01*
X93853000Y-64623000D01*
X94107000Y-64623000D01*
X94107000Y-64643000D01*
X95300155Y-64643000D01*
X95421476Y-64413110D01*
X95376825Y-64265901D01*
X95374014Y-64260000D01*
X98495197Y-64260000D01*
X96205199Y-66550000D01*
M02*
