G04 #@! TF.GenerationSoftware,KiCad,Pcbnew,(5.1.2)-2*
G04 #@! TF.CreationDate,2019-07-02T21:43:23+09:00*
G04 #@! TF.ProjectId,itg_uturn_adapter,6974675f-7574-4757-926e-5f6164617074,rev?*
G04 #@! TF.SameCoordinates,Original*
G04 #@! TF.FileFunction,Legend,Top*
G04 #@! TF.FilePolarity,Positive*
%FSLAX46Y46*%
G04 Gerber Fmt 4.6, Leading zero omitted, Abs format (unit mm)*
G04 Created by KiCad (PCBNEW (5.1.2)-2) date 2019-07-02 21:43:23*
%MOMM*%
%LPD*%
G04 APERTURE LIST*
%ADD10C,0.120000*%
%ADD11C,0.150000*%
G04 APERTURE END LIST*
D10*
X90110000Y-114360000D02*
X95310000Y-114360000D01*
X90110000Y-66040000D02*
X90110000Y-114360000D01*
X95310000Y-63440000D02*
X95310000Y-114360000D01*
X90110000Y-66040000D02*
X92710000Y-66040000D01*
X92710000Y-66040000D02*
X92710000Y-63440000D01*
X92710000Y-63440000D02*
X95310000Y-63440000D01*
X90110000Y-64770000D02*
X90110000Y-63440000D01*
X90110000Y-63440000D02*
X91440000Y-63440000D01*
X99000000Y-63440000D02*
X101600000Y-63440000D01*
X99000000Y-63440000D02*
X99000000Y-114360000D01*
X99000000Y-114360000D02*
X104200000Y-114360000D01*
X104200000Y-66040000D02*
X104200000Y-114360000D01*
X101600000Y-66040000D02*
X104200000Y-66040000D01*
X101600000Y-63440000D02*
X101600000Y-66040000D01*
X104200000Y-63440000D02*
X104200000Y-64770000D01*
X102870000Y-63440000D02*
X104200000Y-63440000D01*
D11*
X99607619Y-61261666D02*
X98893333Y-61261666D01*
X98750476Y-61214047D01*
X98655238Y-61118809D01*
X98607619Y-60975952D01*
X98607619Y-60880714D01*
X99512380Y-61690238D02*
X99560000Y-61737857D01*
X99607619Y-61833095D01*
X99607619Y-62071190D01*
X99560000Y-62166428D01*
X99512380Y-62214047D01*
X99417142Y-62261666D01*
X99321904Y-62261666D01*
X99179047Y-62214047D01*
X98607619Y-61642619D01*
X98607619Y-62261666D01*
X105322619Y-61261666D02*
X104608333Y-61261666D01*
X104465476Y-61214047D01*
X104370238Y-61118809D01*
X104322619Y-60975952D01*
X104322619Y-60880714D01*
X104322619Y-62261666D02*
X104322619Y-61690238D01*
X104322619Y-61975952D02*
X105322619Y-61975952D01*
X105179761Y-61880714D01*
X105084523Y-61785476D01*
X105036904Y-61690238D01*
M02*
