M48
INCH,TZ
T1C0.0394
%
G90
G05
T1
X36000Y-25500
X36000Y-26500
X36000Y-27500
X36000Y-28500
X36000Y-29500
X36000Y-30500
X36000Y-31500
X36000Y-32500
X36000Y-33500
X36000Y-34500
X36000Y-35500
X36000Y-36500
X36000Y-37500
X36000Y-38500
X36000Y-39500
X36000Y-40500
X36000Y-41500
X36000Y-42500
X36000Y-43500
X36000Y-44500
X37000Y-25500
X37000Y-26500
X37000Y-27500
X37000Y-28500
X37000Y-29500
X37000Y-30500
X37000Y-31500
X37000Y-32500
X37000Y-33500
X37000Y-34500
X37000Y-35500
X37000Y-36500
X37000Y-37500
X37000Y-38500
X37000Y-39500
X37000Y-40500
X37000Y-41500
X37000Y-42500
X37000Y-43500
X37000Y-44500
X39500Y-25500
X39500Y-26500
X39500Y-27500
X39500Y-28500
X39500Y-29500
X39500Y-30500
X39500Y-31500
X39500Y-32500
X39500Y-33500
X39500Y-34500
X39500Y-35500
X39500Y-36500
X39500Y-37500
X39500Y-38500
X39500Y-39500
X39500Y-40500
X39500Y-41500
X39500Y-42500
X39500Y-43500
X39500Y-44500
X40500Y-25500
X40500Y-26500
X40500Y-27500
X40500Y-28500
X40500Y-29500
X40500Y-30500
X40500Y-31500
X40500Y-32500
X40500Y-33500
X40500Y-34500
X40500Y-35500
X40500Y-36500
X40500Y-37500
X40500Y-38500
X40500Y-39500
X40500Y-40500
X40500Y-41500
X40500Y-42500
X40500Y-43500
X40500Y-44500
T0
M30
